<?xml version="1.0" encoding="utf-8"?>
<!-- Generator: Adobe Illustrator 23.0.3, SVG Export Plug-In . SVG Version: 6.00 Build 0)  -->
<svg version="1.1" id="Шар_1" xmlns="http://www.w3.org/2000/svg" xmlns:xlink="http://www.w3.org/1999/xlink" x="0px" y="0px"
	 viewBox="0 0 80.17 30.1" style="enable-background:new 0 0 80.17 30.1;" xml:space="preserve">
<style type="text/css">
	.st0{opacity:0;fill:none;stroke:#FFFFFF;stroke-width:0.1973;stroke-linecap:round;stroke-linejoin:round;stroke-miterlimit:10;}
	.st1{fill:none;}
</style>
<path d="M13.52,14.36c0-1.37,0.6-2.55,1.39-3.33H3.98c-1.39,0-1.99,0.98-1.59,2.15c0.4,0.98,1.19,1.18,1.99,1.18H13.52z"/>
<path d="M13.32,15.14C13.32,14.94,13.32,15.14,13.32,15.14H5.77c-0.79,0-1.39,0.39-1.59,1.18c-0.2,0.78,0,1.57,0.79,1.96
	c0.4,0.2,0.79,0.2,1.39,0.2h7.95C13.71,17.69,13.32,16.32,13.32,15.14"/>
<path d="M32.78,19.84V9.07V6.72c-2.58-1.57-5.16-3.13-7.75-4.51H11.13c-0.4,1.37,0.79,2.94,2.19,3.33c0.6,0.2,1.39,0.2,1.99,0.2
	h4.57v0.98H6.76H5.37c-0.6,0.2-1.19,0.78-1.19,1.57c-0.2,0.98,0.6,1.96,1.79,1.96h9.54c1.19-1.18,2.98-1.96,4.77-1.96
	c3.77,0,6.95,2.94,6.95,6.66c0,3.92-3.18,6.86-6.95,6.86c-2.38,0-4.37-1.18-5.56-2.74H9.54c-0.99,0-1.79,0.78-1.79,1.76
	c0,0.98,0.79,1.76,1.79,1.76H30.2h0.99c0.99-0.2,1.39-0.59,1.59-1.57V19.84z"/>
<path d="M26.03,14.55h-1.99c0-0.98-0.2-1.96-0.79-2.74h1.79C25.63,12.59,26.03,13.57,26.03,14.55"/>
<path d="M20.47,11.22V9.66c0.79,0.39,1.39,0.98,1.79,1.57H20.47z"/>
<path d="M22.65,11.81c0.6,0.78,0.79,1.76,0.79,2.74h-2.98v-2.74H22.65z"/>
<path d="M20.07,11.22h-1.79c0.4-0.59,0.99-1.18,1.79-1.57V11.22z"/>
<path d="M20.07,11.81v2.74h-2.98c0-0.98,0.4-1.96,0.79-2.74H20.07z"/>
<path d="M20.07,15.14v3.13h-2.19c-0.6-0.98-0.79-1.96-0.79-3.13H20.07z"/>
<path d="M20.07,18.67v1.76c-0.79-0.39-1.39-0.98-1.79-1.76H20.07z"/>
<path d="M20.47,18.67h1.79c-0.4,0.78-0.99,1.37-1.79,1.76V18.67z"/>
<path d="M20.47,18.27v-3.13h2.98c0,1.18-0.2,2.15-0.79,3.13H20.47z"/>
<path d="M24.64,11.22h-1.59c-0.6-0.59-1.19-1.37-1.79-1.76C22.65,9.65,23.84,10.24,24.64,11.22"/>
<path d="M19.28,9.46c-0.6,0.39-1.19,1.18-1.79,1.76H15.9C16.69,10.24,17.88,9.65,19.28,9.46"/>
<path d="M15.5,11.81h1.79c-0.4,0.78-0.79,1.76-0.79,2.74h-1.99C14.51,13.57,14.91,12.59,15.5,11.81"/>
<path d="M14.51,15.14h1.99c0,1.18,0.2,2.15,0.79,3.13H15.5C14.91,17.29,14.51,16.31,14.51,15.14"/>
<path d="M15.9,18.66h1.59c0.6,0.78,1.19,1.57,1.79,1.96C17.88,20.43,16.69,19.84,15.9,18.66"/>
<path d="M21.26,20.62c0.6-0.39,1.19-1.18,1.79-1.96h1.59C23.84,19.84,22.65,20.43,21.26,20.62"/>
<path d="M25.04,18.27h-1.79c0.6-0.98,0.79-1.96,0.79-3.13h1.99C26.03,16.31,25.63,17.29,25.04,18.27"/>
<path d="M39.74,20.82h1.79c1.99,0,3.97-0.78,3.97-2.94s-1.79-3.13-4.17-3.13h-1.59V20.82z M39.74,13.18h1.79
	c2.19,0,3.58-0.98,3.58-2.55c0-1.96-1.39-2.55-3.58-2.55h-1.79V13.18z M37.55,6.72c0.99-0.2,2.38-0.2,3.77-0.2
	c2.19,0,3.58,0.2,4.57,1.18c0.79,0.59,1.19,1.37,1.19,2.74s-0.99,2.74-2.58,3.33v0.2c1.39,0.39,3.18,1.57,3.18,3.92
	c0,1.37-0.6,2.35-1.39,3.13c-0.99,0.98-2.78,1.37-5.36,1.37c-1.59,0-2.58,0-3.38-0.2V6.72z"/>
<path d="M50.26,19.84c0.79,0.59,2.19,0.98,3.58,0.98c2.19,0,3.38-0.98,3.38-2.55s-0.79-2.35-2.98-3.13
	c-2.58-0.98-4.17-2.35-4.17-4.51c0-2.55,1.99-4.31,5.16-4.31c1.59,0,2.78,0.39,3.58,0.78l-0.6,1.57c-0.6-0.2-1.59-0.59-3.18-0.59
	c-2.19,0-2.98,1.18-2.98,2.35c0,1.37,0.99,2.15,3.18,2.94c2.78,0.98,4.17,2.35,4.17,4.7c0,2.35-1.79,4.51-5.56,4.51
	c-1.59,0-3.38-0.39-4.17-0.98L50.26,19.84z"/>
<path d="M73.31,21.8c-0.79,0.39-2.19,0.78-4.17,0.78c-4.57,0-7.95-2.74-7.95-8.03c0-4.9,3.38-8.23,8.34-8.23
	c1.99,0,3.38,0.39,3.77,0.78l-0.4,1.57c-0.79-0.39-1.99-0.59-3.18-0.59c-3.77,0-6.36,2.35-6.36,6.46c0,3.92,2.38,6.27,6.16,6.27
	c1.19,0,2.58-0.2,3.38-0.59L73.31,21.8z"/>
<rect x="75.89" y="6.52" width="2.19" height="15.87"/>
<rect x="75.89" y="6.52" class="st0" width="2.19" height="15.87"/>
<path d="M2.99,27.28h0.2c0.4,0,0.6,0,0.6-0.39c0-0.2-0.2-0.2-0.6-0.2h-0.2V27.28z M2.99,26.5h0.4c0.2,0,0.4-0.2,0.4-0.39
	s-0.2-0.2-0.6-0.2h-0.2V26.5z M2.79,25.71h0.4h0.6c0.2,0.2,0.2,0.2,0.2,0.39s-0.2,0.39-0.4,0.39c0.2,0,0.4,0.2,0.4,0.39
	s0,0.39-0.2,0.39c0,0.2-0.2,0.2-0.6,0.2h-0.4V25.71z"/>
<path d="M6.36,27.09v0.39h-0.2v-0.2c0,0.2-0.2,0.2-0.4,0.2s-0.4,0-0.4-0.59v-0.78h0.2v0.78c0,0.2,0,0.39,0.2,0.39s0.4,0,0.4-0.2
	v-0.98h0.2V27.09z"/>
<path d="M7.75,27.28h0.4c0.2,0,0.2,0,0.2-0.2c0,0,0-0.2-0.2-0.2c-0.4,0-0.4-0.2-0.4-0.39s0.2-0.39,0.4-0.39s0.4,0,0.4,0.2v0.2
	c-0.2-0.2-0.2-0.2-0.4-0.2s-0.2,0.2-0.2,0.2c0,0.2,0,0.2,0.2,0.2c0.4,0.2,0.4,0.2,0.4,0.39s-0.2,0.39-0.4,0.39h-0.4V27.28z"/>
<path d="M9.94,26.11h0.2v1.37h-0.2V26.11z M10.14,25.71c0,0.2,0,0.2-0.2,0.2c0,0-0.2,0-0.2-0.2h0.2H10.14z"/>
<path d="M11.53,26.5v-0.39h0.2v0.2c0,0,0.2-0.2,0.4-0.2s0.4,0.2,0.4,0.59v0.78h-0.2v-0.78c0-0.2,0-0.39-0.2-0.39s-0.4,0.2-0.4,0.2
	v0.2v0.78h-0.2V26.5z"/>
<path d="M14.9,26.69c0-0.2-0.2-0.39-0.4-0.39s-0.4,0.2-0.4,0.39H14.9z M14.11,26.89c0,0.39,0.2,0.39,0.4,0.39h0.4v0.2h-0.4
	c-0.4,0-0.6-0.2-0.6-0.59c0-0.39,0.2-0.78,0.6-0.78s0.6,0.39,0.6,0.59v0.2H14.11z"/>
<path d="M16.29,27.28h0.4c0.2,0,0.2,0,0.2-0.2c0,0,0-0.2-0.2-0.2c-0.4,0-0.4-0.2-0.4-0.39s0.2-0.39,0.4-0.39s0.4,0,0.4,0.2v0.2
	c-0.2-0.2-0.2-0.2-0.4-0.2s-0.2,0.2-0.2,0.2c0,0.2,0,0.2,0.2,0.2c0.4,0.2,0.4,0.2,0.4,0.39s-0.2,0.39-0.4,0.39h-0.4V27.28z"/>
<path d="M18.28,27.28h0.4c0.2,0,0.2,0,0.2-0.2c0,0,0-0.2-0.2-0.2s-0.4-0.2-0.4-0.39s0.2-0.39,0.6-0.39c0,0,0.2,0,0.2,0.2v0.2
	c0-0.2-0.2-0.2-0.2-0.2c-0.2,0-0.4,0.2-0.4,0.2c0,0.2,0.2,0.2,0.4,0.2c0.2,0.2,0.4,0.2,0.4,0.39s-0.2,0.39-0.6,0.39h-0.4V27.28z"/>
<path d="M22.06,27.28h0.4c0.2,0,0.4,0,0.4-0.2s-0.2-0.39-0.4-0.39c-0.4-0.2-0.4-0.39-0.4-0.59s0.2-0.39,0.6-0.39h0.4l-0.2,0.2h-0.2
	c-0.4,0-0.4,0-0.4,0.2s0,0.2,0.4,0.39c0.2,0,0.4,0.2,0.4,0.59c0,0.2-0.2,0.39-0.6,0.39h-0.6L22.06,27.28z"/>
<path d="M24.44,26.89c0,0.2,0.2,0.39,0.4,0.39c0.4,0,0.6-0.2,0.6-0.39c0-0.2-0.2-0.59-0.6-0.59C24.64,26.3,24.44,26.5,24.44,26.89
	 M25.63,26.89c0,0.39-0.4,0.59-0.79,0.59c-0.2,0-0.6-0.2-0.6-0.59c0-0.39,0.4-0.78,0.6-0.78C25.23,26.11,25.63,26.5,25.63,26.89"/>
<path d="M27.82,27.48h-0.4c-0.4,0-0.6-0.2-0.6-0.59s0.2-0.78,0.6-0.78c0.2,0,0.4,0,0.4,0.2v0.2c-0.2-0.2-0.2-0.2-0.4-0.2
	s-0.4,0.2-0.4,0.59c0,0.2,0.2,0.39,0.4,0.39h0.4V27.48z"/>
<path d="M29.01,26.11h0.4v1.37h-0.4V26.11z M29.41,25.71c0,0.2-0.2,0.2-0.2,0.2c-0.2,0-0.2,0-0.2-0.2h0.2H29.41z"/>
<path d="M31.39,26.89c-0.2,0-0.6,0-0.6,0.2s0.2,0.2,0.2,0.2c0.2,0,0.4,0,0.4-0.2V26.89z M31.39,27.48v-0.2c0,0.2-0.2,0.2-0.4,0.2
	s-0.4-0.2-0.4-0.39s0.2-0.39,0.79-0.39c0-0.2,0-0.39-0.4-0.39c0,0-0.2,0-0.2,0.2l-0.2-0.2c0.2-0.2,0.4-0.2,0.6-0.2
	c0.4,0,0.4,0.39,0.4,0.59v0.59v0.2H31.39z"/>
<rect x="32.98" y="25.52" width="0.2" height="1.96"/>
<rect x="32.98" y="25.52" class="st0" width="0.2" height="1.96"/>
<path d="M37.55,27.48h-0.6c-0.6,0-0.99-0.2-0.99-0.78s0.4-0.98,0.99-0.98h0.6l-0.2,0.2h-0.4c-0.4,0-0.6,0.2-0.6,0.59
	c0,0.59,0.2,0.78,0.6,0.78h0.4L37.55,27.48z"/>
<path d="M38.74,26.89c0,0.2,0.2,0.39,0.6,0.39c0.2,0,0.4-0.2,0.4-0.39c0-0.2-0.2-0.59-0.4-0.59C38.94,26.3,38.74,26.5,38.74,26.89
	 M39.93,26.89c0,0.39-0.4,0.59-0.6,0.59c-0.4,0-0.79-0.2-0.79-0.59c0-0.39,0.4-0.78,0.79-0.78S39.93,26.5,39.93,26.89"/>
<path d="M41.12,26.5V26.1h0.2v0.2c0.2,0,0.2-0.2,0.6-0.2c0,0,0.2,0.2,0.2,0.39h0.2v-0.2c0.2-0.2,0.2-0.2,0.4-0.2s0.4,0.2,0.4,0.59
	v0.78h-0.2v-0.78c0-0.2-0.2-0.39-0.4-0.39l-0.2,0.2v0.2v0.78h-0.2v-0.78c0-0.2-0.2-0.39-0.4-0.39s-0.2,0.2-0.2,0.2
	c0,0.2-0.2,0.2-0.2,0.2v0.78h-0.2V26.5z"/>
<path d="M44.7,26.89v0.2c0,0.2,0.2,0.2,0.4,0.2s0.4-0.2,0.4-0.39c0-0.39-0.2-0.59-0.4-0.59s-0.4,0.2-0.4,0.39V26.89z M44.5,26.69
	V26.1h0.2v0.39c0.2-0.2,0.2-0.39,0.4-0.39c0.4,0,0.6,0.39,0.6,0.78c0,0.39-0.2,0.59-0.6,0.59c-0.2,0-0.2,0-0.4-0.2v0.78h-0.2V26.69z
	"/>
<rect x="47.08" y="25.52" width="0.2" height="1.96"/>
<rect x="47.08" y="25.52" class="st0" width="0.2" height="1.96"/>
<path d="M48.67,26.1h0.2v1.37h-0.2V26.1z M48.87,25.71c0,0.2,0,0.2-0.2,0.2v-0.2H48.87z"/>
<path d="M51.06,26.89c-0.4,0-0.6,0-0.6,0.2s0,0.2,0.2,0.2s0.2,0,0.2-0.2h0.2V26.89z M51.06,27.48v-0.2c-0.2,0.2-0.4,0.2-0.6,0.2
	s-0.4-0.2-0.4-0.39s0.4-0.39,0.79-0.39c0-0.2,0-0.39-0.2-0.39s-0.2,0-0.4,0.2v-0.2c0-0.2,0.2-0.2,0.4-0.2c0.4,0,0.6,0.39,0.6,0.59
	v0.59v0.2H51.06z"/>
<path d="M52.65,26.5c0-0.2,0-0.2-0.2-0.39h0.4v0.2c0,0,0.2-0.2,0.4-0.2s0.4,0.2,0.4,0.59v0.78h-0.2v-0.78c0-0.2,0-0.39-0.2-0.39
	s-0.4,0.2-0.4,0.2v0.2v0.78h-0.2V26.5z"/>
<path d="M56.02,27.47h-0.4c-0.4,0-0.6-0.2-0.6-0.59s0.2-0.78,0.6-0.78c0.2,0,0.4,0,0.4,0.2v0.2c-0.2-0.2-0.2-0.2-0.4-0.2
	s-0.4,0.2-0.4,0.59c0,0.2,0.2,0.39,0.4,0.39h0.4V27.47z"/>
<path d="M58.21,26.69c0-0.2-0.2-0.39-0.4-0.39s-0.4,0.2-0.4,0.39H58.21z M57.41,26.89c0,0.39,0.2,0.39,0.4,0.39h0.4v0.2h-0.4
	c-0.4,0-0.6-0.2-0.6-0.59c0-0.39,0.2-0.78,0.6-0.78s0.6,0.39,0.6,0.59v0.2H57.41z"/>
<rect x="61.19" y="25.71" width="0.2" height="1.76"/>
<rect x="61.19" y="25.71" class="st0" width="0.2" height="1.76"/>
<path d="M62.78,26.5V26.1h0.2v0.2c0.2,0,0.2-0.2,0.6-0.2c0.2,0,0.4,0.2,0.4,0.59v0.78h-0.2v-0.78c0-0.2-0.2-0.39-0.4-0.39
	s-0.2,0.2-0.2,0.2l-0.2,0.2v0.78h-0.2V26.5z"/>
<path d="M65.56,25.71v0.39h0.4v0.2h-0.4v0.78c0,0.2,0.2,0.2,0.2,0.2h0.2v0.2h-0.2h-0.2c-0.2-0.2-0.2-0.2-0.2-0.39V26.3h-0.2v-0.2
	h0.2v-0.2L65.56,25.71z"/>
<path d="M67.15,26.1h0.2v1.37h-0.2V26.1z M67.54,25.71c0,0.2-0.2,0.2-0.2,0.2c-0.2,0-0.2,0-0.2-0.2h0.2H67.54z"/>
<path d="M69.53,26.89c-0.2,0-0.6,0-0.6,0.2s0.2,0.2,0.2,0.2c0.2,0,0.4,0,0.4-0.2V26.89z M69.53,27.47v-0.2c0,0.2-0.2,0.2-0.4,0.2
	s-0.4-0.2-0.4-0.39s0.2-0.39,0.79-0.39c0-0.2,0-0.39-0.4-0.39c0,0-0.2,0-0.2,0.2l-0.2-0.2c0.2-0.2,0.4-0.2,0.6-0.2
	c0.4,0,0.4,0.39,0.4,0.59v0.59v0.2H69.53z"/>
<path d="M71.32,25.71v0.39h0.4v0.2h-0.4v0.78c0,0.2,0.2,0.2,0.2,0.2h0.2v0.2h-0.2h-0.2c-0.2-0.2-0.2-0.2-0.2-0.39V26.3h-0.2v-0.2
	h0.2v-0.2L71.32,25.71z"/>
<path d="M72.91,26.1h0.4v1.37h-0.4V26.1z M73.3,25.71c0,0.2-0.2,0.2-0.2,0.2s-0.2,0-0.2-0.2h0.2H73.3z"/>
<path d="M74.7,26.1l0.2,0.78c0.2,0.2,0.2,0.2,0.2,0.39v-0.39l0.4-0.78h0.2l-0.6,1.37h-0.2l-0.4-1.37H74.7z"/>
<path d="M77.67,26.69c0-0.2,0-0.39-0.2-0.39c-0.4,0-0.4,0.2-0.4,0.39H77.67z M77.08,26.89c0,0.39,0.2,0.39,0.4,0.39h0.4v0.2h-0.4
	c-0.4,0-0.79-0.2-0.79-0.59c0-0.39,0.4-0.78,0.79-0.78s0.4,0.39,0.4,0.59v0.2H77.08z"/>
<rect x="2.2" y="2.03" class="st1" width="76.28" height="26.44"/>
</svg>
