<?xml version="1.0" encoding="utf-8"?>
<!-- Generator: Adobe Illustrator 23.0.3, SVG Export Plug-In . SVG Version: 6.00 Build 0)  -->
<svg version="1.1" id="Шар_1" xmlns="http://www.w3.org/2000/svg" xmlns:xlink="http://www.w3.org/1999/xlink" x="0px" y="0px"
	 viewBox="0 0 56.69 56.69" style="enable-background:new 0 0 56.69 56.69;" xml:space="preserve">
<style type="text/css">
	.st0{fill:#FFFFFF;}
	.st1{fill:none;stroke:#0E72BA;stroke-width:1.6552;stroke-miterlimit:1;}
	.st2{fill:none;stroke:#000000;stroke-width:1.1034;stroke-linecap:round;stroke-linejoin:round;stroke-miterlimit:1;}
	.st3{opacity:0;fill:none;stroke:#FFFFFF;stroke-width:0.1379;stroke-linecap:round;stroke-linejoin:round;stroke-miterlimit:1;}
	.st4{fill:#0E72BA;}
	.st5{fill:none;}
</style>
<path class="st0" d="M50.51,55.66H4.58c-2.48,0-4.41-1.93-4.41-4.41V5.31c0-2.48,1.93-4.41,4.41-4.41h45.93
	c2.34,0,4.41,1.93,4.41,4.41v45.93C54.92,53.72,52.85,55.66,50.51,55.66"/>
<path class="st1" d="M50.51,55.66H4.58c-2.48,0-4.41-1.93-4.41-4.41V5.31c0-2.48,1.93-4.41,4.41-4.41h45.93
	c2.34,0,4.41,1.93,4.41,4.41v45.93C54.92,53.72,52.85,55.66,50.51,55.66z"/>
<polygon class="st0" points="24.3,12.34 36.99,16.07 48.86,12.34 36.99,8.62 "/>
<polygon class="st2" points="24.3,12.34 36.99,16.07 48.86,12.34 36.99,8.62 "/>
<polygon class="st0" points="24.3,27.93 24.3,12.34 36.99,16.07 36.99,32.07 "/>
<polygon class="st2" points="24.3,27.93 24.3,12.34 36.99,16.07 36.99,32.07 "/>
<polygon class="st0" points="48.86,12.34 36.99,16.07 36.99,32.07 48.86,27.93 "/>
<polygon class="st2" points="48.86,12.34 36.99,16.07 36.99,32.07 48.86,27.93 "/>
<polygon points="29.55,10.83 41.55,14.55 44.72,13.58 32.86,9.86 "/>
<polygon class="st3" points="29.55,10.83 41.55,14.55 44.72,13.58 32.86,9.86 "/>
<polygon points="41.55,30.55 41.55,14.55 44.72,13.58 44.72,29.45 "/>
<polygon class="st3" points="41.55,30.55 41.55,14.55 44.72,13.58 44.72,29.45 "/>
<path d="M48.86,27.93l-11.86,4.14L24.3,27.93V12.34l12.69-3.72l11.86,3.72V27.93z M36.99,8.07l-13.24,3.86v16.41l13.24,4.41
	l12.41-4.41V11.93L36.99,8.07z"/>
<path class="st3" d="M48.86,27.93l-11.86,4.14L24.3,27.93V12.34l12.69-3.72l11.86,3.72V27.93z M36.99,8.07l-13.24,3.86v16.41
	l13.24,4.41l12.41-4.41V11.93L36.99,8.07z"/>
<path class="st0" d="M40.86,32.9c-1.52,0.55-2.34,0.83-3.72,1.24v10.62c-3.03,0.83-13.93,3.86-13.93,3.86s-10.34-3.59-13.52-4.69
	c0-3.03,0.14-6.21,0.14-9.1c-1.24-0.41-2.62-0.69-4.14-1.38c1.1-2.07,2.62-4.14,3.72-6.21c-1.1-1.52-2.07-3.03-3.59-5.1
	c5.1-1.24,9.65-2.48,14.34-3.72c1.1,1.52,2.07,2.62,3.17,4c1.38-1.1,2.62-2.21,3.86-3.45c4.69,1.52,9.38,2.9,14.76,4.41
	c-1.79,1.93-3.17,3.03-4.83,4.55C38.24,29.59,39.61,31.1,40.86,32.9"/>
<path class="st4" d="M14.1,27.38c0.69,0.28,5.93,1.66,8.41,2.48v-4.41C20.03,26,16.44,26.83,14.1,27.38 M24.03,29.86
	c3.03-0.69,5.52-1.24,8-1.93c-2.62-0.83-5.1-1.66-8-2.48V29.86z M19.89,19.79c-4,0.97-8,1.93-12.28,3.03
	c1.24,1.66,2.21,2.9,3.17,4.14c4-0.97,7.86-1.79,12.28-2.9C21.82,22.55,20.86,21.31,19.89,19.79 M39.34,32.34
	c-1.38-1.52-2.34-2.9-3.31-4.14c-4,0.97-7.72,1.93-11.86,2.9c1.24,1.66,2.21,3.03,3.17,4.28C31.34,34.41,35.06,33.45,39.34,32.34
	 M23.62,24.07c4.41,1.38,8.83,2.62,12.14,3.59c1.66-1.38,2.62-2.48,4.14-3.72c-4.55-1.24-8.55-2.48-12.28-3.59
	C26.24,21.72,25.13,22.69,23.62,24.07 M7.2,32.9c4,1.38,8,2.62,11.86,3.72c1.24-1.79,2.34-3.59,3.45-5.52
	c-4-1.24-7.86-2.48-11.86-3.59C9.55,29.31,8.44,30.96,7.2,32.9 M11.06,35.52v7.72c3.86,1.24,7.45,2.34,11.31,3.59v-13.1
	c-0.97,1.66-1.79,2.9-2.76,4.28C16.86,37.17,14.24,36.34,11.06,35.52 M24.03,46.83c4.14-0.97,8-1.93,11.72-2.9v-9.38
	c-3.03,0.69-5.93,1.38-8.83,2.07c-0.83-1.1-1.66-2.07-2.9-3.31V46.83z M40.86,32.9c-1.52,0.55-2.34,0.83-3.72,1.24v10.62
	c-3.03,0.83-13.93,3.86-13.93,3.86s-10.34-3.59-13.52-4.69c0-3.03,0.14-6.21,0.14-9.1c-1.24-0.41-2.62-0.69-4.14-1.38
	c1.1-2.07,2.62-4.14,3.72-6.21c-1.1-1.52-2.07-3.03-3.59-5.1c5.1-1.24,9.65-2.48,14.34-3.72c1.1,1.52,2.07,2.62,3.17,4
	c1.38-1.1,2.62-2.21,3.86-3.45c4.69,1.52,9.38,2.9,14.76,4.41c-1.79,1.93-3.17,3.03-4.83,4.55C38.24,29.59,39.61,31.1,40.86,32.9"/>
<rect x="-0.52" y="0.21" class="st5" width="56.69" height="56.69"/>
</svg>
