<?xml version="1.0" encoding="utf-8"?>
<!-- Generator: Adobe Illustrator 23.0.3, SVG Export Plug-In . SVG Version: 6.00 Build 0)  -->
<svg version="1.1" id="Шар_1" xmlns="http://www.w3.org/2000/svg" xmlns:xlink="http://www.w3.org/1999/xlink" x="0px" y="0px"
	 viewBox="0 0 56.69 56.69" style="enable-background:new 0 0 56.69 56.69;" xml:space="preserve">
<style type="text/css">
	.st0{fill:#FFFFFF;}
	.st1{fill:none;stroke:#0E72BA;stroke-width:1.6552;stroke-miterlimit:1;}
	.st2{fill:#0E72BA;}
	.st3{fill:none;}
</style>
<path class="st0" d="M50.52,55.51H4.59c-2.48,0-4.41-1.93-4.41-4.41V5.16c0-2.48,1.93-4.41,4.41-4.41h45.93
	c2.48,0,4.41,1.93,4.41,4.41V51.1C54.93,53.58,53,55.51,50.52,55.51"/>
<path class="st1" d="M50.52,55.51H4.59c-2.48,0-4.41-1.93-4.41-4.41V5.16c0-2.48,1.93-4.41,4.41-4.41h45.93
	c2.48,0,4.41,1.93,4.41,4.41V51.1C54.93,53.58,53,55.51,50.52,55.51z"/>
<path d="M31.9,15.51c0,0.14-0.28,0.41-0.55,0.55c-1.24,0.97-4.83,2.07-10.76,2.07c-5.79,0-9.38-1.1-10.62-2.07
	c-0.41-0.14-0.55-0.41-0.55-0.55v-0.97v-2.07c1.79,1.24,6.07,2.21,11.17,2.21c5.1,0,9.38-0.97,11.31-2.21V15.51z M11.35,29.86
	l-0.69-12.28c0.69,0.28,1.38,0.41,2.07,0.69l0.69,12.83C12.04,30.68,11.35,30.27,11.35,29.86 M20.59,8.2
	c5.79,0,10.34,1.24,10.34,2.76c0,1.38-4.55,2.62-10.34,2.62c-5.65,0-10.34-1.24-10.34-2.62C10.24,9.44,14.93,8.2,20.59,8.2
	 M32.73,11.23V11.1c0-1.93-5.38-3.59-12.14-3.59c-6.62,0-12.14,1.66-12.14,3.59v0.14V11.1v4.41c0,0.55,0.55,1.1,1.38,1.66
	l0.41,12.14c0,1.93,4.55,3.59,10.34,3.59c5.79,0,10.48-1.66,10.48-3.59l0.41-12.14c0.83-0.55,1.24-1.1,1.24-1.66V11.1V11.23z"/>
<path class="st0" d="M11.49,42.82v-7.03c0.97-0.83,2.48-1.66,3.59-2.21c4-2.07,8-4.41,12.14-6.21c2.34-0.97,4.69-1.93,7.17-2.34
	c0.83-0.28,1.66-0.14,2.48,0c4,1.1,8.14,2.07,12.28,3.17c0.14,0,0.28,0.14,0.55,0.14v5.79c0,0.55-0.41,0.97-0.69,1.38
	c-0.83,1.1-1.93,2.07-3.17,2.76c-4,2.07-8,4.28-11.86,6.48c-2.07,1.1-4.41,1.93-6.76,2.34c-0.83,0.14-1.79,0.14-2.62,0
	C19.76,46.27,12.17,43.65,11.49,42.82"/>
<path class="st2" d="M25.97,46.41h0.55c2.9-0.55,5.65-1.66,8.41-3.17c3.31-1.66,6.62-3.45,9.93-5.24c1.24-0.69,2.34-1.52,3.31-2.62
	c0.28-0.41,0.69-0.83,0.69-1.24c0-1.66,0.14-3.31-0.14-4.97c-4,0.41-20.69,8.55-22.76,11.03V46.41z M44.59,28.75
	c-2.62-0.83-5.24-1.38-7.86-2.07c-1.52-0.55-3.03-0.41-4.55,0.14c-0.83,0.28-1.66,0.41-2.34,0.83c-5.24,2.21-14.62,6.9-16.41,8.41
	c4,1.79,6.9,2.48,10.48,3.31C30.66,35.24,37.41,31.79,44.59,28.75 M11.49,42.82v-7.03c0.97-0.83,2.48-1.66,3.59-2.21
	c4-2.07,8-4.41,12.14-6.21c2.34-0.97,4.69-1.93,7.17-2.34c0.83-0.28,1.66-0.14,2.48,0c4,1.1,8.14,2.07,12.28,3.17
	c0.14,0,0.28,0.14,0.55,0.14v5.79c0,0.55-0.41,0.97-0.69,1.38c-0.83,1.1-1.93,2.07-3.17,2.76c-4,2.07-8,4.28-11.86,6.48
	c-2.07,1.1-4.41,1.93-6.76,2.34c-0.83,0.14-1.79,0.14-2.62,0C19.76,46.27,12.17,43.65,11.49,42.82"/>
<path class="st2" d="M38.1,30.41c-1.24,0.55-2.21,1.1-3.03,1.52c-2.62-0.69-5.1-1.24-7.72-1.93c1.66-0.97,3.45-1.38,3.45-1.38
	C34.52,29.44,35.9,29.86,38.1,30.41"/>
<path class="st2" d="M26.79,45.44v-4.97C29.97,37.72,45,30.41,48.03,30.13v3.31c0,0.55-0.14,0.97-0.41,1.38
	c-0.69,0.83-1.52,1.52-2.48,2.07c-4.14,2.21-8.41,4.55-12.69,6.76c-1.38,0.69-2.9,1.1-4.28,1.66
	C27.62,45.44,27.21,45.44,26.79,45.44"/>
<rect x="-0.52" y="0.06" class="st3" width="56.69" height="56.69"/>
</svg>
