<?xml version="1.0" encoding="utf-8"?>
<!-- Generator: Adobe Illustrator 23.0.3, SVG Export Plug-In . SVG Version: 6.00 Build 0)  -->
<svg version="1.1" id="Шар_1" xmlns="http://www.w3.org/2000/svg" xmlns:xlink="http://www.w3.org/1999/xlink" x="0px" y="0px"
	 viewBox="0 0 56.69 56.69" style="enable-background:new 0 0 56.69 56.69;" xml:space="preserve">
<style type="text/css">
	.st0{fill:#FFFFFF;}
	.st1{fill:none;stroke:#0E72BA;stroke-width:1.6553;stroke-miterlimit:1;}
	.st2{fill:#0E72BA;}
	.st3{fill:#0A0A0A;}
	.st4{fill:none;}
</style>
<path class="st0" d="M50.52,55.35H4.58c-2.48,0-4.41-1.93-4.41-4.41V5c0-2.48,1.93-4.41,4.41-4.41h45.94c2.35,0,4.41,1.93,4.41,4.41
	v45.93C54.93,53.41,52.86,55.35,50.52,55.35"/>
<path class="st1" d="M50.52,55.35H4.58c-2.48,0-4.41-1.93-4.41-4.41V5c0-2.48,1.93-4.41,4.41-4.41h45.94c2.35,0,4.41,1.93,4.41,4.41
	v45.93C54.93,53.41,52.86,55.35,50.52,55.35z"/>
<path class="st2" d="M41.14,42.79c-0.41,0-0.83-0.14-1.38-0.28c-0.14,0.97-0.41,1.93-0.55,3.31c-0.97-0.55-1.66-0.97-2.35-1.38
	c-0.41,1.1-0.69,1.93-1.24,3.17c-0.69-0.69-1.38-1.24-2.07-1.79c-0.55,0.97-1.24,1.79-1.93,3.03c-0.55-0.97-1.1-1.52-1.79-2.48
	c-0.55,0.97-1.1,1.79-2.07,3.31c-0.55-1.52-0.83-2.21-1.24-3.17c-0.83,0.55-1.79,1.24-2.9,1.93c-0.28-0.97-0.55-1.66-0.83-2.62
	c-0.83,0.41-1.66,0.69-2.9,1.24c-0.14-0.97-0.14-1.66-0.28-2.76c-0.97,0.14-2.07,0.28-3.45,0.55c0.28-0.97,0.41-1.66,0.55-2.62
	c-0.97,0-2.07-0.14-3.59-0.28c0.55-0.83,0.97-1.52,1.38-2.48c-1.1-0.14-2.07-0.41-3.45-0.69c0.55-0.83,0.97-1.52,1.52-2.21
	c-0.97-0.55-1.93-0.97-3.17-1.66c0.97-0.69,1.52-1.24,2.21-1.79c-0.97-0.55-1.66-1.24-2.76-1.93c0.97-0.55,1.66-0.97,2.35-1.52
	c-0.69-0.83-1.24-1.66-2.21-2.62c1.1-0.28,1.79-0.41,2.62-0.69c-0.41-0.97-0.97-2.07-1.66-3.45h2.9c-0.41-1.1-0.69-2.07-0.97-3.31
	c1.1,0.14,1.93,0.28,2.76,0.28c0-0.97-0.14-2.07-0.28-3.45c0.28,0.14,0.41,0.14,0.69,0.28l10.07,10.07
	c-0.83,0.69-1.38,1.79-1.38,2.9c0,2.48,2.07,4.69,4.55,4.69c1.24,0,2.35-0.41,3.17-1.24L41.14,42.79z"/>
<path class="st3" d="M21.41,20.45c0.41-0.55,1.24-0.97,1.79-2.34c0.28-1.24-1.79-0.83-1.66-2.9c2.21-0.83,4-5.24,6.21-8.41
	c0.28-0.41,0.97-0.41,1.38,0c2.07,3.03,3.45,6.9,6.07,8.41c0.41,1.66-1.38,1.93-1.38,2.62c0.97,2.21,2.9,4.28,4.69,5.1
	c0.14,1.66-1.79,3.72-2.76,3.72c1.66,2.76,3.45,4,5.93,5.79c0,1.24-2.48,3.45-4.28,3.86C32.03,30.93,26.79,25.83,21.41,20.45"/>
<rect x="-0.52" y="-0.1" class="st4" width="56.69" height="56.69"/>
</svg>
