<?xml version="1.0" encoding="utf-8"?>
<!-- Generator: Adobe Illustrator 23.0.3, SVG Export Plug-In . SVG Version: 6.00 Build 0)  -->
<svg version="1.1" id="Шар_1" xmlns="http://www.w3.org/2000/svg" xmlns:xlink="http://www.w3.org/1999/xlink" x="0px" y="0px"
	 viewBox="0 0 56.69 56.69" style="enable-background:new 0 0 56.69 56.69;" xml:space="preserve">
<style type="text/css">
	.st0{fill:#FFFFFF;}
	.st1{fill:none;stroke:#0E72BA;stroke-width:1.6553;stroke-miterlimit:1;}
	.st2{fill:none;stroke:#000000;stroke-width:0.5518;stroke-miterlimit:1;}
	.st3{fill:#010101;}
	.st4{fill:#0E72BA;}
	.st5{fill:none;}
</style>
<path class="st0" d="M50.52,55.21H4.58c-2.35,0-4.41-1.93-4.41-4.41V4.86c0-2.48,2.07-4.41,4.41-4.41h45.94
	c2.48,0,4.41,1.93,4.41,4.41V50.8C54.93,53.28,53,55.21,50.52,55.21"/>
<path class="st1" d="M50.52,55.21H4.58c-2.35,0-4.41-1.93-4.41-4.41V4.86c0-2.48,2.07-4.41,4.41-4.41h45.94
	c2.48,0,4.41,1.93,4.41,4.41V50.8C54.93,53.28,53,55.21,50.52,55.21z"/>
<path class="st0" d="M10.24,32.04c0.28-0.14,0.41-0.14,0.69-0.14c0.41-0.14,0.83-0.28,1.24-0.41c0.69-0.28,1.38-0.69,2.07-1.24
	c0.69-0.55,1.38-1.24,1.79-2.07c0.41-0.83,0.83-1.79,1.38-2.62c0.14-0.55,0.41-0.97,0.83-1.38c0.14-0.14,0.41-0.28,0.69-0.28
	c0.69,0,1.24,0.14,1.79,0.28c0.97,0.28,1.93,0.69,2.76,1.1c0.28,0.14,0.69,0.14,0.83-0.14c3.45-3.45,7.04-6.9,10.48-10.35
	c0-0.14,0.14-0.14,0.14-0.28v-0.14l-0.14-0.14c-3.45-3.45-6.76-6.76-10.21-10.21L24.44,3.9h-0.28c0,0,0,0.14-0.14,0.14
	c-3.45,3.45-6.76,6.9-10.21,10.21c-0.41,0.41-0.41,0.69-0.28,1.24c0.55,0.97,0.83,2.07,1.1,3.17c0.14,0.41,0.28,0.97,0.14,1.52
	c0,0.28-0.14,0.41-0.28,0.55c-0.83,0.83-1.93,1.38-3.03,1.79c-1.1,0.41-2.07,0.97-2.76,1.93c-0.41,0.41-0.83,0.97-1.1,1.52
	c-0.41,0.83-0.69,1.66-0.83,2.62v0.83c0.14,0.14,0.14,0.41,0.14,0.55c0.14,0.83,0.69,1.52,1.66,1.79c0.28,0.14,0.55,0.14,0.69,0.28
	H10.24z"/>
<path class="st2" d="M10.24,32.04c0.28-0.14,0.41-0.14,0.69-0.14c0.41-0.14,0.83-0.28,1.24-0.41c0.69-0.28,1.38-0.69,2.07-1.24
	c0.69-0.55,1.38-1.24,1.79-2.07c0.41-0.83,0.83-1.79,1.38-2.62c0.14-0.55,0.41-0.97,0.83-1.38c0.14-0.14,0.41-0.28,0.69-0.28
	c0.69,0,1.24,0.14,1.79,0.28c0.97,0.28,1.93,0.69,2.76,1.1c0.28,0.14,0.69,0.14,0.83-0.14c3.45-3.45,7.04-6.9,10.48-10.35
	c0-0.14,0.14-0.14,0.14-0.28v-0.14l-0.14-0.14c-3.45-3.45-6.76-6.76-10.21-10.21L24.44,3.9h-0.28c0,0,0,0.14-0.14,0.14
	c-3.45,3.45-6.76,6.9-10.21,10.21c-0.41,0.41-0.41,0.69-0.28,1.24c0.55,0.97,0.83,2.07,1.1,3.17c0.14,0.41,0.28,0.97,0.14,1.52
	c0,0.28-0.14,0.41-0.28,0.55c-0.83,0.83-1.93,1.38-3.03,1.79s-2.07,0.97-2.76,1.93c-0.41,0.41-0.83,0.97-1.1,1.52
	c-0.41,0.83-0.69,1.66-0.83,2.62v0.83c0.14,0.14,0.14,0.41,0.14,0.55c0.14,0.83,0.69,1.52,1.66,1.79c0.28,0.14,0.55,0.14,0.69,0.28
	H10.24z"/>
<path class="st3" d="M33.27,14.52L33.27,14.52c-0.55,0.55-1.1,1.1-1.66,1.79c-0.55,0.41-1.1,0.69-1.66,0.83
	c-0.28,0.14-0.41,0.14-0.69,0c0.14-0.28,0.14-0.55,0.28-0.83c0-0.55,0.28-1.1,0-1.66c-0.14-0.83-0.83-1.24-1.52-1.24
	c-0.55,0-1.1,0.14-1.66,0.28c-0.55,0.28-0.69-0.28-0.69-0.69c0-0.41,0.28-0.83,0.41-1.1c0.28-0.69,0.55-1.38,0.55-2.21
	c0-0.69-0.55-1.1-1.24-1.1c-0.69-0.14-1.24,0.28-1.79,0.55c-0.55,0.28-1.1,0.69-1.79,0.83c-0.55,0.14-0.97-0.14-0.83-0.83
	c0-0.28,0.14-0.41,0.41-0.69c0.83-0.97,1.79-1.93,2.76-2.76c0-0.14,0.14-0.14,0.14-0.14C27.34,8.45,30.38,11.48,33.27,14.52
	 M27.2,20.45c-2.9-2.9-5.93-5.93-8.97-8.97c0.28-0.28,0.55-0.41,0.83-0.69c0.28-0.28,0.41-0.55,0.69-0.83
	c0.14,0.41,0.41,0.55,0.55,0.83c0.55,0.41,1.24,0.41,1.79,0.28c0.69-0.14,1.38-0.55,1.93-0.83c0.41-0.28,0.83-0.55,1.38-0.55v0.28
	c-0.14,0.69-0.28,1.24-0.55,1.79c-0.28,0.69-0.41,1.24-0.28,1.93c0.28,0.83,0.83,1.38,1.66,1.24c0.55,0,0.97-0.14,1.52-0.28
	c0.41-0.14,0.69,0,0.69,0.55c0,0.55-0.28,0.97-0.28,1.52c0,0.41-0.14,0.83,0.14,1.1c0.28,0.41,0.69,0.55,0.97,0.55L27.2,20.45z
	 M26.38,21.42l-2.48,2.48c-0.14,0.14-0.14,0.14-0.41,0.14c-0.14-0.14-0.41-0.28-0.69-0.41c-1.38-0.55-2.76-0.97-4.14-0.83
	c-0.41,0-0.97,0.14-1.24,0.55c-0.55,0.55-0.97,1.24-1.24,1.93c-0.41,0.69-0.69,1.38-0.97,1.93c-0.28,0.69-0.69,1.1-1.1,1.66
	c-0.41,0.28-0.83,0.69-1.38,0.97c-0.97,0.55-2.07,1.1-3.17,0.97c-0.97-0.14-1.38-0.55-1.52-1.38c-0.14-0.97,0.14-1.79,0.55-2.48
	c0.28-0.69,0.69-1.24,1.1-1.79c0.28-0.55,0.83-0.83,1.38-1.1c0.69-0.41,1.24-0.69,1.93-0.97c0.83-0.41,1.66-0.83,2.35-1.52
	c0.41-0.41,0.69-0.97,0.69-1.52c0-0.69-0.14-1.38-0.28-1.93c-0.28-1.1-0.69-2.07-0.97-3.03l2.62-2.62
	C20.44,15.35,23.34,18.38,26.38,21.42 M10.24,32.04c0.28-0.14,0.41-0.14,0.69-0.14c0.41-0.14,0.83-0.28,1.24-0.41
	c0.69-0.28,1.38-0.69,2.07-1.24c0.69-0.55,1.38-1.24,1.79-2.07c0.41-0.83,0.83-1.79,1.38-2.62c0.14-0.55,0.41-0.97,0.83-1.38
	c0.14-0.14,0.41-0.28,0.69-0.28c0.69,0,1.24,0.14,1.79,0.28c0.97,0.28,1.93,0.69,2.76,1.1c0.28,0.14,0.69,0.14,0.83-0.14
	c3.45-3.45,7.04-6.9,10.48-10.35c0-0.14,0.14-0.14,0.14-0.28v-0.14l-0.14-0.14c-3.45-3.45-6.76-6.76-10.21-10.21L24.44,3.9h-0.28
	c0,0,0,0.14-0.14,0.14c-3.45,3.45-6.76,6.9-10.21,10.21c-0.41,0.41-0.41,0.69-0.28,1.24c0.55,0.97,0.83,2.07,1.1,3.17
	c0.14,0.41,0.28,0.97,0.14,1.52c0,0.28-0.14,0.41-0.28,0.55c-0.83,0.83-1.93,1.38-3.03,1.79c-1.1,0.41-2.07,0.97-2.76,1.93
	c-0.41,0.41-0.83,0.97-1.1,1.52c-0.41,0.83-0.69,1.66-0.83,2.62v0.83c0.14,0.14,0.14,0.41,0.14,0.55c0.14,0.83,0.69,1.52,1.66,1.79
	c0.28,0.14,0.55,0.14,0.69,0.28H10.24z"/>
<path class="st3" d="M10.79,29.14c0.55,0,1.1-0.41,1.1-1.1c0.14-0.55-0.55-1.1-1.1-1.1c-0.69,0-1.24,0.41-1.24,1.1
	S10.1,29.28,10.79,29.14"/>
<path class="st0" d="M45.97,37.97c-3.31,3.31-6.62,6.48-9.79,9.66c-0.28,0.41-0.69,0.69-0.97,1.1c-2.21,2.07-4.83,2.48-7.59,1.1
	c-4-2.07-7.17-5.1-9.24-9.1c-1.52-2.9-1.1-5.52,1.24-7.86c3.45-3.72,7.04-7.17,10.62-10.76c2.62-2.48,5.38-2.76,8.69-0.69
	c3.17,1.93,5.79,4.55,7.73,7.72c1.1,1.79,1.66,3.72,1.1,5.79c-0.28,1.66,0.28,3.31,0.41,4.97c0.28,1.24,0.28,2.62-0.14,3.86
	c-0.41,1.52-2.76,2.35-3.72,1.52c-1.79-1.1-1.38-3.03,0-4.41c0.55-0.55,1.1-1.1,1.38-1.93C45.83,38.66,45.97,38.38,45.97,37.97"/>
<path class="st4" d="M45.83,31.07c0-0.55-0.28-0.83-0.41-1.1c-1.24-2.48-3.03-4.41-5.24-6.07c-1.38-0.97-2.9-1.79-4.55-2.21
	c-2.35-0.41-3.86,0.83-3.72,3.17c0,2.07,0.69,4.28,2.07,5.52c0.28,0.41,0.55,0.69,0.97,0.69c3.03,0.55,6.21,0.83,9.24,0.55
	C44.72,31.49,45.41,31.49,45.83,31.07 M30.38,24.45c-0.28,0.14-0.41,0.28-0.41,0.28c-2.9,2.9-5.66,5.66-8.42,8.55
	c-2.35,2.34-2.76,4.83-0.97,7.72c1.52,2.62,3.59,4.69,6.21,6.21c3.17,1.93,5.52,1.66,8.14-0.97c1.93-1.93,3.72-3.72,5.66-5.66
	c0.97-0.83,1.93-1.79,2.9-2.76c-3.72-0.14-6.48-1.79-8.97-4.28C32.03,31.07,30.1,28.31,30.38,24.45 M45.97,37.97
	c-3.31,3.31-6.62,6.48-9.79,9.66c-0.28,0.41-0.69,0.69-0.97,1.1c-2.21,2.07-4.83,2.48-7.59,1.1c-4-2.07-7.17-5.1-9.24-9.1
	c-1.52-2.9-1.1-5.52,1.24-7.86c3.45-3.72,7.04-7.17,10.62-10.76c2.62-2.48,5.38-2.76,8.69-0.69c3.17,1.93,5.79,4.55,7.73,7.72
	c1.1,1.79,1.66,3.72,1.1,5.79c-0.28,1.66,0.28,3.31,0.41,4.97c0.28,1.24,0.28,2.62-0.14,3.86c-0.41,1.52-2.76,2.35-3.72,1.52
	c-1.79-1.1-1.38-3.03,0-4.41c0.55-0.55,1.1-1.1,1.38-1.93C45.83,38.66,45.97,38.38,45.97,37.97"/>
<rect x="-0.52" y="-0.23" class="st5" width="56.69" height="56.69"/>
</svg>
