<?xml version="1.0" encoding="utf-8"?>
<!-- Generator: Adobe Illustrator 23.0.3, SVG Export Plug-In . SVG Version: 6.00 Build 0)  -->
<svg version="1.1" id="Шар_1" xmlns="http://www.w3.org/2000/svg" xmlns:xlink="http://www.w3.org/1999/xlink" x="0px" y="0px"
	 viewBox="0 0 56.69 56.69" style="enable-background:new 0 0 56.69 56.69;" xml:space="preserve">
<style type="text/css">
	.st0{fill:#FFFFFF;}
	.st1{fill:none;stroke:#0E72BA;stroke-width:1.6553;stroke-miterlimit:1;}
	.st2{fill:#0E72BA;}
	.st3{fill:none;}
</style>
<path class="st0" d="M50.52,55.35H4.59c-2.48,0-4.41-1.93-4.41-4.41V5c0-2.48,1.93-4.41,4.41-4.41h45.94c2.35,0,4.41,1.93,4.41,4.41
	v45.93C54.94,53.42,52.87,55.35,50.52,55.35"/>
<path class="st1" d="M50.52,55.35H4.59c-2.48,0-4.41-1.93-4.41-4.41V5c0-2.48,1.93-4.41,4.41-4.41h45.94c2.35,0,4.41,1.93,4.41,4.41
	v45.93C54.94,53.42,52.87,55.35,50.52,55.35z"/>
<path class="st2" d="M28.59,14.94c2.76,0,5.1-0.83,5.1-1.79s-2.35-1.79-5.1-1.79s-4.97,0.83-4.97,1.79S25.83,14.94,28.59,14.94"/>
<path d="M16.86,36.87L17,36.73v-0.41c2.21,1.66,7.17,2.48,11.86,2.48h1.24c4.55-0.14,8.28-1.1,10.07-2.34c0,0.14,0,0.28,0.14,0.28
	v0.28c0,1.52-4.55,3.59-11.73,3.59s-11.73-2.07-11.73-3.59V36.87z M17.14,33.83c2.07,1.38,6.76,2.34,11.86,2.34
	c0.97,0,2.07-0.14,3.03-0.14c3.72-0.28,6.62-0.97,8-1.93l0.14,1.1c-1.1,1.24-4.55,2.48-10.07,2.62c-6.48,0.28-11.59-1.1-13.11-2.62
	L17.14,33.83z M17.28,30.94c0.14,0.14,0.28,0.28,0.55,0.28c2.21,1.24,6.9,1.79,11.45,1.79c1.66,0,3.45,0,4.97-0.28
	c1.66-0.14,4.14-0.55,5.66-1.52l0.14,1.66c-0.97,0.97-3.59,1.79-8,2.21c-6.21,0.41-13.11-0.69-14.76-2.34h-0.14L17.28,30.94z
	 M17.42,28.73c0.55,0.28,1.24,0.55,2.07,0.69c2.62,0.83,6.35,1.1,9.93,1.1c2.62,0,5.1-0.14,7.17-0.55c1.38-0.28,2.48-0.55,3.17-0.97
	v1.1c-0.55,0.55-2.35,1.24-5.66,1.66c-5.79,0.69-12.83,0-15.86-1.38c-0.41-0.28-0.69-0.41-0.83-0.55V28.73z M17.69,25.83
	c1.1,0.69,2.76,1.1,4.28,1.38c2.21,0.28,4.83,0.55,7.45,0.55c3.45,0,6.9-0.41,8.97-1.1c0.55-0.14,0.83-0.28,1.24-0.41v1.66
	c-0.41,0.28-1.52,0.69-3.17,1.1c-4.97,0.83-12.42,0.69-16.69-0.55c-1.24-0.28-1.79-0.69-2.21-0.97L17.69,25.83z M17.83,23.07
	c1.79,0.97,5.1,1.38,6.62,1.52c1.66,0.28,3.17,0.28,4.83,0.28c4.28,0,8.28-0.55,10.07-1.66l0.14,1.79
	c-0.28,0.28-0.69,0.41-1.38,0.69c-3.59,1.1-10.76,1.38-16,0.41c-2.48-0.41-3.86-0.97-4.41-1.38L17.83,23.07z M18.11,20.18
	c1.66,0.97,4.69,1.66,8.69,1.79c0.69,0.14,1.38,0.14,2.07,0.14c4,0,8.28-0.55,10.35-1.79l0.14,1.79c-0.14,0.14-0.14,0.14-0.28,0.14
	c-2.21,1.38-8.69,2.07-14.48,1.38c-3.72-0.28-5.93-1.1-6.62-1.79L18.11,20.18z M18.24,17.69c1.93,1.38,6.21,2.07,10.35,2.07
	s8.42-0.69,10.35-2.07l0.14,1.52c-1.38,1.24-6.35,2.21-12.28,1.93c-4.55-0.28-7.59-1.1-8.69-2.07L18.24,17.69z M18.38,15.49
	c2.21,1.24,6.35,1.93,10.21,1.93c4,0,8-0.69,10.21-1.93l0.14,1.1c-1.1,1.24-4.97,2.34-10.35,2.34c-5.24,0-9.24-1.1-10.35-2.34
	L18.38,15.49z M28.59,10.66c6.21,0,10.07,1.66,10.07,2.48c0,0.97-3.86,2.48-10.07,2.48c-6.21,0-10.07-1.52-10.07-2.48
	C18.52,12.32,22.38,10.66,28.59,10.66 M15.21,37.56c0.69,3.17,7.17,4.83,13.38,4.83c6.48,0,13.52-1.93,13.52-5.38h-0.14l-1.52-23.86
	c-0.14-2.9-6.21-4.28-11.86-4.28c-5.66,0-11.73,1.38-11.86,4.28l-1.52,22.62c-2.07,0.41-7.86,1.79-8.55,5.1
	c-0.14,0.83,0,1.79,0.69,2.48c1.52,2.21,5.79,3.17,7.86,3.31c1.66,0.14,3.86,0.14,6.21,0h4.14h0.28c1.93,0,3.72,0,4,0.69
	c0.14,0.14,0,0.55-1.1,1.52c-0.41,0.28-0.41,0.83-0.14,1.24c0.28,0.14,0.41,0.28,0.69,0.28c0.14,0,0.41,0,0.55-0.14
	c1.52-1.38,2.07-2.48,1.66-3.59c-0.69-1.79-3.03-1.79-5.66-1.79h-0.28c-1.38,0-2.76,0-4.14,0.14c-2.35,0-4.41,0-6.07-0.14
	c-1.93-0.14-5.52-0.97-6.62-2.48c-0.28-0.41-0.41-0.83-0.28-1.24C8.72,39.35,12.45,38.11,15.21,37.56"/>
<rect x="-0.52" y="-0.09" class="st3" width="56.69" height="56.69"/>
</svg>
