<?xml version="1.0" encoding="utf-8"?>
<!-- Generator: Adobe Illustrator 23.0.3, SVG Export Plug-In . SVG Version: 6.00 Build 0)  -->
<svg version="1.1" id="Шар_1" xmlns="http://www.w3.org/2000/svg" xmlns:xlink="http://www.w3.org/1999/xlink" x="0px" y="0px"
	 viewBox="0 0 134.8 212.96" style="enable-background:new 0 0 134.8 212.96;" xml:space="preserve">
<style type="text/css">
	.st0{fill:#FFFFFF;}
	.st1{clip-path:url(#SVGID_2_);fill:none;stroke:#7BC11B;stroke-width:4;stroke-linecap:square;stroke-miterlimit:10;}
	.st2{fill:#7BC11B;}
</style>
<g>
	<path class="st0" d="M9,19.04v174c0,4.97,4.03,9,9,9h99c4.97,0,9-4.03,9-9v-174c0-4.97-4.03-9-9-9H18C13.03,10.04,9,14.07,9,19.04
		L9,19.04z"/>
	<g>
		<defs>
			<rect id="SVGID_1_" x="7" y="8" width="121.08" height="196.08"/>
		</defs>
		<clipPath id="SVGID_2_">
			<use xlink:href="#SVGID_1_"  style="overflow:visible;"/>
		</clipPath>
		<path class="st1" d="M9,20.04v172c0,5.52,4.48,10,10,10h97c5.52,0,10-4.48,10-10v-172c0-5.52-4.48-10-10-10H19
			C13.48,10.04,9,14.52,9,20.04L9,20.04z"/>
	</g>
	<path class="st2" d="M31.69,132.04v-6.44h2.44c0.43,0,0.76,0.02,0.98,0.06c0.31,0.05,0.57,0.15,0.78,0.3
		c0.22,0.15,0.39,0.35,0.52,0.63c0.14,0.26,0.2,0.55,0.2,0.87c0,0.55-0.18,1.02-0.53,1.39c-0.34,0.38-0.97,0.56-1.88,0.56h-1.66
		v2.63H31.69L31.69,132.04z M32.55,128.66h1.67c0.54,0,0.93-0.1,1.16-0.31c0.24-0.21,0.36-0.49,0.36-0.86c0-0.27-0.07-0.5-0.2-0.69
		c-0.14-0.2-0.32-0.33-0.55-0.39c-0.14-0.04-0.4-0.06-0.8-0.06h-1.64V128.66L32.55,128.66z M37.72,132.04v-6.44h4.66v0.75h-3.81
		v1.98h3.56v0.75h-3.56v2.19h3.95v0.77H37.72L37.72,132.04z M43.74,132.04v-6.44h4.34v0.75H44.6v2h3.02v0.77H44.6v2.92H43.74
		L43.74,132.04z M53.8,129.77l0.84,0.22c-0.18,0.7-0.5,1.23-0.97,1.61c-0.46,0.36-1.03,0.55-1.7,0.55c-0.69,0-1.25-0.14-1.69-0.42
		s-0.77-0.69-1-1.22c-0.22-0.54-0.33-1.12-0.33-1.73c0-0.68,0.13-1.27,0.38-1.77c0.26-0.5,0.63-0.88,1.09-1.13
		c0.48-0.26,1-0.39,1.56-0.39c0.65,0,1.19,0.17,1.63,0.5c0.45,0.32,0.76,0.78,0.92,1.38l-0.84,0.19c-0.15-0.47-0.36-0.81-0.64-1.02
		c-0.28-0.22-0.64-0.33-1.08-0.33c-0.49,0-0.9,0.12-1.23,0.36c-0.33,0.24-0.57,0.56-0.7,0.97c-0.14,0.4-0.2,0.8-0.2,1.22
		c0,0.55,0.08,1.04,0.23,1.45c0.17,0.41,0.42,0.71,0.75,0.91s0.7,0.3,1.09,0.3c0.48,0,0.88-0.14,1.2-0.41
		C53.45,130.73,53.68,130.32,53.8,129.77L53.8,129.77z M55,132.15l1.88-6.66h0.63l-1.86,6.66H55L55,132.15z M57.88,128.87
		c0-0.76,0.08-1.38,0.23-1.84s0.39-0.83,0.69-1.08c0.31-0.25,0.7-0.38,1.17-0.38c0.35,0,0.66,0.07,0.92,0.22
		c0.26,0.14,0.47,0.33,0.64,0.59c0.17,0.26,0.3,0.58,0.39,0.95c0.1,0.38,0.16,0.89,0.16,1.53c0,0.75-0.08,1.36-0.23,1.83
		c-0.16,0.46-0.39,0.82-0.7,1.08c-0.3,0.25-0.69,0.38-1.17,0.38c-0.61,0-1.1-0.22-1.45-0.67C58.09,130.95,57.88,130.08,57.88,128.87
		L57.88,128.87z M58.69,128.87c0,1.05,0.12,1.76,0.36,2.11c0.25,0.34,0.56,0.52,0.92,0.52c0.36,0,0.67-0.17,0.92-0.52
		c0.25-0.35,0.38-1.06,0.38-2.11c0-1.06-0.13-1.77-0.38-2.11c-0.25-0.35-0.56-0.53-0.92-0.53c-0.36,0-0.66,0.15-0.88,0.45
		C58.83,127.08,58.69,127.81,58.69,128.87L58.69,128.87z M65.87,132.04h-0.8v-5.05c-0.19,0.19-0.44,0.38-0.75,0.56
		c-0.31,0.18-0.59,0.31-0.83,0.39v-0.77c0.44-0.2,0.82-0.44,1.16-0.73c0.33-0.3,0.57-0.59,0.7-0.88h0.52V132.04L65.87,132.04z
		 M67.8,130.1v-0.8h2.44v0.8H67.8L67.8,130.1z M70.89,130.34l0.8-0.11c0.09,0.45,0.24,0.77,0.45,0.97c0.22,0.2,0.49,0.3,0.81,0.3
		c0.36,0,0.67-0.12,0.92-0.38c0.26-0.26,0.39-0.58,0.39-0.97c0-0.36-0.12-0.66-0.36-0.89c-0.23-0.24-0.53-0.36-0.89-0.36
		c-0.16,0-0.34,0.03-0.56,0.09l0.09-0.7c0.05,0.01,0.09,0.02,0.13,0.02c0.33,0,0.64-0.09,0.91-0.27c0.27-0.18,0.41-0.45,0.41-0.81
		c0-0.29-0.1-0.53-0.3-0.72c-0.2-0.19-0.45-0.28-0.77-0.28c-0.3,0-0.56,0.1-0.77,0.3c-0.2,0.19-0.33,0.47-0.39,0.86l-0.8-0.14
		c0.1-0.53,0.32-0.94,0.66-1.23c0.34-0.29,0.77-0.44,1.28-0.44c0.35,0,0.68,0.08,0.97,0.23c0.3,0.15,0.53,0.35,0.69,0.61
		s0.23,0.54,0.23,0.83c0,0.28-0.08,0.54-0.23,0.77c-0.15,0.23-0.36,0.41-0.66,0.55c0.39,0.08,0.68,0.27,0.89,0.55
		c0.21,0.27,0.31,0.61,0.31,1.03c0,0.56-0.21,1.04-0.63,1.44c-0.41,0.39-0.92,0.58-1.55,0.58c-0.56,0-1.03-0.17-1.41-0.5
		C71.15,131.32,70.94,130.88,70.89,130.34L70.89,130.34z M78.88,132.04h-0.8v-5.05c-0.19,0.19-0.44,0.38-0.75,0.56
		c-0.31,0.18-0.59,0.31-0.83,0.39v-0.77c0.44-0.2,0.82-0.44,1.16-0.73c0.33-0.3,0.57-0.59,0.7-0.88h0.52V132.04L78.88,132.04z
		 M80.8,130.1v-0.8h2.44v0.8H80.8L80.8,130.1z M86.88,132.04h-0.8v-5.05c-0.19,0.19-0.44,0.38-0.75,0.56
		c-0.31,0.18-0.59,0.31-0.83,0.39v-0.77c0.44-0.2,0.82-0.44,1.16-0.73c0.33-0.3,0.57-0.59,0.7-0.88h0.52V132.04L86.88,132.04z
		 M88.9,128.87c0-0.76,0.08-1.38,0.23-1.84s0.39-0.83,0.69-1.08c0.31-0.25,0.7-0.38,1.17-0.38c0.35,0,0.66,0.07,0.92,0.22
		c0.26,0.14,0.47,0.33,0.64,0.59c0.17,0.26,0.3,0.58,0.39,0.95c0.1,0.38,0.16,0.89,0.16,1.53c0,0.75-0.08,1.36-0.23,1.83
		c-0.16,0.46-0.39,0.82-0.7,1.08c-0.3,0.25-0.69,0.38-1.17,0.38c-0.61,0-1.1-0.22-1.45-0.67C89.11,130.95,88.9,130.08,88.9,128.87
		L88.9,128.87z M89.71,128.87c0,1.05,0.12,1.76,0.36,2.11c0.25,0.34,0.56,0.52,0.92,0.52c0.36,0,0.67-0.17,0.92-0.52
		c0.25-0.35,0.38-1.06,0.38-2.11c0-1.06-0.13-1.77-0.38-2.11c-0.25-0.35-0.56-0.53-0.92-0.53c-0.36,0-0.66,0.15-0.88,0.45
		C89.85,127.08,89.71,127.81,89.71,128.87L89.71,128.87z M96.89,132.04h-0.8v-5.05c-0.19,0.19-0.44,0.38-0.75,0.56
		c-0.31,0.18-0.59,0.31-0.83,0.39v-0.77c0.44-0.2,0.82-0.44,1.16-0.73c0.33-0.3,0.57-0.59,0.7-0.88h0.52V132.04L96.89,132.04z
		 M98.91,128.87c0-0.76,0.08-1.38,0.23-1.84c0.16-0.47,0.39-0.83,0.69-1.08c0.31-0.25,0.7-0.38,1.17-0.38
		c0.35,0,0.66,0.07,0.92,0.22c0.26,0.14,0.47,0.33,0.64,0.59c0.17,0.26,0.3,0.58,0.39,0.95c0.1,0.38,0.16,0.89,0.16,1.53
		c0,0.75-0.08,1.36-0.23,1.83c-0.16,0.46-0.39,0.82-0.7,1.08c-0.3,0.25-0.69,0.38-1.17,0.38c-0.61,0-1.1-0.22-1.45-0.67
		C99.12,130.95,98.91,130.08,98.91,128.87L98.91,128.87z M99.72,128.87c0,1.05,0.12,1.76,0.36,2.11c0.25,0.34,0.56,0.52,0.92,0.52
		c0.36,0,0.67-0.17,0.92-0.52c0.25-0.35,0.38-1.06,0.38-2.11c0-1.06-0.12-1.77-0.38-2.11c-0.25-0.35-0.56-0.53-0.92-0.53
		c-0.36,0-0.66,0.15-0.88,0.45C99.86,127.08,99.72,127.81,99.72,128.87L99.72,128.87z"/>
	<path d="M24.69,154.04v-6.44h2.44c0.43,0,0.76,0.02,0.98,0.06c0.31,0.05,0.57,0.15,0.78,0.3c0.22,0.15,0.39,0.35,0.52,0.63
		c0.14,0.26,0.2,0.55,0.2,0.88c0,0.55-0.18,1.02-0.53,1.39c-0.34,0.38-0.97,0.56-1.88,0.56h-1.66v2.63H24.69L24.69,154.04z
		 M25.55,150.66h1.67c0.54,0,0.93-0.1,1.16-0.31c0.24-0.21,0.36-0.49,0.36-0.86c0-0.27-0.07-0.5-0.2-0.69
		c-0.14-0.2-0.32-0.33-0.55-0.39c-0.14-0.04-0.4-0.06-0.8-0.06h-1.64V150.66L25.55,150.66z M30.58,154.04v-4.67h0.72v0.72
		c0.18-0.33,0.34-0.55,0.5-0.66c0.16-0.1,0.33-0.16,0.52-0.16c0.26,0,0.53,0.08,0.81,0.25l-0.28,0.73
		c-0.19-0.11-0.38-0.17-0.58-0.17c-0.17,0-0.32,0.05-0.47,0.16c-0.14,0.1-0.23,0.25-0.3,0.44c-0.08,0.28-0.13,0.59-0.13,0.92v2.44
		H30.58L30.58,154.04z M33.3,151.71c0-0.86,0.24-1.51,0.72-1.92c0.41-0.34,0.9-0.52,1.47-0.52c0.65,0,1.17,0.21,1.58,0.63
		s0.61,0.99,0.61,1.73c0,0.6-0.09,1.08-0.28,1.42c-0.18,0.34-0.44,0.61-0.78,0.81c-0.34,0.19-0.72,0.28-1.13,0.28
		c-0.66,0-1.19-0.21-1.59-0.63C33.49,153.1,33.3,152.49,33.3,151.71L33.3,151.71z M34.11,151.71c0,0.59,0.13,1.04,0.39,1.34
		c0.26,0.29,0.59,0.44,0.98,0.44s0.72-0.15,0.98-0.44c0.26-0.3,0.39-0.76,0.39-1.38c0-0.57-0.13-1.01-0.39-1.31
		c-0.26-0.3-0.59-0.45-0.98-0.45s-0.72,0.15-0.98,0.45C34.24,150.66,34.11,151.11,34.11,151.71L34.11,151.71z M38.6,154.04v-4.67
		h0.7v0.66c0.15-0.23,0.34-0.41,0.58-0.55c0.25-0.14,0.53-0.2,0.84-0.2c0.34,0,0.63,0.07,0.84,0.22c0.22,0.14,0.38,0.33,0.47,0.59
		c0.38-0.54,0.85-0.81,1.44-0.81c0.47,0,0.83,0.13,1.08,0.39c0.25,0.25,0.38,0.64,0.38,1.17v3.2h-0.8v-2.94
		c0-0.32-0.03-0.55-0.08-0.69c-0.04-0.14-0.13-0.24-0.27-0.33c-0.14-0.09-0.3-0.14-0.48-0.14c-0.32,0-0.59,0.11-0.81,0.33
		s-0.33,0.57-0.33,1.05v2.72h-0.8v-3.03c0-0.35-0.06-0.62-0.19-0.8s-0.33-0.27-0.63-0.27c-0.23,0-0.44,0.06-0.63,0.19
		c-0.19,0.11-0.32,0.29-0.41,0.52c-0.08,0.22-0.13,0.54-0.13,0.97v2.42H38.6L38.6,154.04z M45.8,151.71c0-0.86,0.24-1.51,0.72-1.92
		c0.41-0.34,0.9-0.52,1.47-0.52c0.65,0,1.17,0.21,1.58,0.63s0.61,0.99,0.61,1.73c0,0.6-0.09,1.08-0.28,1.42
		c-0.18,0.34-0.44,0.61-0.78,0.81c-0.34,0.19-0.72,0.28-1.13,0.28c-0.66,0-1.19-0.21-1.59-0.63C46,153.1,45.8,152.49,45.8,151.71
		L45.8,151.71z M46.61,151.71c0,0.59,0.13,1.04,0.39,1.34c0.26,0.29,0.59,0.44,0.98,0.44c0.4,0,0.72-0.15,0.98-0.44
		c0.26-0.3,0.39-0.76,0.39-1.38c0-0.57-0.13-1.01-0.39-1.31c-0.26-0.3-0.59-0.45-0.98-0.45c-0.4,0-0.72,0.15-0.98,0.45
		C46.74,150.66,46.61,151.11,46.61,151.71L46.61,151.71z M54.16,154.04v-0.69c-0.36,0.53-0.86,0.8-1.48,0.8
		c-0.27,0-0.53-0.05-0.77-0.16c-0.24-0.11-0.42-0.25-0.55-0.41c-0.11-0.16-0.19-0.35-0.23-0.58c-0.03-0.16-0.05-0.41-0.05-0.75
		v-2.89h0.78v2.59c0,0.42,0.02,0.69,0.06,0.83c0.04,0.21,0.14,0.38,0.3,0.5c0.17,0.11,0.37,0.17,0.61,0.17s0.46-0.06,0.67-0.17
		c0.21-0.13,0.35-0.29,0.44-0.5c0.08-0.21,0.13-0.52,0.13-0.92v-2.5h0.8v4.67H54.16L54.16,154.04z M57.4,154.04l-1.78-4.67h0.84
		l1,2.8c0.1,0.3,0.2,0.61,0.3,0.94c0.07-0.24,0.17-0.53,0.3-0.88l1.03-2.86h0.81l-1.77,4.67H57.4L57.4,154.04z M60.31,151.71
		c0-0.86,0.24-1.51,0.72-1.92c0.41-0.34,0.9-0.52,1.47-0.52c0.65,0,1.17,0.21,1.58,0.63s0.61,0.99,0.61,1.73
		c0,0.6-0.09,1.08-0.28,1.42c-0.18,0.34-0.44,0.61-0.78,0.81c-0.34,0.19-0.72,0.28-1.13,0.28c-0.66,0-1.19-0.21-1.59-0.63
		C60.51,153.1,60.31,152.49,60.31,151.71L60.31,151.71z M61.12,151.71c0,0.59,0.13,1.04,0.39,1.34c0.26,0.29,0.59,0.44,0.98,0.44
		c0.4,0,0.72-0.15,0.98-0.44c0.26-0.3,0.39-0.76,0.39-1.38c0-0.57-0.13-1.01-0.39-1.31c-0.26-0.3-0.59-0.45-0.98-0.45
		c-0.4,0-0.72,0.15-0.98,0.45C61.25,150.66,61.12,151.11,61.12,151.71L61.12,151.71z M65.61,148.51v-0.91h0.8v0.91H65.61
		L65.61,148.51z M65.61,154.04v-4.67h0.8v4.67H65.61L65.61,154.04z M67.6,154.04v-4.67h0.72v0.72c0.18-0.33,0.34-0.55,0.5-0.66
		s0.33-0.16,0.52-0.16c0.26,0,0.53,0.08,0.81,0.25l-0.28,0.73c-0.19-0.11-0.38-0.17-0.58-0.17c-0.17,0-0.32,0.05-0.47,0.16
		c-0.14,0.1-0.23,0.25-0.3,0.44c-0.08,0.28-0.13,0.59-0.13,0.92v2.44H67.6L67.6,154.04z M73.09,154.04v-6.44h0.78v6.44H73.09
		L73.09,154.04z M78.16,153.46c-0.29,0.25-0.57,0.43-0.84,0.53c-0.27,0.1-0.56,0.16-0.88,0.16c-0.51,0-0.91-0.13-1.19-0.38
		c-0.27-0.25-0.41-0.57-0.41-0.97c0-0.23,0.05-0.44,0.16-0.63c0.1-0.19,0.24-0.34,0.41-0.45c0.17-0.11,0.35-0.2,0.56-0.27
		c0.16-0.03,0.39-0.07,0.7-0.11c0.65-0.07,1.12-0.17,1.42-0.28c0-0.1,0-0.17,0-0.2c0-0.32-0.07-0.55-0.22-0.67
		c-0.21-0.19-0.51-0.28-0.91-0.28c-0.38,0-0.65,0.07-0.83,0.2c-0.18,0.13-0.31,0.35-0.39,0.69l-0.77-0.09
		c0.06-0.33,0.17-0.6,0.33-0.8c0.17-0.21,0.4-0.36,0.7-0.47c0.31-0.11,0.67-0.17,1.06-0.17c0.41,0,0.73,0.05,0.97,0.14
		c0.25,0.09,0.43,0.21,0.55,0.36c0.13,0.14,0.21,0.31,0.25,0.53c0.03,0.14,0.05,0.38,0.05,0.72v1.06c0,0.73,0.02,1.19,0.05,1.39
		s0.1,0.39,0.2,0.56h-0.83C78.23,153.87,78.18,153.68,78.16,153.46L78.16,153.46z M78.09,151.7c-0.29,0.11-0.72,0.21-1.3,0.3
		c-0.32,0.05-0.55,0.11-0.69,0.17c-0.14,0.05-0.24,0.14-0.31,0.25c-0.07,0.11-0.11,0.24-0.11,0.38c0,0.21,0.08,0.39,0.23,0.53
		c0.16,0.14,0.39,0.2,0.7,0.2c0.3,0,0.57-0.07,0.81-0.2c0.24-0.14,0.42-0.32,0.53-0.55c0.08-0.18,0.13-0.44,0.13-0.78V151.7
		L78.09,151.7z M82.47,154.43l0.77,0.11c0.03,0.24,0.12,0.41,0.27,0.52c0.2,0.15,0.47,0.22,0.81,0.22c0.36,0,0.65-0.07,0.84-0.22
		c0.2-0.15,0.33-0.35,0.41-0.61c0.04-0.17,0.06-0.51,0.05-1.02c-0.34,0.41-0.77,0.61-1.28,0.61c-0.65,0-1.15-0.23-1.5-0.69
		c-0.34-0.47-0.52-1.03-0.52-1.67c0-0.45,0.08-0.86,0.23-1.23c0.17-0.38,0.4-0.66,0.7-0.86c0.3-0.21,0.66-0.31,1.08-0.31
		c0.55,0,1.01,0.22,1.36,0.66v-0.56h0.73v4.03c0,0.73-0.08,1.24-0.23,1.55c-0.15,0.3-0.38,0.54-0.7,0.72
		c-0.31,0.18-0.7,0.27-1.17,0.27c-0.56,0-1.02-0.13-1.36-0.38C82.63,155.31,82.46,154.93,82.47,154.43L82.47,154.43z M83.13,151.62
		c0,0.61,0.12,1.06,0.36,1.34c0.24,0.28,0.54,0.42,0.91,0.42c0.36,0,0.67-0.14,0.92-0.42s0.38-0.72,0.38-1.31
		c0-0.57-0.13-1.01-0.39-1.3c-0.25-0.29-0.55-0.44-0.91-0.44c-0.35,0-0.66,0.15-0.91,0.44C83.25,150.63,83.13,151.06,83.13,151.62
		L83.13,151.62z M90.81,152.54l0.83,0.09c-0.14,0.48-0.38,0.85-0.73,1.13c-0.34,0.26-0.79,0.39-1.33,0.39
		c-0.68,0-1.22-0.21-1.63-0.63c-0.4-0.43-0.59-1.02-0.59-1.78c0-0.78,0.2-1.39,0.61-1.81c0.41-0.44,0.93-0.66,1.58-0.66
		c0.63,0,1.13,0.21,1.52,0.64c0.4,0.42,0.59,1.01,0.59,1.78c0,0.05,0,0.13,0,0.22h-3.48c0.03,0.51,0.18,0.9,0.44,1.17
		c0.26,0.27,0.59,0.41,0.98,0.41c0.29,0,0.54-0.07,0.73-0.22C90.53,153.12,90.69,152.87,90.81,152.54L90.81,152.54z M88.21,151.26
		h2.61c-0.03-0.4-0.13-0.69-0.3-0.89c-0.25-0.3-0.58-0.45-0.98-0.45c-0.36,0-0.67,0.13-0.92,0.38
		C88.38,150.53,88.25,150.85,88.21,151.26L88.21,151.26z M92.31,152.65l0.78-0.13c0.04,0.31,0.16,0.55,0.36,0.72
		c0.21,0.17,0.49,0.25,0.84,0.25c0.36,0,0.64-0.07,0.81-0.22c0.18-0.15,0.27-0.32,0.27-0.52c0-0.19-0.08-0.33-0.23-0.42
		c-0.11-0.07-0.39-0.17-0.81-0.28c-0.58-0.15-0.99-0.27-1.22-0.38c-0.22-0.1-0.39-0.25-0.5-0.44c-0.11-0.19-0.17-0.4-0.17-0.63
		c0-0.21,0.05-0.4,0.14-0.58s0.22-0.33,0.39-0.45c0.13-0.08,0.29-0.16,0.5-0.22c0.22-0.06,0.45-0.09,0.69-0.09
		c0.36,0,0.68,0.05,0.95,0.16c0.28,0.1,0.49,0.24,0.63,0.42c0.14,0.18,0.23,0.42,0.28,0.72l-0.78,0.11
		c-0.03-0.24-0.14-0.43-0.31-0.56c-0.17-0.14-0.4-0.2-0.7-0.2c-0.36,0-0.63,0.06-0.78,0.19c-0.16,0.11-0.23,0.26-0.23,0.42
		c0,0.1,0.03,0.19,0.09,0.27c0.06,0.09,0.17,0.17,0.31,0.22c0.07,0.03,0.3,0.1,0.69,0.2c0.56,0.15,0.95,0.27,1.17,0.36
		c0.23,0.09,0.41,0.23,0.53,0.42c0.13,0.18,0.19,0.4,0.19,0.67s-0.08,0.52-0.23,0.75c-0.16,0.23-0.38,0.41-0.67,0.55
		c-0.28,0.13-0.61,0.19-0.98,0.19c-0.6,0-1.07-0.13-1.39-0.38C92.59,153.51,92.4,153.14,92.31,152.65L92.31,152.65z M98.86,153.34
		l0.11,0.69c-0.23,0.05-0.43,0.08-0.59,0.08c-0.29,0-0.52-0.05-0.67-0.14c-0.16-0.09-0.27-0.21-0.34-0.36
		c-0.06-0.15-0.09-0.45-0.09-0.92v-2.69h-0.58v-0.63h0.58v-1.16l0.8-0.47v1.63h0.8v0.63h-0.8v2.72c0,0.23,0.01,0.38,0.03,0.44
		c0.03,0.06,0.08,0.11,0.14,0.16c0.06,0.04,0.15,0.06,0.27,0.06C98.59,153.37,98.71,153.36,98.86,153.34L98.86,153.34z
		 M99.63,148.51v-0.91h0.8v0.91H99.63L99.63,148.51z M99.63,154.04v-4.67h0.8v4.67H99.63L99.63,154.04z M101.33,151.71
		c0-0.86,0.24-1.51,0.72-1.92c0.41-0.34,0.9-0.52,1.47-0.52c0.65,0,1.17,0.21,1.58,0.63c0.41,0.42,0.61,0.99,0.61,1.73
		c0,0.6-0.09,1.08-0.28,1.42c-0.18,0.34-0.44,0.61-0.78,0.81c-0.34,0.19-0.72,0.28-1.13,0.28c-0.66,0-1.19-0.21-1.59-0.63
		C101.53,153.1,101.33,152.49,101.33,151.71L101.33,151.71z M102.14,151.71c0,0.59,0.13,1.04,0.39,1.34
		c0.26,0.29,0.59,0.44,0.98,0.44c0.4,0,0.72-0.15,0.98-0.44c0.26-0.3,0.39-0.76,0.39-1.38c0-0.57-0.13-1.01-0.39-1.31
		c-0.26-0.3-0.59-0.45-0.98-0.45c-0.4,0-0.72,0.15-0.98,0.45C102.27,150.66,102.14,151.11,102.14,151.71L102.14,151.71z
		 M106.63,154.04v-4.67h0.72v0.67c0.33-0.51,0.83-0.77,1.48-0.77c0.28,0,0.54,0.05,0.77,0.16c0.24,0.09,0.42,0.22,0.53,0.39
		c0.11,0.16,0.2,0.35,0.25,0.58c0.03,0.15,0.05,0.4,0.05,0.77v2.88h-0.8v-2.84c0-0.32-0.03-0.56-0.09-0.72
		c-0.06-0.16-0.17-0.28-0.33-0.38c-0.16-0.1-0.34-0.16-0.55-0.16c-0.33,0-0.63,0.11-0.88,0.33c-0.24,0.21-0.36,0.61-0.36,1.22v2.55
		H106.63L106.63,154.04z"/>
	<path d="M34.63,166.04v-0.59c-0.3,0.47-0.74,0.7-1.31,0.7c-0.36,0-0.7-0.1-1.02-0.31c-0.31-0.21-0.56-0.49-0.73-0.86
		c-0.17-0.36-0.25-0.79-0.25-1.27c0-0.47,0.08-0.89,0.23-1.27c0.16-0.39,0.39-0.68,0.69-0.88c0.31-0.2,0.66-0.3,1.05-0.3
		c0.28,0,0.53,0.06,0.75,0.17s0.4,0.27,0.53,0.47v-2.31h0.8v6.44H34.63L34.63,166.04z M32.13,163.71c0,0.59,0.13,1.04,0.38,1.34
		c0.25,0.29,0.55,0.44,0.89,0.44c0.34,0,0.64-0.14,0.88-0.42c0.25-0.28,0.38-0.71,0.38-1.3c0-0.64-0.13-1.1-0.38-1.41
		s-0.55-0.45-0.91-0.45c-0.35,0-0.65,0.15-0.89,0.44C32.24,162.64,32.13,163.1,32.13,163.71L32.13,163.71z M39.66,166.04v-0.69
		c-0.36,0.53-0.86,0.8-1.48,0.8c-0.27,0-0.53-0.05-0.77-0.16c-0.24-0.11-0.42-0.25-0.55-0.41c-0.11-0.16-0.19-0.35-0.23-0.58
		c-0.03-0.16-0.05-0.41-0.05-0.75v-2.89h0.78v2.59c0,0.42,0.02,0.69,0.06,0.83c0.04,0.21,0.14,0.38,0.3,0.5
		c0.17,0.11,0.37,0.17,0.61,0.17c0.24,0,0.46-0.06,0.67-0.17c0.21-0.13,0.35-0.29,0.44-0.5s0.13-0.52,0.13-0.92v-2.5h0.8v4.67H39.66
		L39.66,166.04z M41.59,166.04v-4.67h0.72v0.72c0.18-0.33,0.34-0.55,0.5-0.66s0.33-0.16,0.52-0.16c0.26,0,0.53,0.08,0.81,0.25
		l-0.28,0.73c-0.19-0.11-0.38-0.17-0.58-0.17c-0.17,0-0.32,0.05-0.47,0.16c-0.14,0.1-0.23,0.25-0.3,0.44
		c-0.08,0.28-0.13,0.59-0.13,0.92v2.44H41.59L41.59,166.04z M47.65,165.46c-0.29,0.25-0.57,0.43-0.84,0.53s-0.56,0.16-0.88,0.16
		c-0.51,0-0.91-0.13-1.19-0.38c-0.27-0.25-0.41-0.57-0.41-0.97c0-0.23,0.05-0.44,0.16-0.63c0.1-0.19,0.24-0.34,0.41-0.45
		s0.35-0.2,0.56-0.27c0.16-0.03,0.39-0.07,0.7-0.11c0.65-0.07,1.12-0.17,1.42-0.28c0-0.1,0-0.17,0-0.2c0-0.32-0.07-0.55-0.22-0.67
		c-0.21-0.19-0.51-0.28-0.91-0.28c-0.38,0-0.65,0.07-0.83,0.2c-0.18,0.13-0.31,0.35-0.39,0.69l-0.77-0.09
		c0.06-0.33,0.17-0.6,0.33-0.8c0.17-0.21,0.4-0.36,0.7-0.47c0.31-0.11,0.67-0.17,1.06-0.17c0.41,0,0.73,0.05,0.97,0.14
		c0.25,0.09,0.43,0.21,0.55,0.36c0.13,0.14,0.21,0.31,0.25,0.53c0.03,0.14,0.05,0.38,0.05,0.72v1.06c0,0.73,0.02,1.19,0.05,1.39
		s0.1,0.39,0.2,0.56H47.8C47.72,165.87,47.67,165.68,47.65,165.46L47.65,165.46z M47.59,163.7c-0.29,0.11-0.72,0.21-1.3,0.3
		c-0.32,0.05-0.55,0.11-0.69,0.17c-0.14,0.05-0.24,0.14-0.31,0.25c-0.07,0.11-0.11,0.24-0.11,0.38c0,0.21,0.08,0.39,0.23,0.53
		c0.16,0.14,0.39,0.2,0.7,0.2c0.3,0,0.57-0.07,0.81-0.2s0.42-0.32,0.53-0.55c0.08-0.18,0.13-0.44,0.13-0.78V163.7L47.59,163.7z
		 M50.34,166.04h-0.73v-6.44h0.78v2.3c0.33-0.42,0.76-0.63,1.28-0.63c0.29,0,0.56,0.06,0.81,0.17c0.26,0.11,0.47,0.28,0.64,0.48
		s0.3,0.46,0.39,0.77c0.09,0.29,0.14,0.6,0.14,0.94c0,0.8-0.2,1.42-0.59,1.86c-0.4,0.44-0.87,0.66-1.42,0.66
		c-0.55,0-0.98-0.23-1.3-0.69V166.04L50.34,166.04z M50.33,163.66c0,0.56,0.08,0.97,0.23,1.22c0.25,0.41,0.58,0.61,1,0.61
		c0.35,0,0.66-0.15,0.91-0.45s0.38-0.75,0.38-1.34c0-0.6-0.12-1.05-0.36-1.34c-0.24-0.29-0.53-0.44-0.88-0.44
		c-0.35,0-0.66,0.15-0.91,0.45S50.33,163.1,50.33,163.66L50.33,163.66z M54.6,166.04v-6.44h0.78v6.44H54.6L54.6,166.04z
		 M59.8,164.54l0.83,0.09c-0.14,0.48-0.38,0.85-0.73,1.13c-0.34,0.26-0.79,0.39-1.33,0.39c-0.68,0-1.22-0.21-1.63-0.63
		c-0.4-0.43-0.59-1.02-0.59-1.78c0-0.78,0.2-1.39,0.61-1.81c0.41-0.44,0.93-0.66,1.58-0.66c0.63,0,1.13,0.21,1.52,0.64
		c0.4,0.42,0.59,1.01,0.59,1.78c0,0.05,0,0.13,0,0.22h-3.48c0.03,0.51,0.18,0.9,0.44,1.17s0.59,0.41,0.98,0.41
		c0.29,0,0.54-0.07,0.73-0.22C59.52,165.12,59.68,164.87,59.8,164.54L59.8,164.54z M57.21,163.26h2.61c-0.03-0.4-0.13-0.69-0.3-0.89
		c-0.25-0.3-0.58-0.45-0.98-0.45c-0.36,0-0.67,0.13-0.92,0.38C57.37,162.53,57.24,162.85,57.21,163.26L57.21,163.26z M67.15,166.04
		v-0.59c-0.3,0.47-0.74,0.7-1.31,0.7c-0.36,0-0.7-0.1-1.02-0.31s-0.56-0.49-0.73-0.86c-0.17-0.36-0.25-0.79-0.25-1.27
		c0-0.47,0.08-0.89,0.23-1.27c0.16-0.39,0.39-0.68,0.69-0.88c0.31-0.2,0.66-0.3,1.05-0.3c0.28,0,0.53,0.06,0.75,0.17
		s0.4,0.27,0.53,0.47v-2.31h0.8v6.44H67.15L67.15,166.04z M64.65,163.71c0,0.59,0.13,1.04,0.38,1.34c0.25,0.29,0.55,0.44,0.89,0.44
		s0.64-0.14,0.88-0.42c0.25-0.28,0.38-0.71,0.38-1.3c0-0.64-0.13-1.1-0.38-1.41s-0.55-0.45-0.91-0.45c-0.35,0-0.65,0.15-0.89,0.44
		C64.76,162.64,64.65,163.1,64.65,163.71L64.65,163.71z M72.31,164.54l0.83,0.09c-0.14,0.48-0.38,0.85-0.73,1.13
		c-0.34,0.26-0.79,0.39-1.33,0.39c-0.68,0-1.22-0.21-1.63-0.63c-0.4-0.43-0.59-1.02-0.59-1.78c0-0.78,0.2-1.39,0.61-1.81
		c0.41-0.44,0.93-0.66,1.58-0.66c0.63,0,1.13,0.21,1.52,0.64c0.4,0.42,0.59,1.01,0.59,1.78c0,0.05,0,0.13,0,0.22h-3.48
		c0.03,0.51,0.18,0.9,0.44,1.17c0.26,0.27,0.59,0.41,0.98,0.41c0.29,0,0.54-0.07,0.73-0.22C72.03,165.12,72.2,164.87,72.31,164.54
		L72.31,164.54z M69.72,163.26h2.61c-0.03-0.4-0.13-0.69-0.3-0.89c-0.25-0.3-0.58-0.45-0.98-0.45c-0.36,0-0.67,0.13-0.92,0.38
		C69.88,162.53,69.75,162.85,69.72,163.26L69.72,163.26z M76.61,166.04v-6.44h0.78v6.44H76.61L76.61,166.04z M81.68,165.46
		c-0.29,0.25-0.57,0.43-0.84,0.53c-0.27,0.1-0.56,0.16-0.88,0.16c-0.51,0-0.91-0.13-1.19-0.38c-0.27-0.25-0.41-0.57-0.41-0.97
		c0-0.23,0.05-0.44,0.16-0.63c0.1-0.19,0.24-0.34,0.41-0.45c0.17-0.11,0.35-0.2,0.56-0.27c0.16-0.03,0.39-0.07,0.7-0.11
		c0.65-0.07,1.12-0.17,1.42-0.28c0-0.1,0-0.17,0-0.2c0-0.32-0.07-0.55-0.22-0.67c-0.21-0.19-0.51-0.28-0.91-0.28
		c-0.38,0-0.65,0.07-0.83,0.2c-0.18,0.13-0.31,0.35-0.39,0.69l-0.77-0.09c0.06-0.33,0.17-0.6,0.33-0.8c0.17-0.21,0.4-0.36,0.7-0.47
		c0.31-0.11,0.67-0.17,1.06-0.17c0.41,0,0.73,0.05,0.97,0.14c0.25,0.09,0.43,0.21,0.55,0.36c0.13,0.14,0.21,0.31,0.25,0.53
		c0.03,0.14,0.05,0.38,0.05,0.72v1.06c0,0.73,0.02,1.19,0.05,1.39s0.1,0.39,0.2,0.56h-0.83C81.75,165.87,81.7,165.68,81.68,165.46
		L81.68,165.46z M81.61,163.7c-0.29,0.11-0.72,0.21-1.3,0.3c-0.32,0.05-0.55,0.11-0.69,0.17c-0.14,0.05-0.24,0.14-0.31,0.25
		c-0.07,0.11-0.11,0.24-0.11,0.38c0,0.21,0.08,0.39,0.23,0.53c0.16,0.14,0.39,0.2,0.7,0.2c0.3,0,0.57-0.07,0.81-0.2
		c0.24-0.14,0.42-0.32,0.53-0.55c0.08-0.18,0.13-0.44,0.13-0.78V163.7L81.61,163.7z M86.32,166.04v-4.05h-0.7v-0.63h0.7v-0.48
		c0-0.32,0.03-0.56,0.08-0.7c0.08-0.21,0.22-0.38,0.41-0.5c0.2-0.13,0.47-0.19,0.81-0.19c0.22,0,0.46,0.03,0.73,0.08l-0.13,0.69
		c-0.16-0.03-0.31-0.05-0.45-0.05c-0.24,0-0.41,0.05-0.52,0.16c-0.1,0.1-0.16,0.3-0.16,0.58v0.42h0.92v0.63H87.1v4.05H86.32
		L86.32,166.04z M88.34,163.71c0-0.86,0.24-1.51,0.72-1.92c0.41-0.34,0.9-0.52,1.47-0.52c0.65,0,1.17,0.21,1.58,0.63
		s0.61,0.99,0.61,1.73c0,0.6-0.09,1.08-0.28,1.42c-0.18,0.34-0.44,0.61-0.78,0.81c-0.34,0.19-0.72,0.28-1.13,0.28
		c-0.66,0-1.19-0.21-1.59-0.63C88.54,165.1,88.34,164.49,88.34,163.71L88.34,163.71z M89.15,163.71c0,0.59,0.13,1.04,0.39,1.34
		c0.26,0.29,0.59,0.44,0.98,0.44c0.4,0,0.72-0.15,0.98-0.44c0.26-0.3,0.39-0.76,0.39-1.38c0-0.57-0.13-1.01-0.39-1.31
		c-0.26-0.3-0.59-0.45-0.98-0.45c-0.4,0-0.72,0.15-0.98,0.45C89.28,162.66,89.15,163.11,89.15,163.71L89.15,163.71z M93.62,166.04
		v-4.67h0.72v0.72c0.18-0.33,0.34-0.55,0.5-0.66s0.33-0.16,0.52-0.16c0.26,0,0.53,0.08,0.81,0.25l-0.28,0.73
		c-0.19-0.11-0.38-0.17-0.58-0.17c-0.17,0-0.32,0.05-0.47,0.16c-0.14,0.1-0.23,0.25-0.3,0.44c-0.08,0.28-0.13,0.59-0.13,0.92v2.44
		H93.62L93.62,166.04z M99.82,164.54l0.83,0.09c-0.14,0.48-0.38,0.85-0.73,1.13c-0.34,0.26-0.79,0.39-1.33,0.39
		c-0.68,0-1.22-0.21-1.62-0.63c-0.4-0.43-0.59-1.02-0.59-1.78c0-0.78,0.2-1.39,0.61-1.81c0.41-0.44,0.93-0.66,1.58-0.66
		c0.63,0,1.13,0.21,1.52,0.64c0.4,0.42,0.59,1.01,0.59,1.78c0,0.05,0,0.13,0,0.22h-3.48c0.03,0.51,0.18,0.9,0.44,1.17
		c0.26,0.27,0.59,0.41,0.98,0.41c0.29,0,0.54-0.07,0.73-0.22C99.55,165.12,99.71,164.87,99.82,164.54L99.82,164.54z M97.23,163.26
		h2.61c-0.03-0.4-0.13-0.69-0.3-0.89c-0.25-0.3-0.58-0.45-0.98-0.45c-0.36,0-0.67,0.13-0.92,0.38
		C97.4,162.53,97.26,162.85,97.23,163.26L97.23,163.26z M98.56,160.04l-0.5,0.75h-0.91l0.95-1.23h0.84l0.98,1.23h-0.89L98.56,160.04
		L98.56,160.04z M103.38,165.34l0.11,0.69c-0.23,0.05-0.43,0.08-0.59,0.08c-0.29,0-0.52-0.05-0.67-0.14
		c-0.16-0.09-0.27-0.21-0.34-0.36c-0.06-0.15-0.09-0.45-0.09-0.92v-2.69h-0.58v-0.63h0.58v-1.16l0.8-0.47v1.63h0.8v0.63h-0.8v2.72
		c0,0.23,0.01,0.38,0.03,0.44c0.03,0.06,0.08,0.11,0.14,0.16c0.06,0.04,0.15,0.06,0.27,0.06
		C103.11,165.37,103.23,165.36,103.38,165.34L103.38,165.34z"/>
	<path d="M41.45,184.04l-1.42-4.67h0.81l0.75,2.7l0.27,1c0.01-0.05,0.09-0.38,0.25-0.97l0.73-2.73h0.81l0.7,2.72l0.23,0.89
		l0.27-0.91l0.8-2.7h0.77l-1.45,4.67h-0.81l-0.75-2.8l-0.19-0.8l-0.94,3.59H41.45L41.45,184.04z M47.95,184.04l-1.42-4.67h0.81
		l0.75,2.7l0.27,1c0.01-0.05,0.09-0.38,0.25-0.97l0.73-2.73h0.81l0.7,2.72l0.23,0.89l0.27-0.91l0.8-2.7h0.77l-1.45,4.67h-0.81
		l-0.75-2.8l-0.19-0.8l-0.94,3.59H47.95L47.95,184.04z M54.45,184.04l-1.42-4.67h0.81l0.75,2.7l0.27,1
		c0.01-0.05,0.09-0.38,0.25-0.97l0.73-2.73h0.81l0.7,2.72l0.23,0.89l0.27-0.91l0.8-2.7h0.77l-1.45,4.67h-0.81l-0.75-2.8l-0.19-0.8
		l-0.94,3.59H54.45L54.45,184.04z M60.31,184.04v-0.91h0.91v0.91H60.31L60.31,184.04z M62.59,185.82v-6.45h0.72v0.61
		c0.17-0.24,0.35-0.42,0.56-0.53c0.22-0.11,0.48-0.17,0.8-0.17c0.4,0,0.74,0.1,1.05,0.31c0.3,0.2,0.53,0.48,0.69,0.86
		s0.23,0.78,0.23,1.22c0,0.48-0.09,0.91-0.27,1.3c-0.17,0.39-0.41,0.68-0.73,0.89c-0.32,0.2-0.67,0.3-1.03,0.3
		c-0.26,0-0.49-0.06-0.7-0.17c-0.21-0.11-0.38-0.26-0.52-0.42v2.27H62.59L62.59,185.82z M63.31,181.73c0,0.6,0.12,1.05,0.36,1.34
		c0.25,0.28,0.55,0.42,0.89,0.42s0.64-0.15,0.89-0.44c0.26-0.3,0.39-0.77,0.39-1.39c0-0.59-0.13-1.04-0.38-1.33
		c-0.24-0.3-0.53-0.45-0.88-0.45c-0.33,0-0.63,0.16-0.89,0.48C63.44,180.68,63.31,181.13,63.31,181.73L63.31,181.73z M70.79,182.54
		l0.83,0.09c-0.14,0.48-0.38,0.85-0.73,1.13c-0.34,0.26-0.79,0.39-1.33,0.39c-0.68,0-1.22-0.21-1.63-0.63
		c-0.4-0.43-0.59-1.02-0.59-1.78c0-0.78,0.2-1.39,0.61-1.81c0.41-0.44,0.93-0.66,1.58-0.66c0.63,0,1.13,0.21,1.52,0.64
		c0.4,0.42,0.59,1.01,0.59,1.78c0,0.05,0,0.13,0,0.22h-3.48c0.03,0.51,0.18,0.9,0.44,1.17c0.26,0.27,0.59,0.41,0.98,0.41
		c0.29,0,0.54-0.07,0.73-0.22C70.51,183.12,70.67,182.87,70.79,182.54L70.79,182.54z M68.19,181.26h2.61
		c-0.03-0.4-0.13-0.69-0.3-0.89c-0.25-0.3-0.58-0.45-0.98-0.45c-0.36,0-0.67,0.13-0.92,0.38C68.36,180.53,68.22,180.85,68.19,181.26
		L68.19,181.26z M72.79,184.04v-4.05h-0.7v-0.63h0.7v-0.48c0-0.32,0.03-0.56,0.08-0.7c0.08-0.21,0.22-0.38,0.41-0.5
		c0.2-0.13,0.47-0.19,0.81-0.19c0.22,0,0.46,0.03,0.73,0.08l-0.13,0.69c-0.16-0.03-0.31-0.05-0.45-0.05c-0.24,0-0.41,0.05-0.52,0.16
		c-0.1,0.1-0.16,0.3-0.16,0.58v0.42h0.92v0.63h-0.92v4.05H72.79L72.79,184.04z M78.15,182.34l0.78,0.09
		c-0.08,0.54-0.3,0.96-0.66,1.27c-0.35,0.3-0.79,0.45-1.3,0.45c-0.64,0-1.15-0.21-1.53-0.63c-0.39-0.42-0.58-1.02-0.58-1.8
		c0-0.51,0.08-0.95,0.25-1.33c0.17-0.38,0.42-0.66,0.75-0.84c0.34-0.19,0.72-0.28,1.13-0.28c0.5,0,0.91,0.13,1.23,0.39
		c0.32,0.25,0.53,0.61,0.63,1.08l-0.77,0.13c-0.07-0.31-0.2-0.55-0.39-0.7c-0.19-0.17-0.41-0.25-0.67-0.25
		c-0.41,0-0.73,0.15-0.98,0.44c-0.24,0.28-0.36,0.73-0.36,1.34c0,0.64,0.12,1.09,0.36,1.38c0.24,0.28,0.55,0.42,0.94,0.42
		c0.31,0,0.57-0.09,0.78-0.28C77.97,183.02,78.1,182.73,78.15,182.34L78.15,182.34z M79.82,184.04v-0.91h0.91v0.91H79.82
		L79.82,184.04z M81.81,181.71c0-0.86,0.24-1.51,0.72-1.92c0.41-0.34,0.9-0.52,1.47-0.52c0.65,0,1.17,0.21,1.58,0.63
		s0.61,0.99,0.61,1.73c0,0.6-0.09,1.08-0.28,1.42c-0.18,0.34-0.44,0.61-0.78,0.81c-0.34,0.19-0.72,0.28-1.13,0.28
		c-0.66,0-1.19-0.21-1.59-0.63C82.01,183.1,81.81,182.49,81.81,181.71L81.81,181.71z M82.62,181.71c0,0.59,0.13,1.04,0.39,1.34
		c0.26,0.29,0.59,0.44,0.98,0.44c0.4,0,0.72-0.15,0.98-0.44c0.26-0.3,0.39-0.76,0.39-1.38c0-0.57-0.13-1.01-0.39-1.31
		c-0.26-0.3-0.59-0.45-0.98-0.45c-0.4,0-0.72,0.15-0.98,0.45C82.75,180.66,82.62,181.11,82.62,181.71L82.62,181.71z M87.09,184.04
		v-4.67h0.72v0.72c0.18-0.33,0.34-0.55,0.5-0.66s0.33-0.16,0.52-0.16c0.26,0,0.53,0.08,0.81,0.25l-0.28,0.73
		c-0.19-0.11-0.38-0.17-0.58-0.17c-0.17,0-0.32,0.05-0.47,0.16c-0.14,0.1-0.23,0.25-0.3,0.44c-0.08,0.28-0.13,0.59-0.13,0.92v2.44
		H87.09L87.09,184.04z M89.97,184.43l0.77,0.11c0.03,0.24,0.12,0.41,0.27,0.52c0.2,0.15,0.47,0.22,0.81,0.22
		c0.36,0,0.65-0.07,0.84-0.22c0.2-0.15,0.33-0.35,0.41-0.61c0.04-0.17,0.06-0.51,0.05-1.02c-0.34,0.41-0.77,0.61-1.28,0.61
		c-0.65,0-1.15-0.23-1.5-0.69c-0.34-0.47-0.52-1.03-0.52-1.67c0-0.45,0.08-0.86,0.23-1.23c0.17-0.38,0.4-0.66,0.7-0.86
		c0.3-0.21,0.66-0.31,1.08-0.31c0.55,0,1.01,0.22,1.36,0.66v-0.56h0.73v4.03c0,0.73-0.08,1.24-0.23,1.55
		c-0.15,0.3-0.38,0.54-0.7,0.72c-0.31,0.18-0.7,0.27-1.17,0.27c-0.56,0-1.02-0.13-1.36-0.38C90.12,185.31,89.96,184.93,89.97,184.43
		L89.97,184.43z M90.62,181.62c0,0.61,0.12,1.06,0.36,1.34c0.24,0.28,0.54,0.42,0.91,0.42c0.36,0,0.67-0.14,0.92-0.42
		s0.38-0.72,0.38-1.31c0-0.57-0.13-1.01-0.39-1.3c-0.25-0.29-0.55-0.44-0.91-0.44c-0.35,0-0.66,0.15-0.91,0.44
		C90.74,180.63,90.62,181.06,90.62,181.62L90.62,181.62z"/>
	<path class="st2" d="M40.62,102.96H31.5v3.82h8.86c1.92,0,2.49,0.85,2.49,1.91c0,1.09-0.57,1.94-2.49,1.94l-8.86,0v8.55h4.4v-4.72
		h4.72c4,0,6.63-2.53,6.63-5.76C47.25,105.46,44.62,102.96,40.62,102.96L40.62,102.96z"/>
	<polygon class="st2" points="51.44,119.18 66.05,119.18 66.05,115.36 55.84,115.36 55.84,112.8 62.78,112.8 62.78,108.98 
		55.84,108.98 55.84,106.78 66.05,106.78 66.05,102.96 51.44,102.96 51.44,119.18 	"/>
	<polygon class="st2" points="70.86,119.18 75.26,119.18 75.26,112.8 82.21,112.8 82.21,108.98 75.26,108.98 75.26,106.78 
		85.47,106.78 85.47,102.96 70.86,102.96 70.86,119.18 	"/>
	<path class="st2" d="M97.17,106.47c1.52,0,2.8,0.57,3.75,1.64l3.55-2.47c-1.95-2.04-4.61-2.99-7.3-2.99
		c-5.32,0-9.58,3.67-9.58,8.42c0,4.76,4.26,8.43,9.58,8.43c2.67,0,5.32-0.94,7.27-2.96l-3.57-2.3c-0.92,0.9-2.24,1.44-3.7,1.44
		c-2.63,0-5.03-2.04-5.03-4.61C92.14,108.51,94.54,106.47,97.17,106.47L97.17,106.47z"/>
	<path class="st2" d="M74.76,80.59V73.2h10.45L71.3,44.73l-6.54,12.42c0.18,0.91,0.27,1.85,0.27,2.81c0,5.66-3.18,10.59-7.87,13.16
		l-0.25,0.08h10.9v7.39H74.76L74.76,80.59z"/>
	<path class="st2" d="M45.55,72.3v8.51h6.96v-8.38c5.55-1.42,9.64-6.36,9.64-12.25c0-6.99-5.77-12.66-12.88-12.66
		c-7.12,0-12.88,5.67-12.88,12.66C36.39,65.9,40.25,70.73,45.55,72.3L45.55,72.3z"/>
	<path class="st2" d="M42.15,46.33c0.7-0.36,1.42-0.67,2.17-0.93c7.03-7.26,16.8-11.99,26.55-11.99c15.39,0,25.11,11.82,22.44,26.76
		l6.15-5.74l4.11,4.56c2.06-16.87-9.43-29.96-27.25-29.96c-12.92,0-25.87,6.89-34.36,17.11c0,0-0.05,0.07,0.02,0.15
		C42.06,46.38,42.15,46.33,42.15,46.33L42.15,46.33z"/>
	<path class="st2" d="M59.77,97.03c18.96,0,37.99-14.83,42.88-33.26l-3.98-4.42l-6.9,6.43c-5.28,14.04-20.1,24.88-34.84,24.88
		c-15.21,0-24.87-11.53-22.54-26.21c-0.27-0.94-0.46-1.93-0.55-2.94c0,0,0.01-0.07-0.09-0.06c-0.06,0-0.08,0.06-0.08,0.06
		c-0.14,0.51-0.28,1.01-0.4,1.52C28.7,81.82,40.56,97.03,59.77,97.03L59.77,97.03z"/>
	<polygon class="st2" points="103.95,99.52 106.68,99.52 106.68,100.24 105.76,100.24 105.76,102.43 104.87,102.43 104.87,100.24 
		103.95,100.24 103.95,99.52 	"/>
	<polygon class="st2" points="107.08,99.52 108.27,99.52 108.72,101.29 109.16,99.52 110.34,99.52 110.34,102.43 109.61,102.43 
		109.61,100.21 109.05,102.43 108.38,102.43 107.81,100.21 107.81,102.43 107.08,102.43 107.08,99.52 	"/>
</g>
</svg>
