<?xml version="1.0" encoding="utf-8"?>
<!-- Generator: Adobe Illustrator 23.0.3, SVG Export Plug-In . SVG Version: 6.00 Build 0)  -->
<svg version="1.1" id="Шар_1" xmlns="http://www.w3.org/2000/svg" xmlns:xlink="http://www.w3.org/1999/xlink" x="0px" y="0px"
	 viewBox="0 0 132.97 210.84" style="enable-background:new 0 0 132.97 210.84;" xml:space="preserve">
<style type="text/css">
	.st0{fill:#FFFFFF;}
	.st1{clip-path:url(#SVGID_2_);fill:none;stroke:#000000;stroke-width:4;stroke-linecap:square;stroke-miterlimit:10;}
</style>
<g>
	<path class="st0" d="M9.17,16.92v174c0,4.97,4.03,9,9,9h99c4.97,0,9-4.03,9-9v-174c0-4.97-4.03-9-9-9h-99
		C13.2,7.92,9.17,11.95,9.17,16.92L9.17,16.92z"/>
	<g>
		<defs>
			<rect id="SVGID_1_" x="7.17" y="5.88" width="121.08" height="196.08"/>
		</defs>
		<clipPath id="SVGID_2_">
			<use xlink:href="#SVGID_1_"  style="overflow:visible;"/>
		</clipPath>
		<path class="st1" d="M9.17,17.92v172c0,5.52,4.48,10,10,10h97c5.52,0,10-4.48,10-10v-172c0-5.52-4.48-10-10-10h-97
			C13.65,7.92,9.17,12.4,9.17,17.92L9.17,17.92z"/>
	</g>
	<path d="M31.86,129.92v-6.44h2.44c0.43,0,0.76,0.02,0.98,0.06c0.31,0.05,0.57,0.15,0.78,0.3c0.22,0.15,0.39,0.35,0.52,0.63
		c0.14,0.26,0.2,0.55,0.2,0.87c0,0.55-0.18,1.02-0.53,1.39c-0.34,0.38-0.97,0.56-1.88,0.56h-1.66v2.63H31.86L31.86,129.92z
		 M32.72,126.55h1.67c0.54,0,0.93-0.1,1.16-0.31c0.24-0.21,0.36-0.49,0.36-0.86c0-0.27-0.07-0.5-0.2-0.69
		c-0.14-0.2-0.32-0.33-0.55-0.39c-0.14-0.04-0.4-0.06-0.8-0.06h-1.64V126.55L32.72,126.55z M37.89,129.92v-6.44h4.66v0.75h-3.81
		v1.98h3.56v0.75h-3.56v2.19h3.95v0.77H37.89L37.89,129.92z M43.91,129.92v-6.44h4.34v0.75h-3.48v2h3.02V127h-3.02v2.92H43.91
		L43.91,129.92z M53.97,127.66l0.84,0.22c-0.18,0.7-0.5,1.23-0.97,1.61c-0.46,0.36-1.03,0.55-1.7,0.55c-0.69,0-1.25-0.14-1.69-0.42
		s-0.77-0.69-1-1.22c-0.22-0.54-0.33-1.12-0.33-1.73c0-0.68,0.13-1.27,0.38-1.77c0.26-0.5,0.63-0.88,1.09-1.13
		c0.48-0.26,1-0.39,1.56-0.39c0.65,0,1.19,0.17,1.63,0.5c0.45,0.32,0.76,0.78,0.92,1.38l-0.84,0.19c-0.15-0.47-0.36-0.81-0.64-1.02
		c-0.28-0.22-0.64-0.33-1.08-0.33c-0.49,0-0.9,0.12-1.23,0.36c-0.33,0.24-0.57,0.56-0.7,0.97c-0.14,0.4-0.2,0.8-0.2,1.22
		c0,0.55,0.08,1.04,0.23,1.45c0.17,0.41,0.42,0.71,0.75,0.91s0.7,0.3,1.09,0.3c0.48,0,0.88-0.14,1.2-0.41
		C53.62,128.61,53.84,128.2,53.97,127.66L53.97,127.66z M55.17,130.03l1.88-6.66h0.63l-1.86,6.66H55.17L55.17,130.03z M58.05,126.75
		c0-0.76,0.08-1.38,0.23-1.84s0.39-0.83,0.69-1.08c0.31-0.25,0.7-0.38,1.17-0.38c0.35,0,0.66,0.07,0.92,0.22
		c0.26,0.14,0.47,0.33,0.64,0.59c0.17,0.26,0.3,0.58,0.39,0.95c0.1,0.38,0.16,0.89,0.16,1.53c0,0.75-0.08,1.36-0.23,1.83
		c-0.16,0.46-0.39,0.82-0.7,1.08c-0.3,0.25-0.69,0.38-1.17,0.38c-0.61,0-1.1-0.22-1.45-0.67C58.26,128.83,58.05,127.96,58.05,126.75
		L58.05,126.75z M58.86,126.75c0,1.05,0.12,1.76,0.36,2.11c0.25,0.34,0.56,0.52,0.92,0.52c0.36,0,0.67-0.17,0.92-0.52
		c0.25-0.35,0.38-1.06,0.38-2.11c0-1.06-0.13-1.77-0.38-2.11c-0.25-0.35-0.56-0.53-0.92-0.53c-0.36,0-0.66,0.15-0.88,0.45
		C59,124.96,58.86,125.69,58.86,126.75L58.86,126.75z M66.04,129.92h-0.8v-5.05c-0.19,0.19-0.44,0.38-0.75,0.56
		c-0.31,0.18-0.59,0.31-0.83,0.39v-0.77c0.44-0.2,0.82-0.44,1.16-0.73c0.33-0.3,0.57-0.59,0.7-0.88h0.52V129.92L66.04,129.92z
		 M67.96,127.98v-0.8h2.44v0.8H67.96L67.96,127.98z M71.06,128.22l0.8-0.11c0.09,0.45,0.24,0.77,0.45,0.97
		c0.22,0.2,0.49,0.3,0.81,0.3c0.36,0,0.67-0.12,0.92-0.38c0.26-0.26,0.39-0.58,0.39-0.97c0-0.36-0.12-0.66-0.36-0.89
		c-0.23-0.24-0.53-0.36-0.89-0.36c-0.16,0-0.34,0.03-0.56,0.09l0.09-0.7c0.05,0.01,0.09,0.02,0.13,0.02c0.33,0,0.64-0.09,0.91-0.27
		c0.27-0.18,0.41-0.45,0.41-0.81c0-0.29-0.1-0.53-0.3-0.72c-0.2-0.19-0.45-0.28-0.77-0.28c-0.3,0-0.56,0.1-0.77,0.3
		c-0.2,0.19-0.33,0.47-0.39,0.86l-0.8-0.14c0.1-0.53,0.32-0.94,0.66-1.23c0.34-0.29,0.77-0.44,1.28-0.44c0.35,0,0.68,0.08,0.97,0.23
		c0.3,0.15,0.53,0.35,0.69,0.61s0.23,0.54,0.23,0.83c0,0.28-0.08,0.54-0.23,0.77c-0.15,0.23-0.36,0.41-0.66,0.55
		c0.39,0.08,0.68,0.27,0.89,0.55c0.21,0.27,0.31,0.61,0.31,1.03c0,0.56-0.21,1.04-0.63,1.44c-0.41,0.39-0.92,0.58-1.55,0.58
		c-0.56,0-1.03-0.17-1.41-0.5C71.32,129.2,71.11,128.76,71.06,128.22L71.06,128.22z M79.05,129.92h-0.8v-5.05
		c-0.19,0.19-0.44,0.38-0.75,0.56c-0.31,0.18-0.59,0.31-0.83,0.39v-0.77c0.44-0.2,0.82-0.44,1.16-0.73c0.33-0.3,0.57-0.59,0.7-0.88
		h0.52V129.92L79.05,129.92z M80.97,127.98v-0.8h2.44v0.8H80.97L80.97,127.98z M87.05,129.92h-0.8v-5.05
		c-0.19,0.19-0.44,0.38-0.75,0.56c-0.31,0.18-0.59,0.31-0.83,0.39v-0.77c0.44-0.2,0.82-0.44,1.16-0.73c0.33-0.3,0.57-0.59,0.7-0.88
		h0.52V129.92L87.05,129.92z M89.07,126.75c0-0.76,0.08-1.38,0.23-1.84s0.39-0.83,0.69-1.08c0.31-0.25,0.7-0.38,1.17-0.38
		c0.35,0,0.66,0.07,0.92,0.22c0.26,0.14,0.47,0.33,0.64,0.59c0.17,0.26,0.3,0.58,0.39,0.95c0.1,0.38,0.16,0.89,0.16,1.53
		c0,0.75-0.08,1.36-0.23,1.83c-0.16,0.46-0.39,0.82-0.7,1.08c-0.3,0.25-0.69,0.38-1.17,0.38c-0.61,0-1.1-0.22-1.45-0.67
		C89.28,128.83,89.07,127.96,89.07,126.75L89.07,126.75z M89.88,126.75c0,1.05,0.12,1.76,0.36,2.11c0.25,0.34,0.56,0.52,0.92,0.52
		c0.36,0,0.67-0.17,0.92-0.52c0.25-0.35,0.38-1.06,0.38-2.11c0-1.06-0.13-1.77-0.38-2.11c-0.25-0.35-0.56-0.53-0.92-0.53
		c-0.36,0-0.66,0.15-0.88,0.45C90.02,124.96,89.88,125.69,89.88,126.75L89.88,126.75z M97.06,129.92h-0.8v-5.05
		c-0.19,0.19-0.44,0.38-0.75,0.56c-0.31,0.18-0.59,0.31-0.83,0.39v-0.77c0.44-0.2,0.82-0.44,1.16-0.73c0.33-0.3,0.57-0.59,0.7-0.88
		h0.52V129.92L97.06,129.92z M99.08,126.75c0-0.76,0.08-1.38,0.23-1.84c0.16-0.47,0.39-0.83,0.69-1.08c0.31-0.25,0.7-0.38,1.17-0.38
		c0.35,0,0.66,0.07,0.92,0.22c0.26,0.14,0.47,0.33,0.64,0.59c0.17,0.26,0.3,0.58,0.39,0.95c0.1,0.38,0.16,0.89,0.16,1.53
		c0,0.75-0.08,1.36-0.23,1.83c-0.16,0.46-0.39,0.82-0.7,1.08c-0.3,0.25-0.69,0.38-1.17,0.38c-0.61,0-1.1-0.22-1.45-0.67
		C99.29,128.83,99.08,127.96,99.08,126.75L99.08,126.75z M99.89,126.75c0,1.05,0.12,1.76,0.36,2.11c0.25,0.34,0.56,0.52,0.92,0.52
		c0.36,0,0.67-0.17,0.92-0.52c0.25-0.35,0.38-1.06,0.38-2.11c0-1.06-0.12-1.77-0.38-2.11c-0.25-0.35-0.56-0.53-0.92-0.53
		c-0.36,0-0.66,0.15-0.88,0.45C100.03,124.96,99.89,125.69,99.89,126.75L99.89,126.75z"/>
	<path d="M22.86,151.92v-6.44h2.44c0.43,0,0.76,0.02,0.98,0.06c0.31,0.05,0.57,0.15,0.78,0.3c0.22,0.15,0.39,0.35,0.52,0.63
		c0.14,0.26,0.2,0.55,0.2,0.88c0,0.55-0.18,1.02-0.53,1.39c-0.34,0.38-0.97,0.56-1.88,0.56h-1.66v2.63H22.86L22.86,151.92z
		 M23.72,148.55h1.67c0.54,0,0.93-0.1,1.16-0.31c0.24-0.21,0.36-0.49,0.36-0.86c0-0.27-0.07-0.5-0.2-0.69
		c-0.14-0.2-0.32-0.33-0.55-0.39c-0.14-0.04-0.4-0.06-0.8-0.06h-1.64V148.55L23.72,148.55z M28.75,151.92v-4.67h0.72v0.72
		c0.18-0.33,0.34-0.55,0.5-0.66c0.16-0.1,0.33-0.16,0.52-0.16c0.26,0,0.53,0.08,0.81,0.25l-0.28,0.73
		c-0.19-0.11-0.38-0.17-0.58-0.17c-0.17,0-0.32,0.05-0.47,0.16c-0.14,0.1-0.23,0.25-0.3,0.44c-0.08,0.28-0.13,0.59-0.13,0.92v2.44
		H28.75L28.75,151.92z M31.47,149.59c0-0.86,0.24-1.51,0.72-1.92c0.41-0.34,0.9-0.52,1.47-0.52c0.65,0,1.17,0.21,1.58,0.63
		s0.61,0.99,0.61,1.73c0,0.6-0.09,1.08-0.28,1.42c-0.18,0.34-0.44,0.61-0.78,0.81c-0.34,0.19-0.72,0.28-1.13,0.28
		c-0.66,0-1.19-0.21-1.59-0.63C31.66,150.98,31.47,150.37,31.47,149.59L31.47,149.59z M32.28,149.59c0,0.59,0.13,1.04,0.39,1.34
		c0.26,0.29,0.59,0.44,0.98,0.44s0.72-0.15,0.98-0.44c0.26-0.3,0.39-0.76,0.39-1.38c0-0.57-0.13-1.01-0.39-1.31
		s-0.59-0.45-0.98-0.45s-0.72,0.15-0.98,0.45C32.41,148.54,32.28,148.99,32.28,149.59L32.28,149.59z M36.77,151.92v-4.67h0.7v0.66
		c0.15-0.23,0.34-0.41,0.58-0.55c0.25-0.14,0.53-0.2,0.84-0.2c0.34,0,0.63,0.07,0.84,0.22c0.22,0.14,0.38,0.33,0.47,0.59
		c0.38-0.54,0.85-0.81,1.44-0.81c0.47,0,0.83,0.13,1.08,0.39c0.25,0.25,0.38,0.64,0.38,1.17v3.2h-0.8v-2.94
		c0-0.32-0.03-0.55-0.08-0.69c-0.04-0.14-0.13-0.24-0.27-0.33c-0.14-0.09-0.3-0.14-0.48-0.14c-0.32,0-0.59,0.11-0.81,0.33
		s-0.33,0.57-0.33,1.05v2.72h-0.8v-3.03c0-0.35-0.06-0.62-0.19-0.8s-0.33-0.27-0.63-0.27c-0.23,0-0.44,0.06-0.63,0.19
		c-0.19,0.11-0.32,0.29-0.41,0.52c-0.08,0.22-0.13,0.54-0.13,0.97v2.42H36.77L36.77,151.92z M43.97,149.59
		c0-0.86,0.24-1.51,0.72-1.92c0.41-0.34,0.9-0.52,1.47-0.52c0.65,0,1.17,0.21,1.58,0.63s0.61,0.99,0.61,1.73
		c0,0.6-0.09,1.08-0.28,1.42c-0.18,0.34-0.44,0.61-0.78,0.81c-0.34,0.19-0.72,0.28-1.13,0.28c-0.66,0-1.19-0.21-1.59-0.63
		C44.17,150.98,43.97,150.37,43.97,149.59L43.97,149.59z M44.78,149.59c0,0.59,0.13,1.04,0.39,1.34c0.26,0.29,0.59,0.44,0.98,0.44
		s0.72-0.15,0.98-0.44c0.26-0.3,0.39-0.76,0.39-1.38c0-0.57-0.13-1.01-0.39-1.31s-0.59-0.45-0.98-0.45s-0.72,0.15-0.98,0.45
		C44.91,148.54,44.78,148.99,44.78,149.59L44.78,149.59z M51.01,151.22l0.11,0.69c-0.23,0.05-0.43,0.08-0.59,0.08
		c-0.29,0-0.52-0.05-0.67-0.14s-0.27-0.21-0.34-0.36c-0.06-0.15-0.09-0.45-0.09-0.92v-2.69h-0.58v-0.63h0.58v-1.16l0.8-0.47v1.63
		h0.8v0.63h-0.8v2.72c0,0.23,0.01,0.38,0.03,0.44c0.03,0.06,0.08,0.11,0.14,0.16s0.15,0.06,0.27,0.06
		C50.74,151.25,50.86,151.24,51.01,151.22L51.01,151.22z M51.77,146.39v-0.91h0.8v0.91H51.77L51.77,146.39z M51.77,151.92v-4.67h0.8
		v4.67H51.77L51.77,151.92z M53.77,151.92v-4.67h0.72v0.67c0.33-0.51,0.83-0.77,1.48-0.77c0.28,0,0.54,0.05,0.77,0.16
		c0.24,0.09,0.42,0.22,0.53,0.39c0.11,0.16,0.2,0.35,0.25,0.58c0.03,0.15,0.05,0.4,0.05,0.77v2.88h-0.8v-2.84
		c0-0.32-0.03-0.56-0.09-0.72s-0.17-0.28-0.33-0.38c-0.16-0.1-0.34-0.16-0.55-0.16c-0.33,0-0.63,0.11-0.88,0.33
		c-0.24,0.21-0.36,0.61-0.36,1.22v2.55H53.77L53.77,151.92z M58.64,152.31l0.77,0.11c0.03,0.24,0.12,0.41,0.27,0.52
		c0.2,0.15,0.47,0.22,0.81,0.22c0.36,0,0.65-0.07,0.84-0.22c0.2-0.15,0.33-0.35,0.41-0.61c0.04-0.17,0.06-0.51,0.05-1.02
		c-0.34,0.41-0.77,0.61-1.28,0.61c-0.65,0-1.15-0.23-1.5-0.69c-0.34-0.47-0.52-1.03-0.52-1.67c0-0.45,0.08-0.86,0.23-1.23
		c0.17-0.38,0.4-0.66,0.7-0.86c0.3-0.21,0.66-0.31,1.08-0.31c0.55,0,1.01,0.22,1.36,0.66v-0.56h0.73v4.03
		c0,0.73-0.08,1.24-0.23,1.55c-0.15,0.3-0.38,0.54-0.7,0.72c-0.31,0.18-0.7,0.27-1.17,0.27c-0.56,0-1.02-0.13-1.36-0.38
		C58.79,153.19,58.63,152.81,58.64,152.31L58.64,152.31z M59.29,149.5c0,0.61,0.12,1.06,0.36,1.34s0.54,0.42,0.91,0.42
		c0.36,0,0.67-0.14,0.92-0.42s0.38-0.72,0.38-1.31c0-0.57-0.13-1.01-0.39-1.3c-0.25-0.29-0.55-0.44-0.91-0.44s-0.66,0.15-0.91,0.44
		C59.41,148.51,59.29,148.94,59.29,149.5L59.29,149.5z M66.09,149.86l0.8-0.08c0.04,0.32,0.13,0.59,0.27,0.8
		c0.15,0.21,0.36,0.38,0.66,0.5c0.29,0.13,0.62,0.19,0.98,0.19c0.32,0,0.61-0.05,0.86-0.14s0.44-0.22,0.56-0.39
		c0.13-0.18,0.19-0.36,0.19-0.56s-0.06-0.37-0.19-0.52c-0.11-0.16-0.31-0.29-0.58-0.39c-0.17-0.07-0.55-0.18-1.14-0.31
		c-0.59-0.15-1.01-0.28-1.25-0.41c-0.3-0.16-0.53-0.35-0.69-0.59c-0.15-0.24-0.22-0.51-0.22-0.81c0-0.32,0.09-0.63,0.27-0.91
		c0.19-0.28,0.46-0.49,0.81-0.64c0.35-0.15,0.75-0.22,1.19-0.22c0.48,0,0.9,0.08,1.27,0.23c0.36,0.15,0.64,0.37,0.83,0.67
		c0.2,0.3,0.31,0.64,0.33,1.02l-0.83,0.06c-0.04-0.41-0.19-0.71-0.44-0.92s-0.63-0.31-1.13-0.31c-0.51,0-0.89,0.09-1.13,0.28
		c-0.24,0.19-0.36,0.42-0.36,0.69c0,0.23,0.08,0.42,0.25,0.56c0.17,0.16,0.59,0.31,1.28,0.47c0.7,0.16,1.18,0.29,1.44,0.41
		c0.38,0.17,0.65,0.39,0.83,0.66c0.18,0.26,0.27,0.57,0.27,0.92c0,0.33-0.1,0.66-0.3,0.97c-0.2,0.3-0.48,0.54-0.84,0.7
		c-0.36,0.17-0.78,0.25-1.23,0.25c-0.58,0-1.07-0.08-1.47-0.25c-0.4-0.18-0.71-0.43-0.94-0.77
		C66.22,150.67,66.11,150.29,66.09,149.86L66.09,149.86z M75.35,151.92v-0.69c-0.36,0.53-0.86,0.8-1.48,0.8
		c-0.27,0-0.53-0.05-0.77-0.16c-0.24-0.11-0.42-0.25-0.55-0.41c-0.11-0.16-0.19-0.35-0.23-0.58c-0.03-0.16-0.05-0.41-0.05-0.75
		v-2.89h0.78v2.59c0,0.42,0.02,0.69,0.06,0.83c0.04,0.21,0.14,0.38,0.3,0.5c0.17,0.11,0.37,0.17,0.61,0.17
		c0.24,0,0.46-0.06,0.67-0.17c0.21-0.13,0.35-0.29,0.44-0.5c0.08-0.21,0.13-0.52,0.13-0.92v-2.5h0.8v4.67H75.35L75.35,151.92z
		 M76.98,150.53l0.78-0.13c0.04,0.31,0.16,0.55,0.36,0.72c0.21,0.17,0.49,0.25,0.84,0.25c0.36,0,0.64-0.07,0.81-0.22
		c0.18-0.15,0.27-0.32,0.27-0.52c0-0.19-0.08-0.33-0.23-0.42c-0.11-0.07-0.39-0.17-0.81-0.28c-0.58-0.15-0.99-0.27-1.22-0.38
		c-0.22-0.1-0.39-0.25-0.5-0.44c-0.11-0.19-0.17-0.4-0.17-0.63c0-0.21,0.05-0.4,0.14-0.58s0.22-0.33,0.39-0.45
		c0.13-0.08,0.29-0.16,0.5-0.22c0.22-0.06,0.45-0.09,0.69-0.09c0.36,0,0.68,0.05,0.95,0.16c0.28,0.1,0.49,0.24,0.63,0.42
		c0.14,0.18,0.23,0.42,0.28,0.72l-0.78,0.11c-0.03-0.24-0.14-0.43-0.31-0.56c-0.17-0.14-0.4-0.2-0.7-0.2
		c-0.36,0-0.63,0.06-0.78,0.19c-0.16,0.11-0.23,0.26-0.23,0.42c0,0.1,0.03,0.19,0.09,0.27c0.06,0.09,0.17,0.17,0.31,0.22
		c0.07,0.03,0.3,0.1,0.69,0.2c0.56,0.15,0.95,0.27,1.17,0.36c0.23,0.09,0.41,0.23,0.53,0.42c0.13,0.18,0.19,0.4,0.19,0.67
		s-0.08,0.52-0.23,0.75s-0.38,0.41-0.67,0.55c-0.28,0.13-0.61,0.19-0.98,0.19c-0.6,0-1.07-0.13-1.39-0.38
		C77.26,151.39,77.06,151.02,76.98,150.53L76.98,150.53z M83.52,151.22l0.11,0.69c-0.23,0.05-0.43,0.08-0.59,0.08
		c-0.29,0-0.52-0.05-0.67-0.14s-0.27-0.21-0.34-0.36c-0.06-0.15-0.09-0.45-0.09-0.92v-2.69h-0.58v-0.63h0.58v-1.16l0.8-0.47v1.63
		h0.8v0.63h-0.8v2.72c0,0.23,0.01,0.38,0.03,0.44c0.03,0.06,0.08,0.11,0.14,0.16s0.15,0.06,0.27,0.06
		C83.26,151.25,83.38,151.24,83.52,151.22L83.52,151.22z M87.34,151.34c-0.29,0.25-0.57,0.43-0.84,0.53
		c-0.27,0.1-0.56,0.16-0.88,0.16c-0.51,0-0.91-0.13-1.19-0.38c-0.27-0.25-0.41-0.57-0.41-0.97c0-0.23,0.05-0.44,0.16-0.63
		c0.1-0.19,0.24-0.34,0.41-0.45c0.17-0.11,0.35-0.2,0.56-0.27c0.16-0.03,0.39-0.07,0.7-0.11c0.65-0.07,1.12-0.17,1.42-0.28
		c0-0.1,0-0.17,0-0.2c0-0.32-0.07-0.55-0.22-0.67c-0.21-0.19-0.51-0.28-0.91-0.28c-0.38,0-0.65,0.07-0.83,0.2
		c-0.18,0.13-0.31,0.35-0.39,0.69l-0.77-0.09c0.06-0.33,0.17-0.6,0.33-0.8c0.17-0.21,0.4-0.36,0.7-0.47
		c0.31-0.11,0.67-0.17,1.06-0.17c0.41,0,0.73,0.05,0.97,0.14c0.25,0.09,0.43,0.21,0.55,0.36c0.13,0.14,0.21,0.31,0.25,0.53
		c0.03,0.14,0.05,0.38,0.05,0.72v1.06c0,0.73,0.02,1.19,0.05,1.39s0.1,0.39,0.2,0.56h-0.83C87.41,151.75,87.36,151.56,87.34,151.34
		L87.34,151.34z M87.28,149.58c-0.29,0.11-0.72,0.21-1.3,0.3c-0.32,0.05-0.55,0.11-0.69,0.17c-0.14,0.05-0.24,0.14-0.31,0.25
		c-0.07,0.11-0.11,0.24-0.11,0.38c0,0.21,0.08,0.39,0.23,0.53c0.16,0.14,0.39,0.2,0.7,0.2c0.3,0,0.57-0.07,0.81-0.2
		c0.24-0.14,0.42-0.32,0.53-0.55c0.08-0.18,0.13-0.44,0.13-0.78V149.58L87.28,149.58z M89.3,146.39v-0.91h0.8v0.91H89.3L89.3,146.39
		z M89.3,151.92v-4.67h0.8v4.67H89.3L89.3,151.92z M91.3,151.92v-4.67h0.72v0.67c0.33-0.51,0.83-0.77,1.48-0.77
		c0.28,0,0.54,0.05,0.77,0.16c0.24,0.09,0.42,0.22,0.53,0.39c0.11,0.16,0.2,0.35,0.25,0.58c0.03,0.15,0.05,0.4,0.05,0.77v2.88h-0.8
		v-2.84c0-0.32-0.03-0.56-0.09-0.72s-0.17-0.28-0.33-0.38c-0.16-0.1-0.34-0.16-0.55-0.16c-0.33,0-0.63,0.11-0.88,0.33
		c-0.24,0.21-0.36,0.61-0.36,1.22v2.55H91.3L91.3,151.92z M99.35,151.34c-0.29,0.25-0.57,0.43-0.84,0.53
		c-0.27,0.1-0.56,0.16-0.88,0.16c-0.51,0-0.91-0.13-1.19-0.38c-0.27-0.25-0.41-0.57-0.41-0.97c0-0.23,0.05-0.44,0.16-0.63
		c0.1-0.19,0.24-0.34,0.41-0.45c0.17-0.11,0.35-0.2,0.56-0.27c0.16-0.03,0.39-0.07,0.7-0.11c0.65-0.07,1.12-0.17,1.42-0.28
		c0-0.1,0-0.17,0-0.2c0-0.32-0.07-0.55-0.22-0.67c-0.21-0.19-0.51-0.28-0.91-0.28c-0.38,0-0.65,0.07-0.83,0.2
		c-0.18,0.13-0.31,0.35-0.39,0.69l-0.77-0.09c0.06-0.33,0.17-0.6,0.33-0.8c0.17-0.21,0.4-0.36,0.7-0.47
		c0.31-0.11,0.67-0.17,1.06-0.17c0.41,0,0.73,0.05,0.97,0.14c0.25,0.09,0.43,0.21,0.55,0.36c0.13,0.14,0.21,0.31,0.25,0.53
		c0.03,0.14,0.05,0.38,0.05,0.72v1.06c0,0.73,0.02,1.19,0.05,1.39c0.03,0.2,0.1,0.39,0.2,0.56H99.5
		C99.42,151.75,99.37,151.56,99.35,151.34L99.35,151.34z M99.29,149.58c-0.29,0.11-0.72,0.21-1.3,0.3
		c-0.32,0.05-0.55,0.11-0.69,0.17c-0.14,0.05-0.24,0.14-0.31,0.25c-0.07,0.11-0.11,0.24-0.11,0.38c0,0.21,0.08,0.39,0.23,0.53
		c0.16,0.14,0.39,0.2,0.7,0.2c0.3,0,0.57-0.07,0.81-0.2c0.24-0.14,0.42-0.32,0.53-0.55c0.08-0.18,0.12-0.44,0.12-0.78V149.58
		L99.29,149.58z M102.04,151.92h-0.73v-6.44h0.78v2.3c0.33-0.42,0.76-0.63,1.28-0.63c0.29,0,0.56,0.06,0.81,0.17
		c0.26,0.11,0.47,0.28,0.64,0.48c0.17,0.21,0.3,0.46,0.39,0.77c0.09,0.29,0.14,0.6,0.14,0.94c0,0.8-0.2,1.42-0.59,1.86
		c-0.4,0.44-0.87,0.66-1.42,0.66c-0.55,0-0.98-0.23-1.3-0.69V151.92L102.04,151.92z M102.03,149.55c0,0.56,0.08,0.97,0.23,1.22
		c0.25,0.41,0.58,0.61,1,0.61c0.35,0,0.66-0.15,0.91-0.45c0.25-0.3,0.38-0.75,0.38-1.34c0-0.6-0.12-1.05-0.36-1.34
		c-0.24-0.29-0.53-0.44-0.88-0.44c-0.35,0-0.66,0.15-0.91,0.45C102.15,148.55,102.03,148.98,102.03,149.55L102.03,149.55z
		 M106.3,151.92v-6.44h0.78v6.44H106.3L106.3,151.92z M111.5,150.42l0.83,0.09c-0.14,0.48-0.38,0.85-0.73,1.13
		c-0.34,0.26-0.79,0.39-1.33,0.39c-0.68,0-1.22-0.21-1.62-0.63c-0.4-0.43-0.59-1.02-0.59-1.78c0-0.78,0.2-1.39,0.61-1.81
		c0.41-0.44,0.93-0.66,1.58-0.66c0.63,0,1.13,0.21,1.52,0.64c0.4,0.42,0.59,1.01,0.59,1.78c0,0.05,0,0.13,0,0.22h-3.48
		c0.03,0.51,0.18,0.9,0.44,1.17c0.26,0.27,0.59,0.41,0.98,0.41c0.29,0,0.54-0.07,0.73-0.22C111.22,151,111.38,150.75,111.5,150.42
		L111.5,150.42z M108.91,149.14h2.61c-0.03-0.4-0.13-0.69-0.3-0.89c-0.25-0.3-0.58-0.45-0.98-0.45c-0.36,0-0.67,0.13-0.92,0.38
		C109.07,148.41,108.94,148.73,108.91,149.14L108.91,149.14z"/>
	<path d="M27.9,163.92v-6.44h4.34v0.75h-3.48v2h3.02V161h-3.02v2.92H27.9L27.9,163.92z M32.96,161.59c0-0.86,0.24-1.51,0.72-1.92
		c0.41-0.34,0.9-0.52,1.47-0.52c0.65,0,1.17,0.21,1.58,0.63s0.61,0.99,0.61,1.73c0,0.6-0.09,1.08-0.28,1.42
		c-0.18,0.34-0.44,0.61-0.78,0.81c-0.34,0.19-0.72,0.28-1.13,0.28c-0.66,0-1.19-0.21-1.59-0.63
		C33.16,162.98,32.96,162.37,32.96,161.59L32.96,161.59z M33.78,161.59c0,0.59,0.13,1.04,0.39,1.34c0.26,0.29,0.59,0.44,0.98,0.44
		s0.72-0.15,0.98-0.44c0.26-0.3,0.39-0.76,0.39-1.38c0-0.57-0.13-1.01-0.39-1.31s-0.59-0.45-0.98-0.45s-0.72,0.15-0.98,0.45
		C33.91,160.54,33.78,160.99,33.78,161.59L33.78,161.59z M38.25,163.92v-4.67h0.72v0.72c0.18-0.33,0.34-0.55,0.5-0.66
		s0.33-0.16,0.52-0.16c0.26,0,0.53,0.08,0.81,0.25l-0.28,0.73c-0.19-0.11-0.38-0.17-0.58-0.17c-0.17,0-0.32,0.05-0.47,0.16
		c-0.14,0.1-0.23,0.25-0.3,0.44c-0.08,0.28-0.13,0.59-0.13,0.92v2.44H38.25L38.25,163.92z M44.45,162.42l0.83,0.09
		c-0.14,0.48-0.38,0.85-0.73,1.13c-0.34,0.26-0.79,0.39-1.33,0.39c-0.68,0-1.22-0.21-1.63-0.63c-0.4-0.43-0.59-1.02-0.59-1.78
		c0-0.78,0.2-1.39,0.61-1.81c0.41-0.44,0.93-0.66,1.58-0.66c0.63,0,1.13,0.21,1.52,0.64c0.4,0.42,0.59,1.01,0.59,1.78
		c0,0.05,0,0.13,0,0.22h-3.48c0.03,0.51,0.18,0.9,0.44,1.17c0.26,0.27,0.59,0.41,0.98,0.41c0.29,0,0.54-0.07,0.73-0.22
		C44.17,163,44.34,162.75,44.45,162.42L44.45,162.42z M41.86,161.14h2.61c-0.03-0.4-0.13-0.69-0.3-0.89
		c-0.25-0.3-0.58-0.45-0.98-0.45c-0.36,0-0.67,0.13-0.92,0.38C42.02,160.41,41.89,160.73,41.86,161.14L41.86,161.14z M45.96,162.53
		l0.78-0.13c0.04,0.31,0.16,0.55,0.36,0.72c0.21,0.17,0.49,0.25,0.84,0.25c0.36,0,0.64-0.07,0.81-0.22
		c0.18-0.15,0.27-0.32,0.27-0.52c0-0.19-0.08-0.33-0.23-0.42c-0.11-0.07-0.39-0.17-0.81-0.28c-0.58-0.15-0.99-0.27-1.22-0.38
		c-0.22-0.1-0.39-0.25-0.5-0.44s-0.17-0.4-0.17-0.63c0-0.21,0.05-0.4,0.14-0.58s0.22-0.33,0.39-0.45c0.13-0.08,0.29-0.16,0.5-0.22
		c0.22-0.06,0.45-0.09,0.69-0.09c0.36,0,0.68,0.05,0.95,0.16c0.28,0.1,0.49,0.24,0.63,0.42c0.14,0.18,0.23,0.42,0.28,0.72
		l-0.78,0.11c-0.03-0.24-0.14-0.43-0.31-0.56c-0.17-0.14-0.4-0.2-0.7-0.2c-0.36,0-0.63,0.06-0.78,0.19
		c-0.16,0.11-0.23,0.26-0.23,0.42c0,0.1,0.03,0.19,0.09,0.27c0.06,0.09,0.17,0.17,0.31,0.22c0.07,0.03,0.3,0.1,0.69,0.2
		c0.56,0.15,0.95,0.27,1.17,0.36c0.23,0.09,0.41,0.23,0.53,0.42c0.13,0.18,0.19,0.4,0.19,0.67s-0.08,0.52-0.23,0.75
		s-0.38,0.41-0.67,0.55c-0.28,0.13-0.61,0.19-0.98,0.19c-0.6,0-1.07-0.13-1.39-0.38C46.24,163.39,46.04,163.02,45.96,162.53
		L45.96,162.53z M52.5,163.22l0.11,0.69c-0.23,0.05-0.43,0.08-0.59,0.08c-0.29,0-0.52-0.05-0.67-0.14s-0.27-0.21-0.34-0.36
		c-0.06-0.15-0.09-0.45-0.09-0.92v-2.69h-0.58v-0.63h0.58v-1.16l0.8-0.47v1.63h0.8v0.63h-0.8v2.72c0,0.23,0.01,0.38,0.03,0.44
		c0.03,0.06,0.08,0.11,0.14,0.16s0.15,0.06,0.27,0.06C52.24,163.25,52.36,163.24,52.5,163.22L52.5,163.22z M55.85,163.92v-6.44h1.28
		l1.52,4.56c0.15,0.42,0.25,0.73,0.31,0.95c0.07-0.24,0.19-0.58,0.34-1.03l1.55-4.48h1.14v6.44h-0.81v-5.39l-1.88,5.39h-0.77
		l-1.88-5.48v5.48H55.85L55.85,163.92z M66.31,163.34c-0.29,0.25-0.57,0.43-0.84,0.53c-0.27,0.1-0.56,0.16-0.88,0.16
		c-0.51,0-0.91-0.13-1.19-0.38c-0.27-0.25-0.41-0.57-0.41-0.97c0-0.23,0.05-0.44,0.16-0.63c0.1-0.19,0.24-0.34,0.41-0.45
		c0.17-0.11,0.35-0.2,0.56-0.27c0.16-0.03,0.39-0.07,0.7-0.11c0.65-0.07,1.12-0.17,1.42-0.28c0-0.1,0-0.17,0-0.2
		c0-0.32-0.07-0.55-0.22-0.67c-0.21-0.19-0.51-0.28-0.91-0.28c-0.38,0-0.65,0.07-0.83,0.2c-0.18,0.13-0.31,0.35-0.39,0.69
		l-0.77-0.09c0.06-0.33,0.17-0.6,0.33-0.8c0.17-0.21,0.4-0.36,0.7-0.47c0.31-0.11,0.67-0.17,1.06-0.17c0.41,0,0.73,0.05,0.97,0.14
		c0.25,0.09,0.43,0.21,0.55,0.36c0.13,0.14,0.21,0.31,0.25,0.53c0.03,0.14,0.05,0.38,0.05,0.72v1.06c0,0.73,0.02,1.19,0.05,1.39
		s0.1,0.39,0.2,0.56h-0.83C66.39,163.75,66.33,163.56,66.31,163.34L66.31,163.34z M66.25,161.58c-0.29,0.11-0.72,0.21-1.3,0.3
		c-0.32,0.05-0.55,0.11-0.69,0.17c-0.14,0.05-0.24,0.14-0.31,0.25c-0.07,0.11-0.11,0.24-0.11,0.38c0,0.21,0.08,0.39,0.23,0.53
		c0.16,0.14,0.39,0.2,0.7,0.2c0.3,0,0.57-0.07,0.81-0.2c0.24-0.14,0.42-0.32,0.53-0.55c0.08-0.18,0.13-0.44,0.13-0.78V161.58
		L66.25,161.58z M68.27,163.92v-4.67h0.72v0.67c0.33-0.51,0.83-0.77,1.48-0.77c0.28,0,0.54,0.05,0.77,0.16
		c0.24,0.09,0.42,0.22,0.53,0.39c0.11,0.16,0.2,0.35,0.25,0.58c0.03,0.15,0.05,0.4,0.05,0.77v2.88h-0.8v-2.84
		c0-0.32-0.03-0.56-0.09-0.72s-0.17-0.28-0.33-0.38c-0.16-0.1-0.34-0.16-0.55-0.16c-0.33,0-0.63,0.11-0.88,0.33
		c-0.24,0.21-0.36,0.61-0.36,1.22v2.55H68.27L68.27,163.92z M76.32,163.34c-0.29,0.25-0.57,0.43-0.84,0.53
		c-0.27,0.1-0.56,0.16-0.88,0.16c-0.51,0-0.91-0.13-1.19-0.38c-0.27-0.25-0.41-0.57-0.41-0.97c0-0.23,0.05-0.44,0.16-0.63
		c0.1-0.19,0.24-0.34,0.41-0.45c0.17-0.11,0.35-0.2,0.56-0.27c0.16-0.03,0.39-0.07,0.7-0.11c0.65-0.07,1.12-0.17,1.42-0.28
		c0-0.1,0-0.17,0-0.2c0-0.32-0.07-0.55-0.22-0.67c-0.21-0.19-0.51-0.28-0.91-0.28c-0.38,0-0.65,0.07-0.83,0.2
		c-0.18,0.13-0.31,0.35-0.39,0.69l-0.77-0.09c0.06-0.33,0.17-0.6,0.33-0.8c0.17-0.21,0.4-0.36,0.7-0.47
		c0.31-0.11,0.67-0.17,1.06-0.17c0.41,0,0.73,0.05,0.97,0.14c0.25,0.09,0.43,0.21,0.55,0.36c0.13,0.14,0.21,0.31,0.25,0.53
		c0.03,0.14,0.05,0.38,0.05,0.72v1.06c0,0.73,0.02,1.19,0.05,1.39s0.1,0.39,0.2,0.56h-0.83C76.4,163.75,76.35,163.56,76.32,163.34
		L76.32,163.34z M76.26,161.58c-0.29,0.11-0.72,0.21-1.3,0.3c-0.32,0.05-0.55,0.11-0.69,0.17c-0.14,0.05-0.24,0.14-0.31,0.25
		c-0.07,0.11-0.11,0.24-0.11,0.38c0,0.21,0.08,0.39,0.23,0.53c0.16,0.14,0.39,0.2,0.7,0.2c0.3,0,0.57-0.07,0.81-0.2
		c0.24-0.14,0.42-0.32,0.53-0.55c0.08-0.18,0.13-0.44,0.13-0.78V161.58L76.26,161.58z M78.14,164.31l0.77,0.11
		c0.03,0.24,0.12,0.41,0.27,0.52c0.2,0.15,0.47,0.22,0.81,0.22c0.36,0,0.65-0.07,0.84-0.22c0.2-0.15,0.33-0.35,0.41-0.61
		c0.04-0.17,0.06-0.51,0.05-1.02c-0.34,0.41-0.77,0.61-1.28,0.61c-0.65,0-1.15-0.23-1.5-0.69c-0.34-0.47-0.52-1.03-0.52-1.67
		c0-0.45,0.08-0.86,0.23-1.23c0.17-0.38,0.4-0.66,0.7-0.86c0.3-0.21,0.66-0.31,1.08-0.31c0.55,0,1.01,0.22,1.36,0.66v-0.56h0.73
		v4.03c0,0.73-0.08,1.24-0.23,1.55c-0.15,0.3-0.38,0.54-0.7,0.72c-0.31,0.18-0.7,0.27-1.17,0.27c-0.56,0-1.02-0.13-1.36-0.38
		C78.29,165.19,78.13,164.81,78.14,164.31L78.14,164.31z M78.8,161.5c0,0.61,0.12,1.06,0.36,1.34c0.24,0.28,0.54,0.42,0.91,0.42
		c0.36,0,0.67-0.14,0.92-0.42s0.38-0.72,0.38-1.31c0-0.57-0.13-1.01-0.39-1.3c-0.25-0.29-0.55-0.44-0.91-0.44
		c-0.35,0-0.66,0.15-0.91,0.44C78.92,160.51,78.8,160.94,78.8,161.5L78.8,161.5z M86.48,162.42l0.83,0.09
		c-0.14,0.48-0.38,0.85-0.73,1.13c-0.34,0.26-0.79,0.39-1.33,0.39c-0.68,0-1.22-0.21-1.63-0.63c-0.4-0.43-0.59-1.02-0.59-1.78
		c0-0.78,0.2-1.39,0.61-1.81c0.41-0.44,0.93-0.66,1.58-0.66c0.63,0,1.13,0.21,1.52,0.64c0.4,0.42,0.59,1.01,0.59,1.78
		c0,0.05,0,0.13,0,0.22h-3.48c0.03,0.51,0.18,0.9,0.44,1.17c0.26,0.27,0.59,0.41,0.98,0.41c0.29,0,0.54-0.07,0.73-0.22
		C86.2,163,86.36,162.75,86.48,162.42L86.48,162.42z M83.88,161.14h2.61c-0.03-0.4-0.13-0.69-0.3-0.89
		c-0.25-0.3-0.58-0.45-0.98-0.45c-0.36,0-0.67,0.13-0.92,0.38C84.05,160.41,83.91,160.73,83.88,161.14L83.88,161.14z M88.29,163.92
		v-4.67H89v0.66c0.15-0.23,0.34-0.41,0.58-0.55c0.25-0.14,0.53-0.2,0.84-0.2c0.34,0,0.63,0.07,0.84,0.22
		c0.22,0.14,0.38,0.33,0.47,0.59c0.38-0.54,0.85-0.81,1.44-0.81c0.47,0,0.83,0.13,1.08,0.39c0.25,0.25,0.38,0.64,0.38,1.17v3.2h-0.8
		v-2.94c0-0.32-0.03-0.55-0.08-0.69c-0.04-0.14-0.13-0.24-0.27-0.33c-0.14-0.09-0.3-0.14-0.48-0.14c-0.32,0-0.59,0.11-0.81,0.33
		s-0.33,0.57-0.33,1.05v2.72h-0.8v-3.03c0-0.35-0.06-0.62-0.19-0.8s-0.33-0.27-0.63-0.27c-0.23,0-0.44,0.06-0.63,0.19
		c-0.19,0.11-0.32,0.29-0.41,0.52c-0.08,0.22-0.13,0.54-0.13,0.97v2.42H88.29L88.29,163.92z M98.98,162.42l0.83,0.09
		c-0.14,0.48-0.38,0.85-0.73,1.13c-0.34,0.26-0.79,0.39-1.33,0.39c-0.68,0-1.22-0.21-1.63-0.63c-0.4-0.43-0.59-1.02-0.59-1.78
		c0-0.78,0.2-1.39,0.61-1.81c0.41-0.44,0.93-0.66,1.58-0.66c0.63,0,1.13,0.21,1.52,0.64c0.4,0.42,0.59,1.01,0.59,1.78
		c0,0.05,0,0.13,0,0.22h-3.48c0.03,0.51,0.18,0.9,0.44,1.17c0.26,0.27,0.59,0.41,0.98,0.41c0.29,0,0.54-0.07,0.73-0.22
		C98.7,163,98.86,162.75,98.98,162.42L98.98,162.42z M96.38,161.14h2.61c-0.03-0.4-0.13-0.69-0.3-0.89
		c-0.25-0.3-0.58-0.45-0.98-0.45c-0.36,0-0.67,0.13-0.92,0.38C96.55,160.41,96.42,160.73,96.38,161.14L96.38,161.14z M100.8,163.92
		v-4.67h0.72v0.67c0.33-0.51,0.83-0.77,1.48-0.77c0.28,0,0.54,0.05,0.77,0.16c0.24,0.09,0.42,0.22,0.53,0.39
		c0.11,0.16,0.2,0.35,0.25,0.58c0.03,0.15,0.05,0.4,0.05,0.77v2.88h-0.8v-2.84c0-0.32-0.03-0.56-0.09-0.72
		c-0.06-0.16-0.17-0.28-0.33-0.38c-0.16-0.1-0.34-0.16-0.55-0.16c-0.33,0-0.63,0.11-0.88,0.33c-0.24,0.21-0.36,0.61-0.36,1.22v2.55
		H100.8L100.8,163.92z M107.54,163.22l0.11,0.69c-0.23,0.05-0.43,0.08-0.59,0.08c-0.29,0-0.52-0.05-0.67-0.14
		c-0.16-0.09-0.27-0.21-0.34-0.36c-0.06-0.15-0.09-0.45-0.09-0.92v-2.69h-0.58v-0.63h0.58v-1.16l0.8-0.47v1.63h0.8v0.63h-0.8v2.72
		c0,0.23,0.01,0.38,0.03,0.44c0.03,0.06,0.08,0.11,0.14,0.16c0.06,0.04,0.15,0.06,0.27,0.06
		C107.27,163.25,107.39,163.24,107.54,163.22L107.54,163.22z"/>
	<path d="M41.62,181.92l-1.42-4.67h0.81l0.75,2.7l0.27,1c0.01-0.05,0.09-0.38,0.25-0.97l0.73-2.73h0.81l0.7,2.72l0.23,0.89
		l0.27-0.91l0.8-2.7h0.77l-1.45,4.67h-0.81l-0.75-2.8l-0.19-0.8l-0.94,3.59H41.62L41.62,181.92z M48.12,181.92l-1.42-4.67h0.81
		l0.75,2.7l0.27,1c0.01-0.05,0.09-0.38,0.25-0.97l0.73-2.73h0.81l0.7,2.72l0.23,0.89l0.27-0.91l0.8-2.7h0.77l-1.45,4.67h-0.81
		l-0.75-2.8l-0.19-0.8l-0.94,3.59H48.12L48.12,181.92z M54.62,181.92l-1.42-4.67h0.81l0.75,2.7l0.27,1
		c0.01-0.05,0.09-0.38,0.25-0.97l0.73-2.73h0.81l0.7,2.72l0.23,0.89l0.27-0.91l0.8-2.7h0.77l-1.45,4.67h-0.81l-0.75-2.8l-0.19-0.8
		l-0.94,3.59H54.62L54.62,181.92z M60.48,181.92v-0.91h0.91v0.91H60.48L60.48,181.92z M62.76,183.7v-6.45h0.72v0.61
		c0.17-0.24,0.35-0.42,0.56-0.53c0.22-0.11,0.48-0.17,0.8-0.17c0.4,0,0.74,0.1,1.05,0.31c0.3,0.2,0.53,0.48,0.69,0.86
		s0.23,0.78,0.23,1.22c0,0.48-0.09,0.91-0.27,1.3c-0.17,0.39-0.41,0.68-0.73,0.89c-0.32,0.2-0.67,0.3-1.03,0.3
		c-0.26,0-0.49-0.06-0.7-0.17c-0.21-0.11-0.38-0.26-0.52-0.42v2.27H62.76L62.76,183.7z M63.48,179.61c0,0.6,0.12,1.05,0.36,1.34
		c0.25,0.28,0.55,0.42,0.89,0.42s0.64-0.15,0.89-0.44c0.26-0.3,0.39-0.77,0.39-1.39c0-0.59-0.13-1.04-0.38-1.33
		c-0.24-0.3-0.53-0.45-0.88-0.45c-0.33,0-0.63,0.16-0.89,0.48C63.61,178.56,63.48,179.01,63.48,179.61L63.48,179.61z M70.96,180.42
		l0.83,0.09c-0.14,0.48-0.38,0.85-0.73,1.13c-0.34,0.26-0.79,0.39-1.33,0.39c-0.68,0-1.22-0.21-1.63-0.63
		c-0.4-0.43-0.59-1.02-0.59-1.78c0-0.78,0.2-1.39,0.61-1.81c0.41-0.44,0.93-0.66,1.58-0.66c0.63,0,1.13,0.21,1.52,0.64
		c0.4,0.42,0.59,1.01,0.59,1.78c0,0.05,0,0.13,0,0.22h-3.48c0.03,0.51,0.18,0.9,0.44,1.17c0.26,0.27,0.59,0.41,0.98,0.41
		c0.29,0,0.54-0.07,0.73-0.22C70.68,181,70.84,180.75,70.96,180.42L70.96,180.42z M68.36,179.14h2.61c-0.03-0.4-0.13-0.69-0.3-0.89
		c-0.25-0.3-0.58-0.45-0.98-0.45c-0.36,0-0.67,0.13-0.92,0.38C68.53,178.41,68.39,178.73,68.36,179.14L68.36,179.14z M72.96,181.92
		v-4.05h-0.7v-0.63h0.7v-0.48c0-0.32,0.03-0.56,0.08-0.7c0.08-0.21,0.22-0.38,0.41-0.5c0.2-0.13,0.47-0.19,0.81-0.19
		c0.22,0,0.46,0.03,0.73,0.08l-0.13,0.69c-0.16-0.03-0.31-0.05-0.45-0.05c-0.24,0-0.41,0.05-0.52,0.16c-0.1,0.1-0.16,0.3-0.16,0.58
		v0.42h0.92v0.63h-0.92v4.05H72.96L72.96,181.92z M78.32,180.22l0.78,0.09c-0.08,0.54-0.3,0.96-0.66,1.27
		c-0.35,0.3-0.79,0.45-1.3,0.45c-0.64,0-1.15-0.21-1.53-0.63c-0.39-0.42-0.58-1.02-0.58-1.8c0-0.51,0.08-0.95,0.25-1.33
		c0.17-0.38,0.42-0.66,0.75-0.84c0.34-0.19,0.72-0.28,1.13-0.28c0.5,0,0.91,0.13,1.23,0.39c0.32,0.25,0.53,0.61,0.63,1.08
		l-0.77,0.13c-0.07-0.31-0.2-0.55-0.39-0.7c-0.19-0.17-0.41-0.25-0.67-0.25c-0.41,0-0.73,0.15-0.98,0.44
		c-0.24,0.28-0.36,0.73-0.36,1.34c0,0.64,0.12,1.09,0.36,1.38c0.24,0.28,0.55,0.42,0.94,0.42c0.31,0,0.57-0.09,0.78-0.28
		C78.14,180.91,78.27,180.61,78.32,180.22L78.32,180.22z M79.99,181.92v-0.91h0.91v0.91H79.99L79.99,181.92z M81.98,179.59
		c0-0.86,0.24-1.51,0.72-1.92c0.41-0.34,0.9-0.52,1.47-0.52c0.65,0,1.17,0.21,1.58,0.63s0.61,0.99,0.61,1.73
		c0,0.6-0.09,1.08-0.28,1.42c-0.18,0.34-0.44,0.61-0.78,0.81c-0.34,0.19-0.72,0.28-1.13,0.28c-0.66,0-1.19-0.21-1.59-0.63
		C82.17,180.98,81.98,180.37,81.98,179.59L81.98,179.59z M82.79,179.59c0,0.59,0.13,1.04,0.39,1.34c0.26,0.29,0.59,0.44,0.98,0.44
		c0.4,0,0.72-0.15,0.98-0.44c0.26-0.3,0.39-0.76,0.39-1.38c0-0.57-0.13-1.01-0.39-1.31c-0.26-0.3-0.59-0.45-0.98-0.45
		c-0.4,0-0.72,0.15-0.98,0.45C82.92,178.54,82.79,178.99,82.79,179.59L82.79,179.59z M87.26,181.92v-4.67h0.72v0.72
		c0.18-0.33,0.34-0.55,0.5-0.66s0.33-0.16,0.52-0.16c0.26,0,0.53,0.08,0.81,0.25l-0.28,0.73c-0.19-0.11-0.38-0.17-0.58-0.17
		c-0.17,0-0.32,0.05-0.47,0.16c-0.14,0.1-0.23,0.25-0.3,0.44c-0.08,0.28-0.13,0.59-0.13,0.92v2.44H87.26L87.26,181.92z
		 M90.14,182.31l0.77,0.11c0.03,0.24,0.12,0.41,0.27,0.52c0.2,0.15,0.47,0.22,0.81,0.22c0.36,0,0.65-0.07,0.84-0.22
		c0.2-0.15,0.33-0.35,0.41-0.61c0.04-0.17,0.06-0.51,0.05-1.02c-0.34,0.41-0.77,0.61-1.28,0.61c-0.65,0-1.15-0.23-1.5-0.69
		c-0.34-0.47-0.52-1.03-0.52-1.67c0-0.45,0.08-0.86,0.23-1.23c0.17-0.38,0.4-0.66,0.7-0.86c0.3-0.21,0.66-0.31,1.08-0.31
		c0.55,0,1.01,0.22,1.36,0.66v-0.56h0.73v4.03c0,0.73-0.08,1.24-0.23,1.55c-0.15,0.3-0.38,0.54-0.7,0.72
		c-0.31,0.18-0.7,0.27-1.17,0.27c-0.56,0-1.02-0.13-1.36-0.38C90.29,183.19,90.13,182.81,90.14,182.31L90.14,182.31z M90.79,179.5
		c0,0.61,0.12,1.06,0.36,1.34c0.24,0.28,0.54,0.42,0.91,0.42c0.36,0,0.67-0.14,0.92-0.42s0.38-0.72,0.38-1.31
		c0-0.57-0.13-1.01-0.39-1.3c-0.25-0.29-0.55-0.44-0.91-0.44c-0.35,0-0.66,0.15-0.91,0.44C90.91,178.51,90.79,178.94,90.79,179.5
		L90.79,179.5z"/>
	<path d="M40.79,100.84h-9.12v3.82h8.86c1.92,0,2.49,0.85,2.49,1.91c0,1.09-0.57,1.94-2.49,1.94l-8.86,0v8.55h4.4v-4.72h4.72
		c4,0,6.63-2.53,6.63-5.76C47.42,103.34,44.79,100.84,40.79,100.84L40.79,100.84z"/>
	<polygon points="51.61,117.06 66.21,117.06 66.21,113.24 56.01,113.24 56.01,110.68 62.95,110.68 62.95,106.86 56.01,106.86 
		56.01,104.66 66.21,104.66 66.21,100.84 51.61,100.84 51.61,117.06 	"/>
	<polygon points="71.03,117.06 75.43,117.06 75.43,110.68 82.38,110.68 82.38,106.86 75.43,106.86 75.43,104.66 85.64,104.66 
		85.64,100.84 71.03,100.84 71.03,117.06 	"/>
	<path d="M97.34,104.35c1.52,0,2.8,0.57,3.75,1.64l3.54-2.47c-1.95-2.04-4.61-2.99-7.3-2.99c-5.32,0-9.58,3.67-9.58,8.42
		c0,4.76,4.26,8.43,9.58,8.43c2.67,0,5.32-0.94,7.27-2.96l-3.57-2.3c-0.92,0.9-2.24,1.44-3.7,1.44c-2.63,0-5.03-2.04-5.03-4.61
		C92.31,106.39,94.71,104.35,97.34,104.35L97.34,104.35z"/>
	<path d="M74.93,78.48v-7.39h10.45L71.47,42.61l-6.54,12.42c0.18,0.91,0.27,1.85,0.27,2.81c0,5.66-3.18,10.59-7.87,13.16l-0.25,0.08
		h10.9v7.39H74.93L74.93,78.48z"/>
	<path d="M45.72,70.18v8.51h6.96v-8.38c5.55-1.42,9.64-6.36,9.64-12.25c0-6.99-5.77-12.66-12.88-12.66
		c-7.12,0-12.88,5.67-12.88,12.66C36.55,63.78,40.42,68.61,45.72,70.18L45.72,70.18z"/>
	<path d="M42.32,44.22c0.7-0.36,1.42-0.67,2.17-0.93c7.03-7.26,16.8-11.99,26.55-11.99c15.39,0,25.11,11.82,22.44,26.76l6.15-5.74
		l4.11,4.56c2.06-16.87-9.43-29.96-27.25-29.96c-12.92,0-25.87,6.89-34.36,17.11c0,0-0.05,0.07,0.02,0.15
		C42.23,44.27,42.32,44.22,42.32,44.22L42.32,44.22z"/>
	<path d="M59.94,94.91c18.96,0,37.99-14.83,42.88-33.26l-3.98-4.42l-6.9,6.43c-5.28,14.04-20.1,24.88-34.84,24.88
		c-15.21,0-24.87-11.53-22.54-26.21c-0.27-0.94-0.46-1.93-0.55-2.94c0,0,0.01-0.07-0.09-0.06c-0.06,0-0.08,0.06-0.08,0.06
		c-0.14,0.51-0.28,1.01-0.4,1.52C28.86,79.7,40.73,94.91,59.94,94.91L59.94,94.91z"/>
	<polygon points="104.12,97.4 106.85,97.4 106.85,98.12 105.93,98.12 105.93,100.31 105.04,100.31 105.04,98.12 104.12,98.12 
		104.12,97.4 	"/>
	<polygon points="107.25,97.4 108.44,97.4 108.89,99.17 109.33,97.4 110.51,97.4 110.51,100.31 109.78,100.31 109.78,98.1 
		109.22,100.31 108.55,100.31 107.98,98.1 107.98,100.31 107.25,100.31 107.25,97.4 	"/>
</g>
</svg>
