<?xml version="1.0" encoding="utf-8"?>
<!-- Generator: Adobe Illustrator 23.0.3, SVG Export Plug-In . SVG Version: 6.00 Build 0)  -->
<svg version="1.1" id="Шар_1" xmlns="http://www.w3.org/2000/svg" xmlns:xlink="http://www.w3.org/1999/xlink" x="0px" y="0px"
	 viewBox="0 0 134.55 211.96" style="enable-background:new 0 0 134.55 211.96;" xml:space="preserve">
<style type="text/css">
	.st0{fill:#FFFFFF;}
	.st1{clip-path:url(#SVGID_2_);fill:none;stroke:#000000;stroke-width:4;stroke-linecap:square;stroke-miterlimit:10;}
</style>
<g>
	<path class="st0" d="M8.95,18.04v174c0,4.97,4.03,9,9,9h99c4.97,0,9-4.03,9-9v-174c0-4.97-4.03-9-9-9h-99
		C12.98,9.04,8.95,13.07,8.95,18.04L8.95,18.04z"/>
	<g>
		<defs>
			<rect id="SVGID_1_" x="6.95" y="7" width="121.08" height="196.08"/>
		</defs>
		<clipPath id="SVGID_2_">
			<use xlink:href="#SVGID_1_"  style="overflow:visible;"/>
		</clipPath>
		<path class="st1" d="M8.95,19.04v172c0,5.52,4.48,10,10,10h97c5.52,0,10-4.48,10-10v-172c0-5.52-4.48-10-10-10h-97
			C13.43,9.04,8.95,13.52,8.95,19.04L8.95,19.04z"/>
	</g>
	<path d="M31.64,131.04v-6.44h2.44c0.43,0,0.76,0.02,0.98,0.06c0.31,0.05,0.57,0.15,0.78,0.3c0.22,0.15,0.39,0.35,0.52,0.63
		c0.14,0.26,0.2,0.55,0.2,0.87c0,0.55-0.18,1.02-0.53,1.39c-0.34,0.38-0.97,0.56-1.88,0.56H32.5v2.63H31.64L31.64,131.04z
		 M32.5,127.66h1.67c0.54,0,0.93-0.1,1.16-0.31c0.24-0.21,0.36-0.49,0.36-0.86c0-0.27-0.07-0.5-0.2-0.69
		c-0.14-0.2-0.32-0.33-0.55-0.39c-0.14-0.04-0.4-0.06-0.8-0.06H32.5V127.66L32.5,127.66z M37.67,131.04v-6.44h4.66v0.75h-3.81v1.98
		h3.56v0.75h-3.56v2.19h3.95v0.77H37.67L37.67,131.04z M43.69,131.04v-6.44h4.34v0.75h-3.48v2h3.02v0.77h-3.02v2.92H43.69
		L43.69,131.04z M53.75,128.77l0.84,0.22c-0.18,0.7-0.5,1.23-0.97,1.61c-0.46,0.36-1.03,0.55-1.7,0.55c-0.69,0-1.25-0.14-1.69-0.42
		s-0.77-0.69-1-1.22c-0.22-0.54-0.33-1.12-0.33-1.73c0-0.68,0.13-1.27,0.38-1.77c0.26-0.5,0.63-0.88,1.09-1.13
		c0.48-0.26,1-0.39,1.56-0.39c0.65,0,1.19,0.17,1.63,0.5c0.45,0.32,0.76,0.78,0.92,1.38l-0.84,0.19c-0.15-0.47-0.36-0.81-0.64-1.02
		c-0.28-0.22-0.64-0.33-1.08-0.33c-0.49,0-0.9,0.12-1.23,0.36c-0.33,0.24-0.57,0.56-0.7,0.97c-0.14,0.4-0.2,0.8-0.2,1.22
		c0,0.55,0.08,1.04,0.23,1.45c0.17,0.41,0.42,0.71,0.75,0.91s0.7,0.3,1.09,0.3c0.48,0,0.88-0.14,1.2-0.41
		C53.4,129.73,53.63,129.32,53.75,128.77L53.75,128.77z M54.96,131.15l1.88-6.66h0.63l-1.86,6.66H54.96L54.96,131.15z M57.83,127.87
		c0-0.76,0.08-1.38,0.23-1.84s0.39-0.83,0.69-1.08c0.31-0.25,0.7-0.38,1.17-0.38c0.35,0,0.66,0.07,0.92,0.22
		c0.26,0.14,0.47,0.33,0.64,0.59c0.17,0.26,0.3,0.58,0.39,0.95c0.1,0.38,0.16,0.89,0.16,1.53c0,0.75-0.08,1.36-0.23,1.83
		c-0.16,0.46-0.39,0.82-0.7,1.08c-0.3,0.25-0.69,0.38-1.17,0.38c-0.61,0-1.1-0.22-1.45-0.67C58.04,129.95,57.83,129.08,57.83,127.87
		L57.83,127.87z M58.64,127.87c0,1.05,0.12,1.76,0.36,2.11c0.25,0.34,0.56,0.52,0.92,0.52c0.36,0,0.67-0.17,0.92-0.52
		c0.25-0.35,0.38-1.06,0.38-2.11c0-1.06-0.13-1.77-0.38-2.11c-0.25-0.35-0.56-0.53-0.92-0.53c-0.36,0-0.66,0.15-0.88,0.45
		C58.78,126.08,58.64,126.81,58.64,127.87L58.64,127.87z M65.82,131.04h-0.8v-5.05c-0.19,0.19-0.44,0.38-0.75,0.56
		c-0.31,0.18-0.59,0.31-0.83,0.39v-0.77c0.44-0.2,0.82-0.44,1.16-0.73c0.33-0.3,0.57-0.59,0.7-0.88h0.52V131.04L65.82,131.04z
		 M67.75,129.1v-0.8h2.44v0.8H67.75L67.75,129.1z M70.84,129.34l0.8-0.11c0.09,0.45,0.24,0.77,0.45,0.97c0.22,0.2,0.49,0.3,0.81,0.3
		c0.36,0,0.67-0.12,0.92-0.38c0.26-0.26,0.39-0.58,0.39-0.97c0-0.36-0.12-0.66-0.36-0.89c-0.23-0.24-0.53-0.36-0.89-0.36
		c-0.16,0-0.34,0.03-0.56,0.09l0.09-0.7c0.05,0.01,0.09,0.02,0.13,0.02c0.33,0,0.64-0.09,0.91-0.27c0.27-0.18,0.41-0.45,0.41-0.81
		c0-0.29-0.1-0.53-0.3-0.72c-0.2-0.19-0.45-0.28-0.77-0.28c-0.3,0-0.56,0.1-0.77,0.3c-0.2,0.19-0.33,0.47-0.39,0.86l-0.8-0.14
		c0.1-0.53,0.32-0.94,0.66-1.23c0.34-0.29,0.77-0.44,1.28-0.44c0.35,0,0.68,0.08,0.97,0.23c0.3,0.15,0.53,0.35,0.69,0.61
		s0.23,0.54,0.23,0.83c0,0.28-0.08,0.54-0.23,0.77c-0.15,0.23-0.36,0.41-0.66,0.55c0.39,0.08,0.68,0.27,0.89,0.55
		c0.21,0.27,0.31,0.61,0.31,1.03c0,0.56-0.21,1.04-0.63,1.44c-0.41,0.39-0.92,0.58-1.55,0.58c-0.56,0-1.03-0.17-1.41-0.5
		C71.1,130.32,70.89,129.88,70.84,129.34L70.84,129.34z M78.83,131.04h-0.8v-5.05c-0.19,0.19-0.44,0.38-0.75,0.56
		c-0.31,0.18-0.59,0.31-0.83,0.39v-0.77c0.44-0.2,0.82-0.44,1.16-0.73c0.33-0.3,0.57-0.59,0.7-0.88h0.52V131.04L78.83,131.04z
		 M80.76,129.1v-0.8h2.44v0.8H80.76L80.76,129.1z M86.83,131.04h-0.8v-5.05c-0.19,0.19-0.44,0.38-0.75,0.56
		c-0.31,0.18-0.59,0.31-0.83,0.39v-0.77c0.44-0.2,0.82-0.44,1.16-0.73c0.33-0.3,0.57-0.59,0.7-0.88h0.52V131.04L86.83,131.04z
		 M88.85,127.87c0-0.76,0.08-1.38,0.23-1.84s0.39-0.83,0.69-1.08c0.31-0.25,0.7-0.38,1.17-0.38c0.35,0,0.66,0.07,0.92,0.22
		c0.26,0.14,0.47,0.33,0.64,0.59c0.17,0.26,0.3,0.58,0.39,0.95c0.1,0.38,0.16,0.89,0.16,1.53c0,0.75-0.08,1.36-0.23,1.83
		c-0.16,0.46-0.39,0.82-0.7,1.08c-0.3,0.25-0.69,0.38-1.17,0.38c-0.61,0-1.1-0.22-1.45-0.67C89.07,129.95,88.85,129.08,88.85,127.87
		L88.85,127.87z M89.66,127.87c0,1.05,0.12,1.76,0.36,2.11c0.25,0.34,0.56,0.52,0.92,0.52c0.36,0,0.67-0.17,0.92-0.52
		c0.25-0.35,0.38-1.06,0.38-2.11c0-1.06-0.13-1.77-0.38-2.11c-0.25-0.35-0.56-0.53-0.92-0.53c-0.36,0-0.66,0.15-0.88,0.45
		C89.8,126.08,89.66,126.81,89.66,127.87L89.66,127.87z M96.84,131.04h-0.8v-5.05c-0.19,0.19-0.44,0.38-0.75,0.56
		c-0.31,0.18-0.59,0.31-0.83,0.39v-0.77c0.44-0.2,0.82-0.44,1.16-0.73c0.33-0.3,0.57-0.59,0.7-0.88h0.52V131.04L96.84,131.04z
		 M98.86,127.87c0-0.76,0.08-1.38,0.23-1.84c0.16-0.47,0.39-0.83,0.69-1.08c0.31-0.25,0.7-0.38,1.17-0.38
		c0.35,0,0.66,0.07,0.92,0.22c0.26,0.14,0.47,0.33,0.64,0.59c0.17,0.26,0.3,0.58,0.39,0.95c0.1,0.38,0.16,0.89,0.16,1.53
		c0,0.75-0.08,1.36-0.23,1.83c-0.16,0.46-0.39,0.82-0.7,1.08c-0.3,0.25-0.69,0.38-1.17,0.38c-0.61,0-1.1-0.22-1.45-0.67
		C99.08,129.95,98.86,129.08,98.86,127.87L98.86,127.87z M99.68,127.87c0,1.05,0.12,1.76,0.36,2.11c0.25,0.34,0.56,0.52,0.92,0.52
		c0.36,0,0.67-0.17,0.92-0.52c0.25-0.35,0.38-1.06,0.38-2.11c0-1.06-0.12-1.77-0.38-2.11c-0.25-0.35-0.56-0.53-0.92-0.53
		c-0.36,0-0.66,0.15-0.88,0.45C99.81,126.08,99.68,126.81,99.68,127.87L99.68,127.87z"/>
	<path d="M28.66,146.6h5.06v6.44h-0.86v-5.69h-3.34v5.69h-0.86V146.6L28.66,146.6z M35.02,147.51v-0.91h0.8v0.91H35.02L35.02,147.51
		z M35.02,153.04v-4.67h0.8v4.67H35.02L35.02,153.04z M37.64,148.37h3.25v4.02h0.5v1.98h-0.64v-1.33h-3.67v1.33h-0.66v-1.98h0.42
		C37.39,151.63,37.66,150.3,37.64,148.37L37.64,148.37z M38.3,149.02c-0.06,1.52-0.3,2.64-0.7,3.36h2.52v-3.36H38.3L38.3,149.02z
		 M41.84,148.37h3.78v0.66h-1.5v4.02h-0.78v-4.02h-1.5V148.37L41.84,148.37z M46.39,154.82v-6.45h0.72v0.61
		c0.17-0.24,0.35-0.42,0.56-0.53c0.22-0.11,0.48-0.17,0.8-0.17c0.4,0,0.74,0.1,1.05,0.31c0.3,0.2,0.53,0.48,0.69,0.86
		s0.23,0.78,0.23,1.22c0,0.48-0.09,0.91-0.27,1.3c-0.17,0.39-0.41,0.68-0.73,0.89c-0.32,0.2-0.67,0.3-1.03,0.3
		c-0.26,0-0.49-0.06-0.7-0.17c-0.21-0.11-0.38-0.26-0.52-0.42v2.27H46.39L46.39,154.82z M47.11,150.73c0,0.6,0.12,1.05,0.36,1.34
		c0.25,0.28,0.55,0.42,0.89,0.42s0.64-0.15,0.89-0.44c0.26-0.3,0.39-0.77,0.39-1.39c0-0.59-0.13-1.04-0.38-1.33
		c-0.24-0.3-0.53-0.45-0.88-0.45c-0.33,0-0.63,0.16-0.89,0.48C47.24,149.68,47.11,150.13,47.11,150.73L47.11,150.73z M51.39,148.37
		h0.8v3.56l2.19-3.56h0.86v4.67h-0.8v-3.53l-2.19,3.53h-0.86V148.37L51.39,148.37z M56.44,148.37h1.23l1.23,3.73l1.36-3.73h1.14
		v4.67h-0.8v-3.75l-1.38,3.75h-0.72l-1.3-3.94v3.94h-0.78V148.37L56.44,148.37z M62.61,148.37h0.78v2.02c0.26,0,0.44-0.05,0.53-0.14
		c0.1-0.09,0.26-0.38,0.45-0.84c0.16-0.36,0.28-0.6,0.38-0.72c0.09-0.13,0.2-0.21,0.33-0.25s0.33-0.06,0.61-0.06h0.16v0.66h-0.22
		c-0.21,0-0.34,0.03-0.39,0.09c-0.06,0.06-0.16,0.26-0.28,0.58c-0.13,0.3-0.24,0.51-0.34,0.63c-0.09,0.11-0.24,0.22-0.45,0.33
		c0.34,0.08,0.68,0.4,1,0.94l0.88,1.45h-0.88l-0.84-1.45c-0.18-0.28-0.33-0.47-0.47-0.56c-0.13-0.09-0.28-0.14-0.45-0.14v2.16h-0.78
		V148.37L62.61,148.37z M69.59,152.46c-0.29,0.25-0.57,0.43-0.84,0.53c-0.27,0.1-0.56,0.16-0.88,0.16c-0.51,0-0.91-0.13-1.19-0.38
		c-0.27-0.25-0.41-0.57-0.41-0.97c0-0.23,0.05-0.44,0.16-0.63c0.1-0.19,0.24-0.34,0.41-0.45c0.17-0.11,0.35-0.2,0.56-0.27
		c0.16-0.03,0.39-0.07,0.7-0.11c0.65-0.07,1.12-0.17,1.42-0.28c0-0.1,0-0.17,0-0.2c0-0.32-0.07-0.55-0.22-0.67
		c-0.21-0.19-0.51-0.28-0.91-0.28c-0.38,0-0.65,0.07-0.83,0.2c-0.18,0.13-0.31,0.35-0.39,0.69l-0.77-0.09
		c0.06-0.33,0.17-0.6,0.33-0.8c0.17-0.21,0.4-0.36,0.7-0.47c0.31-0.11,0.67-0.17,1.06-0.17c0.41,0,0.73,0.05,0.97,0.14
		c0.25,0.09,0.43,0.21,0.55,0.36c0.13,0.14,0.21,0.31,0.25,0.53c0.03,0.14,0.05,0.38,0.05,0.72v1.06c0,0.73,0.02,1.19,0.05,1.39
		s0.1,0.39,0.2,0.56h-0.83C69.67,152.87,69.61,152.68,69.59,152.46L69.59,152.46z M69.53,150.7c-0.29,0.11-0.72,0.21-1.3,0.3
		c-0.32,0.05-0.55,0.11-0.69,0.17c-0.14,0.05-0.24,0.14-0.31,0.25c-0.07,0.11-0.11,0.24-0.11,0.38c0,0.21,0.08,0.39,0.23,0.53
		c0.16,0.14,0.39,0.2,0.7,0.2c0.3,0,0.57-0.07,0.81-0.2c0.24-0.14,0.42-0.32,0.53-0.55c0.08-0.18,0.13-0.44,0.13-0.78V150.7
		L69.53,150.7z M77.1,151.34l0.78,0.09c-0.08,0.54-0.3,0.96-0.66,1.27c-0.35,0.3-0.79,0.45-1.3,0.45c-0.64,0-1.15-0.21-1.53-0.63
		c-0.39-0.42-0.58-1.02-0.58-1.8c0-0.51,0.08-0.95,0.25-1.33c0.17-0.38,0.42-0.66,0.75-0.84c0.34-0.19,0.72-0.28,1.13-0.28
		c0.5,0,0.91,0.13,1.23,0.39c0.32,0.25,0.53,0.61,0.63,1.08l-0.77,0.13c-0.07-0.31-0.2-0.55-0.39-0.7
		c-0.19-0.17-0.41-0.25-0.67-0.25c-0.41,0-0.73,0.15-0.98,0.44c-0.24,0.28-0.36,0.73-0.36,1.34c0,0.64,0.12,1.09,0.36,1.38
		c0.24,0.28,0.55,0.42,0.94,0.42c0.31,0,0.57-0.09,0.78-0.28C76.92,152.02,77.05,151.73,77.1,151.34L77.1,151.34z M78.13,148.37
		h3.78v0.66h-1.5v4.02h-0.78v-4.02h-1.5V148.37L78.13,148.37z M82.67,147.51v-0.91h0.8v0.91H82.67L82.67,147.51z M82.67,153.04
		v-4.67h0.8v4.67H82.67L82.67,153.04z M84.67,148.37h0.8v3.56l2.19-3.56h0.86v4.67h-0.8v-3.53l-2.19,3.53h-0.86V148.37L84.67,148.37
		z M87.35,146.6h0.53c-0.04,0.36-0.18,0.65-0.41,0.84c-0.22,0.2-0.52,0.3-0.89,0.3s-0.68-0.09-0.91-0.28
		c-0.22-0.2-0.35-0.48-0.39-0.86h0.55c0.03,0.2,0.11,0.35,0.23,0.45c0.13,0.09,0.29,0.14,0.5,0.14c0.23,0,0.41-0.05,0.53-0.14
		S87.3,146.81,87.35,146.6L87.35,146.6z M89.7,148.37h0.78v2.02c0.26,0,0.44-0.05,0.53-0.14c0.1-0.09,0.26-0.38,0.45-0.84
		c0.16-0.36,0.28-0.6,0.38-0.72c0.09-0.13,0.2-0.21,0.33-0.25s0.33-0.06,0.61-0.06h0.16v0.66h-0.22c-0.21,0-0.34,0.03-0.39,0.09
		c-0.06,0.06-0.16,0.26-0.28,0.58c-0.13,0.3-0.24,0.51-0.34,0.63c-0.09,0.11-0.24,0.22-0.45,0.33c0.34,0.08,0.68,0.4,1,0.94
		l0.88,1.45h-0.88l-0.84-1.45c-0.18-0.28-0.33-0.47-0.47-0.56c-0.13-0.09-0.28-0.14-0.45-0.14v2.16H89.7V148.37L89.7,148.37z
		 M93.34,150.71c0-0.86,0.24-1.51,0.72-1.92c0.41-0.34,0.9-0.52,1.47-0.52c0.65,0,1.17,0.21,1.58,0.63
		c0.41,0.42,0.61,0.99,0.61,1.73c0,0.6-0.09,1.08-0.28,1.42c-0.18,0.34-0.44,0.61-0.78,0.81c-0.34,0.19-0.72,0.28-1.13,0.28
		c-0.66,0-1.19-0.21-1.59-0.63C93.54,152.1,93.34,151.49,93.34,150.71L93.34,150.71z M94.15,150.71c0,0.59,0.13,1.04,0.39,1.34
		c0.26,0.29,0.59,0.44,0.98,0.44c0.4,0,0.72-0.15,0.98-0.44c0.26-0.3,0.39-0.76,0.39-1.38c0-0.57-0.13-1.01-0.39-1.31
		c-0.26-0.3-0.59-0.45-0.98-0.45c-0.4,0-0.72,0.15-0.98,0.45C94.28,149.66,94.15,150.11,94.15,150.71L94.15,150.71z M98.64,148.37
		h2.69v0.66h-1.89v4.02h-0.8V148.37L98.64,148.37z M101.63,150.71c0-0.86,0.24-1.51,0.72-1.92c0.41-0.34,0.9-0.52,1.47-0.52
		c0.65,0,1.17,0.21,1.58,0.63c0.41,0.42,0.61,0.99,0.61,1.73c0,0.6-0.09,1.08-0.28,1.42c-0.18,0.34-0.44,0.61-0.78,0.81
		c-0.34,0.19-0.72,0.28-1.13,0.28c-0.66,0-1.19-0.21-1.59-0.63C101.83,152.1,101.63,151.49,101.63,150.71L101.63,150.71z
		 M102.44,150.71c0,0.59,0.13,1.04,0.39,1.34c0.26,0.29,0.59,0.44,0.98,0.44c0.4,0,0.72-0.15,0.98-0.44
		c0.26-0.3,0.39-0.76,0.39-1.38c0-0.57-0.13-1.01-0.39-1.31c-0.26-0.3-0.59-0.45-0.98-0.45c-0.4,0-0.72,0.15-0.98,0.45
		C102.57,149.66,102.44,150.11,102.44,150.71L102.44,150.71z"/>
	<path d="M30.94,160.37h3.67v4.67h-0.78v-4.02h-2.11v2.33c0,0.54-0.02,0.9-0.05,1.08c-0.03,0.17-0.13,0.32-0.3,0.45
		c-0.16,0.13-0.38,0.19-0.67,0.19c-0.19,0-0.4-0.01-0.64-0.03v-0.66h0.34c0.17,0,0.28-0.02,0.34-0.05c0.07-0.04,0.12-0.1,0.14-0.17
		c0.03-0.07,0.05-0.31,0.05-0.72V160.37L30.94,160.37z M35.8,159.51v-0.91h0.8v0.91H35.8L35.8,159.51z M35.8,165.04v-4.67h0.8v4.67
		H35.8L35.8,165.04z M40.84,163.34l0.78,0.09c-0.08,0.54-0.3,0.96-0.66,1.27c-0.35,0.3-0.79,0.45-1.3,0.45
		c-0.64,0-1.15-0.21-1.53-0.63s-0.58-1.02-0.58-1.8c0-0.51,0.08-0.95,0.25-1.33c0.17-0.38,0.42-0.66,0.75-0.84
		c0.34-0.19,0.72-0.28,1.13-0.28c0.5,0,0.91,0.13,1.23,0.39c0.32,0.25,0.53,0.61,0.63,1.08l-0.77,0.13c-0.07-0.31-0.2-0.55-0.39-0.7
		c-0.19-0.17-0.41-0.25-0.67-0.25c-0.41,0-0.73,0.15-0.98,0.44c-0.24,0.28-0.36,0.73-0.36,1.34c0,0.64,0.12,1.09,0.36,1.38
		s0.55,0.42,0.94,0.42c0.31,0,0.57-0.09,0.78-0.28C40.66,164.02,40.79,163.73,40.84,163.34L40.84,163.34z M42,162.71
		c0-0.86,0.24-1.51,0.72-1.92c0.41-0.34,0.9-0.52,1.47-0.52c0.65,0,1.17,0.21,1.58,0.63s0.61,0.99,0.61,1.73
		c0,0.6-0.09,1.08-0.28,1.42c-0.18,0.34-0.44,0.61-0.78,0.81c-0.34,0.19-0.72,0.28-1.13,0.28c-0.66,0-1.19-0.21-1.59-0.63
		C42.2,164.1,42,163.49,42,162.71L42,162.71z M42.81,162.71c0,0.59,0.13,1.04,0.39,1.34c0.26,0.29,0.59,0.44,0.98,0.44
		c0.4,0,0.72-0.15,0.98-0.44c0.26-0.3,0.39-0.76,0.39-1.38c0-0.57-0.13-1.01-0.39-1.31c-0.26-0.3-0.59-0.45-0.98-0.45
		c-0.4,0-0.72,0.15-0.98,0.45C42.94,161.66,42.81,162.11,42.81,162.71L42.81,162.71z M47.3,160.37h1.83c0.45,0,0.78,0.04,1,0.13
		c0.22,0.07,0.41,0.21,0.56,0.41s0.23,0.44,0.23,0.72c0,0.22-0.05,0.41-0.14,0.58s-0.23,0.3-0.41,0.41c0.22,0.07,0.4,0.21,0.55,0.42
		c0.15,0.2,0.22,0.43,0.22,0.7c-0.03,0.45-0.19,0.78-0.48,1c-0.28,0.21-0.7,0.31-1.25,0.31H47.3V160.37L47.3,160.37z M48.1,162.34
		h0.84c0.33,0,0.56-0.02,0.69-0.05c0.13-0.04,0.24-0.11,0.34-0.22c0.1-0.1,0.16-0.23,0.16-0.39c0-0.24-0.09-0.41-0.27-0.5
		c-0.18-0.1-0.47-0.16-0.89-0.16H48.1V162.34L48.1,162.34z M48.1,164.38h1.05c0.45,0,0.76-0.05,0.92-0.16
		c0.17-0.1,0.25-0.28,0.25-0.53c0-0.15-0.05-0.28-0.14-0.41c-0.09-0.14-0.22-0.22-0.38-0.25s-0.41-0.05-0.75-0.05H48.1V164.38
		L48.1,164.38z M52.47,160.37h3.67v4.67h-0.78v-4.02h-2.11v2.33c0,0.54-0.02,0.9-0.05,1.08c-0.03,0.17-0.13,0.32-0.3,0.45
		c-0.16,0.13-0.38,0.19-0.67,0.19c-0.19,0-0.4-0.01-0.64-0.03v-0.66h0.34c0.17,0,0.28-0.02,0.34-0.05c0.07-0.04,0.12-0.1,0.14-0.17
		c0.03-0.07,0.05-0.31,0.05-0.72V160.37L52.47,160.37z M60.38,164.46c-0.29,0.25-0.57,0.43-0.84,0.53c-0.27,0.1-0.56,0.16-0.88,0.16
		c-0.51,0-0.91-0.13-1.19-0.38c-0.27-0.25-0.41-0.57-0.41-0.97c0-0.23,0.05-0.44,0.16-0.63c0.1-0.19,0.24-0.34,0.41-0.45
		s0.35-0.2,0.56-0.27c0.16-0.03,0.39-0.07,0.7-0.11c0.65-0.07,1.12-0.17,1.42-0.28c0-0.1,0-0.17,0-0.2c0-0.32-0.07-0.55-0.22-0.67
		c-0.21-0.19-0.51-0.28-0.91-0.28c-0.38,0-0.65,0.07-0.83,0.2c-0.18,0.13-0.31,0.35-0.39,0.69l-0.77-0.09
		c0.06-0.33,0.17-0.6,0.33-0.8c0.17-0.21,0.4-0.36,0.7-0.47c0.31-0.11,0.67-0.17,1.06-0.17c0.41,0,0.73,0.05,0.97,0.14
		c0.25,0.09,0.43,0.21,0.55,0.36c0.13,0.14,0.21,0.31,0.25,0.53c0.03,0.14,0.05,0.38,0.05,0.72v1.06c0,0.73,0.02,1.19,0.05,1.39
		s0.1,0.39,0.2,0.56h-0.83C60.46,164.87,60.4,164.68,60.38,164.46L60.38,164.46z M60.32,162.7c-0.29,0.11-0.72,0.21-1.3,0.3
		c-0.32,0.05-0.55,0.11-0.69,0.17c-0.14,0.05-0.24,0.14-0.31,0.25c-0.07,0.11-0.11,0.24-0.11,0.38c0,0.21,0.08,0.39,0.23,0.53
		c0.16,0.14,0.39,0.2,0.7,0.2c0.3,0,0.57-0.07,0.81-0.2c0.24-0.14,0.42-0.32,0.53-0.55c0.08-0.18,0.13-0.44,0.13-0.78V162.7
		L60.32,162.7z M62.37,160.37h0.78v4.02h1.81v-4.02h0.78v4.02h1.81v-4.02h0.78v4.67h-5.97V160.37L62.37,160.37z M69.14,160.37h3.78
		v0.66h-1.5v4.02h-0.78v-4.02h-1.5V160.37L69.14,160.37z M73.65,166.84l-0.09-0.73c0.18,0.04,0.33,0.06,0.45,0.06
		c0.18,0,0.32-0.03,0.42-0.09c0.1-0.05,0.19-0.13,0.27-0.23c0.04-0.08,0.12-0.28,0.23-0.59c0.02-0.04,0.05-0.1,0.08-0.19l-1.78-4.69
		h0.86l0.97,2.7c0.13,0.34,0.24,0.7,0.34,1.08c0.08-0.35,0.19-0.71,0.31-1.06l1-2.72h0.8l-1.78,4.75c-0.19,0.51-0.33,0.86-0.44,1.06
		c-0.15,0.26-0.31,0.45-0.48,0.56c-0.18,0.13-0.4,0.19-0.66,0.19C74.01,166.93,73.84,166.9,73.65,166.84L73.65,166.84z
		 M78.18,160.37h1.83c0.45,0,0.78,0.04,1,0.13c0.22,0.07,0.41,0.21,0.56,0.41s0.23,0.44,0.23,0.72c0,0.22-0.05,0.41-0.14,0.58
		s-0.23,0.3-0.41,0.41c0.22,0.07,0.4,0.21,0.55,0.42c0.15,0.2,0.22,0.43,0.22,0.7c-0.03,0.45-0.19,0.78-0.48,1
		c-0.28,0.21-0.7,0.31-1.25,0.31h-2.11V160.37L78.18,160.37z M78.98,162.34h0.84c0.33,0,0.56-0.02,0.69-0.05
		c0.13-0.04,0.24-0.11,0.34-0.22c0.1-0.1,0.16-0.23,0.16-0.39c0-0.24-0.09-0.41-0.27-0.5c-0.18-0.1-0.47-0.16-0.89-0.16h-0.88
		V162.34L78.98,162.34z M78.98,164.38h1.05c0.45,0,0.76-0.05,0.92-0.16c0.17-0.1,0.25-0.28,0.25-0.53c0-0.15-0.05-0.28-0.14-0.41
		c-0.09-0.14-0.22-0.22-0.38-0.25s-0.41-0.05-0.75-0.05h-0.95V164.38L78.98,164.38z M86.01,164.46c-0.29,0.25-0.57,0.43-0.84,0.53
		c-0.27,0.1-0.56,0.16-0.88,0.16c-0.51,0-0.91-0.13-1.19-0.38c-0.27-0.25-0.41-0.57-0.41-0.97c0-0.23,0.05-0.44,0.16-0.63
		c0.1-0.19,0.24-0.34,0.41-0.45c0.17-0.11,0.35-0.2,0.56-0.27c0.16-0.03,0.39-0.07,0.7-0.11c0.65-0.07,1.12-0.17,1.42-0.28
		c0-0.1,0-0.17,0-0.2c0-0.32-0.07-0.55-0.22-0.67c-0.21-0.19-0.51-0.28-0.91-0.28c-0.38,0-0.65,0.07-0.83,0.2
		c-0.18,0.13-0.31,0.35-0.39,0.69l-0.77-0.09c0.06-0.33,0.17-0.6,0.33-0.8c0.17-0.21,0.4-0.36,0.7-0.47
		c0.31-0.11,0.67-0.17,1.06-0.17c0.41,0,0.73,0.05,0.97,0.14c0.25,0.09,0.43,0.21,0.55,0.36c0.13,0.14,0.21,0.31,0.25,0.53
		c0.03,0.14,0.05,0.38,0.05,0.72v1.06c0,0.73,0.02,1.19,0.05,1.39s0.1,0.39,0.2,0.56h-0.83C86.08,164.87,86.03,164.68,86.01,164.46
		L86.01,164.46z M85.95,162.7c-0.29,0.11-0.72,0.21-1.3,0.3c-0.32,0.05-0.55,0.11-0.69,0.17c-0.14,0.05-0.24,0.14-0.31,0.25
		c-0.07,0.11-0.11,0.24-0.11,0.38c0,0.21,0.08,0.39,0.23,0.53c0.16,0.14,0.39,0.2,0.7,0.2c0.3,0,0.57-0.07,0.81-0.2
		c0.24-0.14,0.42-0.32,0.53-0.55c0.08-0.18,0.13-0.44,0.13-0.78V162.7L85.95,162.7z M87.97,160.37h0.8v1.95h2.19v-1.95h0.8v4.67
		h-0.8v-2.06h-2.19v2.06h-0.8V160.37L87.97,160.37z M92.94,160.37h0.8v1.95h2.19v-1.95h0.8v4.67h-0.8v-2.06h-2.19v2.06h-0.8V160.37
		L92.94,160.37z M101.58,160.37v4.67h-0.78v-1.81h-0.45c-0.28,0-0.49,0.04-0.62,0.11c-0.14,0.06-0.33,0.29-0.59,0.69l-0.7,1.02
		h-0.97l0.84-1.25c0.26-0.39,0.52-0.6,0.78-0.66c-0.45-0.06-0.78-0.22-1-0.48c-0.22-0.27-0.33-0.58-0.33-0.92
		c0-0.4,0.14-0.72,0.42-0.97c0.29-0.26,0.71-0.39,1.25-0.39H101.58L101.58,160.37z M100.8,161.02h-1.12c-0.48,0-0.79,0.07-0.92,0.22
		c-0.14,0.15-0.2,0.32-0.2,0.52c0,0.28,0.1,0.49,0.3,0.63c0.21,0.13,0.57,0.19,1.08,0.19h0.88V161.02L100.8,161.02z"/>
	<path d="M41.41,183.04l-1.42-4.67h0.81l0.75,2.7l0.27,1c0.01-0.05,0.09-0.38,0.25-0.97l0.73-2.73h0.81l0.7,2.72l0.23,0.89
		l0.27-0.91l0.8-2.7h0.77l-1.45,4.67h-0.81l-0.75-2.8l-0.19-0.8l-0.94,3.59H41.41L41.41,183.04z M47.91,183.04l-1.42-4.67h0.81
		l0.75,2.7l0.27,1c0.01-0.05,0.09-0.38,0.25-0.97l0.73-2.73h0.81l0.7,2.72l0.23,0.89l0.27-0.91l0.8-2.7h0.77l-1.45,4.67h-0.81
		l-0.75-2.8l-0.19-0.8l-0.94,3.59H47.91L47.91,183.04z M54.4,183.04l-1.42-4.67h0.81l0.75,2.7l0.27,1c0.01-0.05,0.09-0.38,0.25-0.97
		l0.73-2.73h0.81l0.7,2.72l0.23,0.89l0.27-0.91l0.8-2.7h0.77l-1.45,4.67h-0.81l-0.75-2.8l-0.19-0.8l-0.94,3.59H54.4L54.4,183.04z
		 M60.26,183.04v-0.91h0.91v0.91H60.26L60.26,183.04z M62.55,184.82v-6.45h0.72v0.61c0.17-0.24,0.35-0.42,0.56-0.53
		c0.22-0.11,0.48-0.17,0.8-0.17c0.4,0,0.74,0.1,1.05,0.31c0.3,0.2,0.53,0.48,0.69,0.86s0.23,0.78,0.23,1.22
		c0,0.48-0.09,0.91-0.27,1.3c-0.17,0.39-0.41,0.68-0.73,0.89c-0.32,0.2-0.67,0.3-1.03,0.3c-0.26,0-0.49-0.06-0.7-0.17
		c-0.21-0.11-0.38-0.26-0.52-0.42v2.27H62.55L62.55,184.82z M63.26,180.73c0,0.6,0.12,1.05,0.36,1.34c0.25,0.28,0.55,0.42,0.89,0.42
		s0.64-0.15,0.89-0.44c0.26-0.3,0.39-0.77,0.39-1.39c0-0.59-0.13-1.04-0.38-1.33c-0.24-0.3-0.53-0.45-0.88-0.45
		c-0.33,0-0.63,0.16-0.89,0.48C63.39,179.68,63.26,180.13,63.26,180.73L63.26,180.73z M70.74,181.54l0.83,0.09
		c-0.14,0.48-0.38,0.85-0.73,1.13c-0.34,0.26-0.79,0.39-1.33,0.39c-0.68,0-1.22-0.21-1.63-0.63c-0.4-0.43-0.59-1.02-0.59-1.78
		c0-0.78,0.2-1.39,0.61-1.81c0.41-0.44,0.93-0.66,1.58-0.66c0.63,0,1.13,0.21,1.52,0.64c0.4,0.42,0.59,1.01,0.59,1.78
		c0,0.05,0,0.13,0,0.22H68.1c0.03,0.51,0.18,0.9,0.44,1.17c0.26,0.27,0.59,0.41,0.98,0.41c0.29,0,0.54-0.07,0.73-0.22
		C70.46,182.12,70.62,181.87,70.74,181.54L70.74,181.54z M68.14,180.26h2.61c-0.03-0.4-0.13-0.69-0.3-0.89
		c-0.25-0.3-0.58-0.45-0.98-0.45c-0.36,0-0.67,0.13-0.92,0.38C68.31,179.53,68.18,179.85,68.14,180.26L68.14,180.26z M72.74,183.04
		v-4.05h-0.7v-0.63h0.7v-0.48c0-0.32,0.03-0.56,0.08-0.7c0.08-0.21,0.22-0.38,0.41-0.5c0.2-0.13,0.47-0.19,0.81-0.19
		c0.22,0,0.46,0.03,0.73,0.08l-0.13,0.69c-0.16-0.03-0.31-0.05-0.45-0.05c-0.24,0-0.41,0.05-0.52,0.16c-0.1,0.1-0.16,0.3-0.16,0.58
		v0.42h0.92v0.63h-0.92v4.05H72.74L72.74,183.04z M78.1,181.34l0.78,0.09c-0.08,0.54-0.3,0.96-0.66,1.27
		c-0.35,0.3-0.79,0.45-1.3,0.45c-0.64,0-1.15-0.21-1.53-0.63c-0.39-0.42-0.58-1.02-0.58-1.8c0-0.51,0.08-0.95,0.25-1.33
		c0.17-0.38,0.42-0.66,0.75-0.84c0.34-0.19,0.72-0.28,1.13-0.28c0.5,0,0.91,0.13,1.23,0.39c0.32,0.25,0.53,0.61,0.63,1.08
		l-0.77,0.13c-0.07-0.31-0.2-0.55-0.39-0.7c-0.19-0.17-0.41-0.25-0.67-0.25c-0.41,0-0.73,0.15-0.98,0.44
		c-0.24,0.28-0.36,0.73-0.36,1.34c0,0.64,0.12,1.09,0.36,1.38c0.24,0.28,0.55,0.42,0.94,0.42c0.31,0,0.57-0.09,0.78-0.28
		C77.92,182.02,78.05,181.73,78.1,181.34L78.1,181.34z M79.78,183.04v-0.91h0.91v0.91H79.78L79.78,183.04z M81.76,180.71
		c0-0.86,0.24-1.51,0.72-1.92c0.41-0.34,0.9-0.52,1.47-0.52c0.65,0,1.17,0.21,1.58,0.63s0.61,0.99,0.61,1.73
		c0,0.6-0.09,1.08-0.28,1.42c-0.18,0.34-0.44,0.61-0.78,0.81c-0.34,0.19-0.72,0.28-1.13,0.28c-0.66,0-1.19-0.21-1.59-0.63
		C81.96,182.1,81.76,181.49,81.76,180.71L81.76,180.71z M82.57,180.71c0,0.59,0.13,1.04,0.39,1.34c0.26,0.29,0.59,0.44,0.98,0.44
		c0.4,0,0.72-0.15,0.98-0.44c0.26-0.3,0.39-0.76,0.39-1.38c0-0.57-0.13-1.01-0.39-1.31c-0.26-0.3-0.59-0.45-0.98-0.45
		c-0.4,0-0.72,0.15-0.98,0.45C82.7,179.66,82.57,180.11,82.57,180.71L82.57,180.71z M87.05,183.04v-4.67h0.72v0.72
		c0.18-0.33,0.34-0.55,0.5-0.66s0.33-0.16,0.52-0.16c0.26,0,0.53,0.08,0.81,0.25l-0.28,0.73c-0.19-0.11-0.38-0.17-0.58-0.17
		c-0.17,0-0.32,0.05-0.47,0.16c-0.14,0.1-0.23,0.25-0.3,0.44c-0.08,0.28-0.13,0.59-0.13,0.92v2.44H87.05L87.05,183.04z
		 M89.92,183.43l0.77,0.11c0.03,0.24,0.12,0.41,0.27,0.52c0.2,0.15,0.47,0.22,0.81,0.22c0.36,0,0.65-0.07,0.84-0.22
		c0.2-0.15,0.33-0.35,0.41-0.61c0.04-0.17,0.06-0.51,0.05-1.02c-0.34,0.41-0.77,0.61-1.28,0.61c-0.65,0-1.15-0.23-1.5-0.69
		c-0.34-0.47-0.52-1.03-0.52-1.67c0-0.45,0.08-0.86,0.23-1.23c0.17-0.38,0.4-0.66,0.7-0.86c0.3-0.21,0.66-0.31,1.08-0.31
		c0.55,0,1.01,0.22,1.36,0.66v-0.56h0.73v4.03c0,0.73-0.08,1.24-0.23,1.55c-0.15,0.3-0.38,0.54-0.7,0.72
		c-0.31,0.18-0.7,0.27-1.17,0.27c-0.56,0-1.02-0.13-1.36-0.38C90.07,184.31,89.91,183.93,89.92,183.43L89.92,183.43z M90.58,180.62
		c0,0.61,0.12,1.06,0.36,1.34c0.24,0.28,0.54,0.42,0.91,0.42c0.36,0,0.67-0.14,0.92-0.42s0.38-0.72,0.38-1.31
		c0-0.57-0.13-1.01-0.39-1.3c-0.25-0.29-0.55-0.44-0.91-0.44c-0.35,0-0.66,0.15-0.91,0.44C90.7,179.63,90.58,180.06,90.58,180.62
		L90.58,180.62z"/>
	<path d="M40.57,101.96h-9.12v3.82h8.86c1.92,0,2.49,0.85,2.49,1.91c0,1.09-0.57,1.94-2.49,1.94l-8.86,0v8.55h4.4v-4.72h4.72
		c4,0,6.63-2.53,6.63-5.76C47.2,104.46,44.57,101.96,40.57,101.96L40.57,101.96z"/>
	<polygon points="51.39,118.18 66,118.18 66,114.36 55.79,114.36 55.79,111.8 62.74,111.8 62.74,107.98 55.79,107.98 55.79,105.78 
		66,105.78 66,101.96 51.39,101.96 51.39,118.18 	"/>
	<polygon points="70.81,118.18 75.21,118.18 75.21,111.8 82.16,111.8 82.16,107.98 75.21,107.98 75.21,105.78 85.42,105.78 
		85.42,101.96 70.81,101.96 70.81,118.18 	"/>
	<path d="M97.13,105.47c1.52,0,2.8,0.57,3.75,1.64l3.54-2.47c-1.95-2.04-4.61-2.99-7.3-2.99c-5.32,0-9.58,3.67-9.58,8.42
		c0,4.76,4.26,8.43,9.58,8.43c2.67,0,5.32-0.94,7.27-2.96l-3.57-2.3c-0.92,0.9-2.24,1.44-3.7,1.44c-2.63,0-5.03-2.04-5.03-4.61
		C92.09,107.51,94.5,105.47,97.13,105.47L97.13,105.47z"/>
	<path d="M74.72,79.59V72.2h10.45L71.25,43.73l-6.54,12.42c0.18,0.91,0.27,1.85,0.27,2.81c0,5.66-3.18,10.59-7.87,13.16l-0.25,0.08
		h10.9v7.39H74.72L74.72,79.59z"/>
	<path d="M45.51,71.3v8.51h6.96v-8.38c5.55-1.42,9.64-6.36,9.64-12.25c0-6.99-5.77-12.66-12.88-12.66
		c-7.12,0-12.88,5.67-12.88,12.66C36.34,64.9,40.2,69.73,45.51,71.3L45.51,71.3z"/>
	<path d="M42.1,45.33c0.7-0.36,1.42-0.67,2.17-0.93c7.03-7.26,16.8-11.99,26.55-11.99c15.39,0,25.11,11.82,22.44,26.76l6.15-5.74
		l4.11,4.56c2.06-16.87-9.43-29.96-27.25-29.96c-12.92,0-25.87,6.89-34.36,17.11c0,0-0.05,0.07,0.02,0.15
		C42.02,45.38,42.1,45.33,42.1,45.33L42.1,45.33z"/>
	<path d="M59.72,96.03c18.96,0,37.99-14.83,42.88-33.26l-3.98-4.42l-6.9,6.43c-5.28,14.04-20.1,24.88-34.84,24.88
		c-15.21,0-24.87-11.53-22.54-26.21c-0.27-0.94-0.46-1.93-0.55-2.94c0,0,0.01-0.07-0.09-0.06c-0.06,0-0.08,0.06-0.08,0.06
		c-0.14,0.51-0.28,1.01-0.4,1.52C28.65,80.82,40.51,96.03,59.72,96.03L59.72,96.03z"/>
	<polygon points="103.9,98.52 106.64,98.52 106.64,99.24 105.72,99.24 105.72,101.43 104.82,101.43 104.82,99.24 103.9,99.24 
		103.9,98.52 	"/>
	<polygon points="107.03,98.52 108.23,98.52 108.67,100.29 109.11,98.52 110.3,98.52 110.3,101.43 109.56,101.43 109.56,99.21 
		109,101.43 108.33,101.43 107.77,99.21 107.77,101.43 107.03,101.43 107.03,98.52 	"/>
</g>
</svg>
