<?xml version="1.0" encoding="utf-8"?>
<!-- Generator: Adobe Illustrator 23.0.3, SVG Export Plug-In . SVG Version: 6.00 Build 0)  -->
<svg version="1.1" id="Шар_1" xmlns="http://www.w3.org/2000/svg" xmlns:xlink="http://www.w3.org/1999/xlink" x="0px" y="0px"
	 viewBox="0 0 133.62 221.34" style="enable-background:new 0 0 133.62 221.34;" xml:space="preserve">
<style type="text/css">
	.st0{fill:#FFFFFF;}
	.st1{clip-path:url(#SVGID_2_);fill:none;stroke:#000000;stroke-width:4;stroke-linecap:square;stroke-miterlimit:10;}
</style>
<g>
	<path class="st0" d="M7.99,18.38v186c0,4.97,4.03,9,9,9h99c4.97,0,9-4.03,9-9v-186c0-4.97-4.03-9-9-9h-99
		C12.02,9.38,7.99,13.41,7.99,18.38L7.99,18.38z"/>
	<g>
		<defs>
			<rect id="SVGID_1_" x="5.99" y="7.34" width="121.08" height="208.08"/>
		</defs>
		<clipPath id="SVGID_2_">
			<use xlink:href="#SVGID_1_"  style="overflow:visible;"/>
		</clipPath>
		<path class="st1" d="M7.99,19.38v184c0,5.52,4.48,10,10,10h97c5.52,0,10-4.48,10-10v-184c0-5.52-4.48-10-10-10h-97
			C12.47,9.38,7.99,13.86,7.99,19.38L7.99,19.38z"/>
	</g>
	<path d="M30.68,131.38v-6.44h2.44c0.43,0,0.76,0.02,0.98,0.06c0.31,0.05,0.57,0.15,0.78,0.3c0.22,0.15,0.39,0.35,0.52,0.63
		c0.14,0.26,0.2,0.55,0.2,0.87c0,0.55-0.18,1.02-0.53,1.39c-0.34,0.38-0.97,0.56-1.88,0.56h-1.66v2.63H30.68L30.68,131.38z
		 M31.54,128h1.67c0.54,0,0.93-0.1,1.16-0.31c0.24-0.21,0.36-0.49,0.36-0.86c0-0.27-0.07-0.5-0.2-0.69
		c-0.14-0.2-0.32-0.33-0.55-0.39c-0.14-0.04-0.4-0.06-0.8-0.06h-1.64V128L31.54,128z M36.71,131.38v-6.44h4.66v0.75h-3.81v1.98h3.56
		v0.75h-3.56v2.19h3.95v0.77H36.71L36.71,131.38z M42.73,131.38v-6.44h4.34v0.75h-3.48v2h3.02v0.77h-3.02v2.92H42.73L42.73,131.38z
		 M52.79,129.11l0.84,0.22c-0.18,0.7-0.5,1.23-0.97,1.61c-0.46,0.36-1.03,0.55-1.7,0.55c-0.69,0-1.25-0.14-1.69-0.42
		s-0.77-0.69-1-1.22c-0.22-0.54-0.33-1.12-0.33-1.73c0-0.68,0.13-1.27,0.38-1.77c0.26-0.5,0.63-0.88,1.09-1.13
		c0.48-0.26,1-0.39,1.56-0.39c0.65,0,1.19,0.17,1.63,0.5c0.45,0.32,0.76,0.78,0.92,1.38l-0.84,0.19c-0.15-0.47-0.36-0.81-0.64-1.02
		c-0.28-0.22-0.64-0.33-1.08-0.33c-0.49,0-0.9,0.12-1.23,0.36c-0.33,0.24-0.57,0.56-0.7,0.97c-0.14,0.4-0.2,0.8-0.2,1.22
		c0,0.55,0.08,1.04,0.23,1.45c0.17,0.41,0.42,0.71,0.75,0.91s0.7,0.3,1.09,0.3c0.48,0,0.88-0.14,1.2-0.41
		C52.44,130.07,52.67,129.65,52.79,129.11L52.79,129.11z M53.99,131.49l1.88-6.66h0.63l-1.86,6.66H53.99L53.99,131.49z
		 M56.87,128.21c0-0.76,0.08-1.38,0.23-1.84s0.39-0.83,0.69-1.08c0.31-0.25,0.7-0.38,1.17-0.38c0.35,0,0.66,0.07,0.92,0.22
		c0.26,0.14,0.47,0.33,0.64,0.59c0.17,0.26,0.3,0.58,0.39,0.95c0.1,0.38,0.16,0.89,0.16,1.53c0,0.75-0.08,1.36-0.23,1.83
		c-0.16,0.46-0.39,0.82-0.7,1.08c-0.3,0.25-0.69,0.38-1.17,0.38c-0.61,0-1.1-0.22-1.45-0.67C57.08,130.29,56.87,129.42,56.87,128.21
		L56.87,128.21z M57.68,128.21c0,1.05,0.12,1.76,0.36,2.11c0.25,0.34,0.56,0.52,0.92,0.52c0.36,0,0.67-0.17,0.92-0.52
		c0.25-0.35,0.38-1.06,0.38-2.11c0-1.06-0.13-1.77-0.38-2.11c-0.25-0.35-0.56-0.53-0.92-0.53c-0.36,0-0.66,0.15-0.88,0.45
		C57.82,126.42,57.68,127.14,57.68,128.21L57.68,128.21z M64.86,131.38h-0.8v-5.05c-0.19,0.19-0.44,0.38-0.75,0.56
		c-0.31,0.18-0.59,0.31-0.83,0.39v-0.77c0.44-0.2,0.82-0.44,1.16-0.73c0.33-0.3,0.57-0.59,0.7-0.88h0.52V131.38L64.86,131.38z
		 M66.79,129.44v-0.8h2.44v0.8H66.79L66.79,129.44z M69.88,129.68l0.8-0.11c0.09,0.45,0.24,0.77,0.45,0.97
		c0.22,0.2,0.49,0.3,0.81,0.3c0.36,0,0.67-0.12,0.92-0.38c0.26-0.26,0.39-0.58,0.39-0.97c0-0.36-0.12-0.66-0.36-0.89
		c-0.23-0.24-0.53-0.36-0.89-0.36c-0.16,0-0.34,0.03-0.56,0.09l0.09-0.7c0.05,0.01,0.09,0.02,0.13,0.02c0.33,0,0.64-0.09,0.91-0.27
		c0.27-0.18,0.41-0.45,0.41-0.81c0-0.29-0.1-0.53-0.3-0.72c-0.2-0.19-0.45-0.28-0.77-0.28c-0.3,0-0.56,0.1-0.77,0.3
		c-0.2,0.19-0.33,0.47-0.39,0.86l-0.8-0.14c0.1-0.53,0.32-0.94,0.66-1.23c0.34-0.29,0.77-0.44,1.28-0.44c0.35,0,0.68,0.08,0.97,0.23
		c0.3,0.15,0.53,0.35,0.69,0.61s0.23,0.54,0.23,0.83c0,0.28-0.08,0.54-0.23,0.77c-0.15,0.23-0.36,0.41-0.66,0.55
		c0.39,0.08,0.68,0.27,0.89,0.55c0.21,0.27,0.31,0.61,0.31,1.03c0,0.56-0.21,1.04-0.63,1.44c-0.41,0.39-0.92,0.58-1.55,0.58
		c-0.56,0-1.03-0.17-1.41-0.5C70.14,130.65,69.93,130.22,69.88,129.68L69.88,129.68z M77.87,131.38h-0.8v-5.05
		c-0.19,0.19-0.44,0.38-0.75,0.56c-0.31,0.18-0.59,0.31-0.83,0.39v-0.77c0.44-0.2,0.82-0.44,1.16-0.73c0.33-0.3,0.57-0.59,0.7-0.88
		h0.52V131.38L77.87,131.38z M79.79,129.44v-0.8h2.44v0.8H79.79L79.79,129.44z M85.87,131.38h-0.8v-5.05
		c-0.19,0.19-0.44,0.38-0.75,0.56c-0.31,0.18-0.59,0.31-0.83,0.39v-0.77c0.44-0.2,0.82-0.44,1.16-0.73c0.33-0.3,0.57-0.59,0.7-0.88
		h0.52V131.38L85.87,131.38z M87.89,128.21c0-0.76,0.08-1.38,0.23-1.84s0.39-0.83,0.69-1.08c0.31-0.25,0.7-0.38,1.17-0.38
		c0.35,0,0.66,0.07,0.92,0.22c0.26,0.14,0.47,0.33,0.64,0.59c0.17,0.26,0.3,0.58,0.39,0.95c0.1,0.38,0.16,0.89,0.16,1.53
		c0,0.75-0.08,1.36-0.23,1.83c-0.16,0.46-0.39,0.82-0.7,1.08c-0.3,0.25-0.69,0.38-1.17,0.38c-0.61,0-1.1-0.22-1.45-0.67
		C88.1,130.29,87.89,129.42,87.89,128.21L87.89,128.21z M88.7,128.21c0,1.05,0.12,1.76,0.36,2.11c0.25,0.34,0.56,0.52,0.92,0.52
		c0.36,0,0.67-0.17,0.92-0.52c0.25-0.35,0.38-1.06,0.38-2.11c0-1.06-0.13-1.77-0.38-2.11c-0.25-0.35-0.56-0.53-0.92-0.53
		c-0.36,0-0.66,0.15-0.88,0.45C88.84,126.42,88.7,127.14,88.7,128.21L88.7,128.21z M95.88,131.38h-0.8v-5.05
		c-0.19,0.19-0.44,0.38-0.75,0.56c-0.31,0.18-0.59,0.31-0.83,0.39v-0.77c0.44-0.2,0.82-0.44,1.16-0.73c0.33-0.3,0.57-0.59,0.7-0.88
		h0.52V131.38L95.88,131.38z M97.9,128.21c0-0.76,0.08-1.38,0.23-1.84c0.16-0.47,0.39-0.83,0.69-1.08c0.31-0.25,0.7-0.38,1.17-0.38
		c0.35,0,0.66,0.07,0.92,0.22c0.26,0.14,0.47,0.33,0.64,0.59c0.17,0.26,0.3,0.58,0.39,0.95c0.1,0.38,0.16,0.89,0.16,1.53
		c0,0.75-0.08,1.36-0.23,1.83c-0.16,0.46-0.39,0.82-0.7,1.08c-0.3,0.25-0.69,0.38-1.17,0.38c-0.61,0-1.1-0.22-1.45-0.67
		C98.11,130.29,97.9,129.42,97.9,128.21L97.9,128.21z M98.71,128.21c0,1.05,0.12,1.76,0.36,2.11c0.25,0.34,0.56,0.52,0.92,0.52
		c0.36,0,0.67-0.17,0.92-0.52c0.25-0.35,0.38-1.06,0.38-2.11c0-1.06-0.12-1.77-0.38-2.11c-0.25-0.35-0.56-0.53-0.92-0.53
		c-0.36,0-0.66,0.15-0.88,0.45C98.85,126.42,98.71,127.14,98.71,128.21L98.71,128.21z"/>
	<path d="M41.69,146.94h5.06v6.44H45.9v-5.69h-3.34v5.69h-0.86V146.94L41.69,146.94z M48.05,155.16v-6.45h0.72v0.61
		c0.17-0.24,0.35-0.42,0.56-0.53c0.22-0.11,0.48-0.17,0.8-0.17c0.4,0,0.74,0.1,1.05,0.31c0.3,0.2,0.53,0.48,0.69,0.86
		s0.23,0.78,0.23,1.22c0,0.48-0.09,0.91-0.27,1.3c-0.17,0.39-0.41,0.68-0.73,0.89c-0.32,0.2-0.67,0.3-1.03,0.3
		c-0.26,0-0.49-0.06-0.7-0.17c-0.21-0.11-0.38-0.26-0.52-0.42v2.27H48.05L48.05,155.16z M48.77,151.07c0,0.6,0.12,1.05,0.36,1.34
		c0.25,0.28,0.55,0.42,0.89,0.42s0.64-0.15,0.89-0.44c0.26-0.3,0.39-0.77,0.39-1.39c0-0.59-0.13-1.04-0.38-1.33
		c-0.24-0.3-0.53-0.45-0.88-0.45c-0.33,0-0.63,0.16-0.89,0.48C48.9,150.02,48.77,150.47,48.77,151.07L48.77,151.07z M52.76,151.05
		c0-0.86,0.24-1.51,0.72-1.92c0.41-0.34,0.9-0.52,1.47-0.52c0.65,0,1.17,0.21,1.58,0.63s0.61,0.99,0.61,1.73
		c0,0.6-0.09,1.08-0.28,1.42c-0.18,0.34-0.44,0.61-0.78,0.81c-0.34,0.19-0.72,0.28-1.13,0.28c-0.66,0-1.19-0.21-1.59-0.63
		C52.96,152.44,52.76,151.83,52.76,151.05L52.76,151.05z M53.57,151.05c0,0.59,0.13,1.04,0.39,1.34c0.26,0.29,0.59,0.44,0.98,0.44
		s0.72-0.15,0.98-0.44c0.26-0.3,0.39-0.76,0.39-1.38c0-0.57-0.13-1.01-0.39-1.31s-0.59-0.45-0.98-0.45s-0.72,0.15-0.98,0.45
		C53.7,150,53.57,150.45,53.57,151.05L53.57,151.05z M58.69,148.71h3.25v4.02h0.5v1.98H61.8v-1.33h-3.67v1.33h-0.66v-1.98h0.42
		C58.44,151.97,58.71,150.63,58.69,148.71L58.69,148.71z M59.35,149.36c-0.06,1.52-0.3,2.64-0.7,3.36h2.52v-3.36H59.35L59.35,149.36
		z M63.32,148.71h1.83c0.45,0,0.78,0.04,1,0.13c0.22,0.07,0.41,0.21,0.56,0.41s0.23,0.44,0.23,0.72c0,0.22-0.05,0.41-0.14,0.58
		s-0.23,0.3-0.41,0.41c0.22,0.07,0.4,0.21,0.55,0.42c0.15,0.2,0.22,0.43,0.22,0.7c-0.03,0.45-0.19,0.78-0.48,1
		c-0.28,0.21-0.7,0.31-1.25,0.31h-2.11V148.71L63.32,148.71z M64.11,150.68h0.84c0.33,0,0.56-0.02,0.69-0.05
		c0.13-0.04,0.24-0.11,0.34-0.22c0.1-0.1,0.16-0.23,0.16-0.39c0-0.24-0.09-0.41-0.27-0.5c-0.18-0.1-0.47-0.16-0.89-0.16h-0.88
		V150.68L64.11,150.68z M64.11,152.72h1.05c0.45,0,0.76-0.05,0.92-0.16c0.17-0.1,0.25-0.28,0.25-0.53c0-0.15-0.05-0.28-0.14-0.41
		c-0.09-0.14-0.22-0.22-0.38-0.25s-0.41-0.05-0.75-0.05h-0.95V152.72L64.11,152.72z M68.1,148.71h0.8v3.56l2.19-3.56h0.86v4.67h-0.8
		v-3.53l-2.19,3.53H68.1V148.71L68.1,148.71z M73.12,148.71h2.69v0.66h-1.89v4.02h-0.8V148.71L73.12,148.71z M79.45,152.8
		c-0.29,0.25-0.57,0.43-0.84,0.53c-0.27,0.1-0.56,0.16-0.88,0.16c-0.51,0-0.91-0.13-1.19-0.38c-0.27-0.25-0.41-0.57-0.41-0.97
		c0-0.23,0.05-0.44,0.16-0.63c0.1-0.19,0.24-0.34,0.41-0.45c0.17-0.11,0.35-0.2,0.56-0.27c0.16-0.03,0.39-0.07,0.7-0.11
		c0.65-0.07,1.12-0.17,1.42-0.28c0-0.1,0-0.17,0-0.2c0-0.32-0.07-0.55-0.22-0.67c-0.21-0.19-0.51-0.28-0.91-0.28
		c-0.38,0-0.65,0.07-0.83,0.2c-0.18,0.13-0.31,0.35-0.39,0.69l-0.77-0.09c0.06-0.33,0.17-0.6,0.33-0.8c0.17-0.21,0.4-0.36,0.7-0.47
		c0.31-0.11,0.67-0.17,1.06-0.17c0.41,0,0.73,0.05,0.97,0.14c0.25,0.09,0.43,0.21,0.55,0.36c0.13,0.14,0.21,0.31,0.25,0.53
		c0.03,0.14,0.05,0.38,0.05,0.72v1.06c0,0.73,0.02,1.19,0.05,1.39s0.1,0.39,0.2,0.56h-0.83C79.53,153.21,79.47,153.02,79.45,152.8
		L79.45,152.8z M79.39,151.04c-0.29,0.11-0.72,0.21-1.3,0.3c-0.32,0.05-0.55,0.11-0.69,0.17c-0.14,0.05-0.24,0.14-0.31,0.25
		c-0.07,0.11-0.11,0.24-0.11,0.38c0,0.21,0.08,0.39,0.23,0.53c0.16,0.14,0.39,0.2,0.7,0.2c0.3,0,0.57-0.07,0.81-0.2
		c0.24-0.14,0.42-0.32,0.53-0.55c0.08-0.18,0.13-0.44,0.13-0.78V151.04L79.39,151.04z M84.6,151.88l0.83,0.09
		c-0.14,0.48-0.38,0.85-0.73,1.13c-0.34,0.26-0.79,0.39-1.33,0.39c-0.68,0-1.22-0.21-1.63-0.63c-0.4-0.43-0.59-1.02-0.59-1.78
		c0-0.78,0.2-1.39,0.61-1.81c0.41-0.44,0.93-0.66,1.58-0.66c0.63,0,1.13,0.21,1.52,0.64c0.4,0.42,0.59,1.01,0.59,1.78
		c0,0.05,0,0.13,0,0.22h-3.48c0.03,0.51,0.18,0.9,0.44,1.17c0.26,0.27,0.59,0.41,0.98,0.41c0.29,0,0.54-0.07,0.73-0.22
		C84.32,152.46,84.49,152.21,84.6,151.88L84.6,151.88z M82.01,150.6h2.61c-0.03-0.4-0.13-0.69-0.3-0.89
		c-0.25-0.3-0.58-0.45-0.98-0.45c-0.36,0-0.67,0.13-0.92,0.38C82.17,149.87,82.04,150.19,82.01,150.6L82.01,150.6z M86.43,148.71
		h1.23l1.23,3.73l1.36-3.73h1.14v4.67h-0.8v-3.75l-1.38,3.75h-0.72l-1.3-3.94v3.94h-0.78V148.71L86.43,148.71z"/>
	<path d="M41.55,167.18l-0.09-0.73c0.18,0.04,0.33,0.06,0.45,0.06c0.18,0,0.32-0.03,0.42-0.09c0.1-0.05,0.19-0.13,0.27-0.23
		c0.04-0.08,0.12-0.28,0.23-0.59c0.02-0.04,0.05-0.1,0.08-0.19l-1.78-4.69h0.86l0.97,2.7c0.13,0.34,0.24,0.7,0.34,1.08
		c0.08-0.35,0.19-0.71,0.31-1.06l1-2.72h0.8l-1.78,4.75c-0.19,0.51-0.33,0.86-0.44,1.06c-0.15,0.26-0.31,0.45-0.48,0.56
		c-0.18,0.13-0.4,0.19-0.66,0.19C41.91,167.27,41.74,167.24,41.55,167.18L41.55,167.18z M49.13,163.68l0.78,0.09
		c-0.08,0.54-0.3,0.96-0.66,1.27s-0.79,0.45-1.3,0.45c-0.64,0-1.15-0.21-1.53-0.63s-0.58-1.02-0.58-1.8c0-0.51,0.08-0.95,0.25-1.33
		c0.17-0.38,0.42-0.66,0.75-0.84c0.34-0.19,0.72-0.28,1.13-0.28c0.5,0,0.91,0.13,1.23,0.39c0.32,0.25,0.53,0.61,0.63,1.08
		l-0.77,0.13c-0.07-0.31-0.2-0.55-0.39-0.7c-0.19-0.17-0.41-0.25-0.67-0.25c-0.41,0-0.73,0.15-0.98,0.44
		c-0.24,0.28-0.36,0.73-0.36,1.34c0,0.64,0.12,1.09,0.36,1.38s0.55,0.42,0.94,0.42c0.31,0,0.57-0.09,0.78-0.28
		S49.08,164.07,49.13,163.68L49.13,163.68z M50.16,160.71h3.78v0.66h-1.5v4.02h-0.78v-4.02h-1.5V160.71L50.16,160.71z M54.41,163.05
		c0-0.86,0.24-1.51,0.72-1.92c0.41-0.34,0.9-0.52,1.47-0.52c0.65,0,1.17,0.21,1.58,0.63s0.61,0.99,0.61,1.73
		c0,0.6-0.09,1.08-0.28,1.42c-0.18,0.34-0.44,0.61-0.78,0.81c-0.34,0.19-0.72,0.28-1.13,0.28c-0.66,0-1.19-0.21-1.59-0.63
		C54.61,164.44,54.41,163.83,54.41,163.05L54.41,163.05z M55.22,163.05c0,0.59,0.13,1.04,0.39,1.34c0.26,0.29,0.59,0.44,0.98,0.44
		s0.72-0.15,0.98-0.44c0.26-0.3,0.39-0.76,0.39-1.38c0-0.57-0.13-1.01-0.39-1.31s-0.59-0.45-0.98-0.45s-0.72,0.15-0.98,0.45
		C55.35,162,55.22,162.45,55.22,163.05L55.22,163.05z M59.71,160.71h0.8v3.56l2.19-3.56h0.86v4.67h-0.8v-3.53l-2.19,3.53h-0.86
		V160.71L59.71,160.71z M62.38,158.94h0.53c-0.04,0.36-0.18,0.65-0.41,0.84c-0.22,0.2-0.52,0.3-0.89,0.3s-0.68-0.09-0.91-0.28
		c-0.22-0.2-0.35-0.48-0.39-0.86h0.55c0.03,0.2,0.11,0.35,0.23,0.45c0.13,0.09,0.29,0.14,0.5,0.14c0.23,0,0.41-0.05,0.53-0.14
		S62.34,159.15,62.38,158.94L62.38,158.94z M64.44,160.71h0.8v0.89c0,0.38,0.02,0.65,0.06,0.83c0.05,0.17,0.16,0.32,0.33,0.45
		c0.18,0.13,0.4,0.19,0.66,0.19c0.3,0,0.69-0.08,1.16-0.23v-2.13h0.8v4.67h-0.8v-1.88c-0.48,0.15-0.93,0.22-1.36,0.22
		c-0.35,0-0.67-0.09-0.94-0.27c-0.27-0.18-0.46-0.4-0.56-0.66c-0.09-0.26-0.14-0.55-0.14-0.88V160.71L64.44,160.71z M69.43,160.71
		h0.8v3.56l2.19-3.56h0.86v4.67h-0.8v-3.53l-2.19,3.53h-0.86V160.71L69.43,160.71z M74.46,160.71h1.83c0.45,0,0.78,0.04,1,0.13
		c0.22,0.07,0.41,0.21,0.56,0.41s0.23,0.44,0.23,0.72c0,0.22-0.05,0.41-0.14,0.58s-0.23,0.3-0.41,0.41c0.22,0.07,0.4,0.21,0.55,0.42
		c0.15,0.2,0.22,0.43,0.22,0.7c-0.03,0.45-0.19,0.78-0.48,1c-0.28,0.21-0.7,0.31-1.25,0.31h-2.11V160.71L74.46,160.71z
		 M75.25,162.68h0.84c0.33,0,0.56-0.02,0.69-0.05c0.13-0.04,0.24-0.11,0.34-0.22c0.1-0.1,0.16-0.23,0.16-0.39
		c0-0.24-0.09-0.41-0.27-0.5c-0.18-0.1-0.47-0.16-0.89-0.16h-0.88V162.68L75.25,162.68z M75.25,164.72h1.05
		c0.45,0,0.76-0.05,0.92-0.16c0.17-0.1,0.25-0.28,0.25-0.53c0-0.15-0.05-0.28-0.14-0.41c-0.09-0.14-0.22-0.22-0.38-0.25
		s-0.41-0.05-0.75-0.05h-0.95V164.72L75.25,164.72z M78.94,163.05c0-0.86,0.24-1.51,0.72-1.92c0.41-0.34,0.9-0.52,1.47-0.52
		c0.65,0,1.17,0.21,1.58,0.63s0.61,0.99,0.61,1.73c0,0.6-0.09,1.08-0.28,1.42c-0.18,0.34-0.44,0.61-0.78,0.81
		c-0.34,0.19-0.72,0.28-1.13,0.28c-0.66,0-1.19-0.21-1.59-0.63C79.14,164.44,78.94,163.83,78.94,163.05L78.94,163.05z M79.75,163.05
		c0,0.59,0.13,1.04,0.39,1.34c0.26,0.29,0.59,0.44,0.98,0.44c0.4,0,0.72-0.15,0.98-0.44c0.26-0.3,0.39-0.76,0.39-1.38
		c0-0.57-0.13-1.01-0.39-1.31c-0.26-0.3-0.59-0.45-0.98-0.45c-0.4,0-0.72,0.15-0.98,0.45C79.88,162,79.75,162.45,79.75,163.05
		L79.75,163.05z M87.43,163.88l0.83,0.09c-0.14,0.48-0.38,0.85-0.73,1.13c-0.34,0.26-0.79,0.39-1.33,0.39
		c-0.68,0-1.22-0.21-1.63-0.63c-0.4-0.43-0.59-1.02-0.59-1.78c0-0.78,0.2-1.39,0.61-1.81c0.41-0.44,0.93-0.66,1.58-0.66
		c0.63,0,1.13,0.21,1.52,0.64c0.4,0.42,0.59,1.01,0.59,1.78c0,0.05,0,0.13,0,0.22h-3.48c0.03,0.51,0.18,0.9,0.44,1.17
		c0.26,0.27,0.59,0.41,0.98,0.41c0.29,0,0.54-0.07,0.73-0.22C87.15,164.46,87.32,164.21,87.43,163.88L87.43,163.88z M84.84,162.6
		h2.61c-0.03-0.4-0.13-0.69-0.3-0.89c-0.25-0.3-0.58-0.45-0.98-0.45c-0.36,0-0.67,0.13-0.92,0.38
		C85,161.87,84.87,162.19,84.84,162.6L84.84,162.6z"/>
	<path d="M25.55,179.18l-0.09-0.73c0.18,0.04,0.33,0.06,0.45,0.06c0.18,0,0.32-0.03,0.42-0.09c0.1-0.05,0.19-0.13,0.27-0.23
		c0.04-0.08,0.12-0.28,0.23-0.59c0.02-0.04,0.05-0.1,0.08-0.19l-1.78-4.69h0.86l0.97,2.7c0.13,0.34,0.24,0.7,0.34,1.08
		c0.08-0.35,0.19-0.71,0.31-1.06l1-2.72h0.8l-1.78,4.75c-0.19,0.51-0.33,0.86-0.44,1.06c-0.15,0.26-0.31,0.45-0.48,0.56
		c-0.18,0.13-0.4,0.19-0.66,0.19C25.91,179.27,25.74,179.24,25.55,179.18L25.55,179.18z M30.08,172.71h3.69v4.67h-0.8v-4.02h-2.09
		v4.02h-0.8V172.71L30.08,172.71z M34.96,179.16v-6.45h0.72v0.61c0.17-0.24,0.35-0.42,0.56-0.53c0.22-0.11,0.48-0.17,0.8-0.17
		c0.4,0,0.74,0.1,1.05,0.31c0.3,0.2,0.53,0.48,0.69,0.86S39,174.57,39,175c0,0.48-0.09,0.91-0.27,1.3
		c-0.17,0.39-0.41,0.68-0.73,0.89c-0.32,0.2-0.67,0.3-1.03,0.3c-0.26,0-0.49-0.06-0.7-0.17s-0.38-0.26-0.52-0.42v2.27H34.96
		L34.96,179.16z M35.68,175.07c0,0.6,0.12,1.05,0.36,1.34c0.25,0.28,0.55,0.42,0.89,0.42s0.64-0.15,0.89-0.44
		c0.26-0.3,0.39-0.77,0.39-1.39c0-0.59-0.13-1.04-0.38-1.33c-0.24-0.3-0.53-0.45-0.88-0.45c-0.33,0-0.63,0.16-0.89,0.48
		C35.81,174.02,35.68,174.47,35.68,175.07L35.68,175.07z M43.01,176.8c-0.29,0.25-0.57,0.43-0.84,0.53
		c-0.27,0.1-0.56,0.16-0.88,0.16c-0.51,0-0.91-0.13-1.19-0.38c-0.27-0.25-0.41-0.57-0.41-0.97c0-0.23,0.05-0.44,0.16-0.63
		s0.24-0.34,0.41-0.45c0.17-0.11,0.35-0.2,0.56-0.27c0.16-0.03,0.39-0.07,0.7-0.11c0.65-0.07,1.12-0.17,1.42-0.28
		c0-0.1,0-0.17,0-0.2c0-0.32-0.07-0.55-0.22-0.67c-0.21-0.19-0.51-0.28-0.91-0.28c-0.38,0-0.65,0.07-0.83,0.2
		c-0.18,0.13-0.31,0.35-0.39,0.69l-0.77-0.09c0.06-0.33,0.17-0.6,0.33-0.8c0.17-0.21,0.4-0.36,0.7-0.47
		c0.31-0.11,0.67-0.17,1.06-0.17c0.41,0,0.73,0.05,0.97,0.14c0.25,0.09,0.43,0.21,0.55,0.36c0.13,0.14,0.21,0.31,0.25,0.53
		c0.03,0.14,0.05,0.38,0.05,0.72v1.06c0,0.73,0.02,1.19,0.05,1.39s0.1,0.39,0.2,0.56h-0.83C43.08,177.21,43.03,177.02,43.01,176.8
		L43.01,176.8z M42.95,175.04c-0.29,0.11-0.72,0.21-1.3,0.3c-0.32,0.05-0.55,0.11-0.69,0.17c-0.14,0.05-0.24,0.14-0.31,0.25
		c-0.07,0.11-0.11,0.24-0.11,0.38c0,0.21,0.08,0.39,0.23,0.53c0.16,0.14,0.39,0.2,0.7,0.2c0.3,0,0.57-0.07,0.81-0.2
		c0.24-0.14,0.42-0.32,0.53-0.55c0.08-0.18,0.13-0.44,0.13-0.78V175.04L42.95,175.04z M44.97,172.71h1.83c0.45,0,0.78,0.04,1,0.13
		c0.22,0.07,0.41,0.21,0.56,0.41s0.23,0.44,0.23,0.72c0,0.22-0.05,0.41-0.14,0.58s-0.23,0.3-0.41,0.41c0.22,0.07,0.4,0.21,0.55,0.42
		c0.15,0.2,0.22,0.43,0.22,0.7c-0.03,0.45-0.19,0.78-0.48,1c-0.28,0.21-0.7,0.31-1.25,0.31h-2.11V172.71L44.97,172.71z
		 M45.77,174.68h0.84c0.33,0,0.56-0.02,0.69-0.05c0.13-0.04,0.24-0.11,0.34-0.22c0.1-0.1,0.16-0.23,0.16-0.39
		c0-0.24-0.09-0.41-0.27-0.5c-0.18-0.1-0.47-0.16-0.89-0.16h-0.88V174.68L45.77,174.68z M45.77,176.72h1.05
		c0.45,0,0.76-0.05,0.92-0.16s0.25-0.28,0.25-0.53c0-0.15-0.05-0.28-0.14-0.41c-0.09-0.14-0.22-0.22-0.38-0.25s-0.41-0.05-0.75-0.05
		h-0.95V176.72L45.77,176.72z M50.14,172.71h3.67v4.67h-0.78v-4.02h-2.11v2.33c0,0.54-0.02,0.9-0.05,1.08
		c-0.03,0.17-0.13,0.32-0.3,0.45c-0.16,0.13-0.38,0.19-0.67,0.19c-0.19,0-0.4-0.01-0.64-0.03v-0.66h0.34c0.17,0,0.28-0.02,0.34-0.05
		c0.07-0.04,0.12-0.1,0.14-0.17c0.03-0.07,0.05-0.31,0.05-0.72V172.71L50.14,172.71z M58.19,175.88l0.83,0.09
		c-0.14,0.48-0.38,0.85-0.73,1.13c-0.34,0.26-0.79,0.39-1.33,0.39c-0.68,0-1.22-0.21-1.63-0.63c-0.4-0.43-0.59-1.02-0.59-1.78
		c0-0.78,0.2-1.39,0.61-1.81c0.41-0.44,0.93-0.66,1.58-0.66c0.63,0,1.13,0.21,1.52,0.64c0.4,0.42,0.59,1.01,0.59,1.78
		c0,0.05,0,0.13,0,0.22h-3.48c0.03,0.51,0.18,0.9,0.44,1.17c0.26,0.27,0.59,0.41,0.98,0.41c0.29,0,0.54-0.07,0.73-0.22
		C57.91,176.46,58.07,176.21,58.19,175.88L58.19,175.88z M55.6,174.6h2.61c-0.03-0.4-0.13-0.69-0.3-0.89
		c-0.25-0.3-0.58-0.45-0.98-0.45c-0.36,0-0.67,0.13-0.92,0.38C55.76,173.87,55.63,174.19,55.6,174.6L55.6,174.6z M60.01,172.71h0.8
		v1.95h2.19v-1.95h0.8v4.67h-0.8v-2.06H60.8v2.06h-0.8V172.71L60.01,172.71z M64.98,172.71h0.8v3.56l2.19-3.56h0.86v4.67h-0.8v-3.53
		l-2.19,3.53h-0.86V172.71L64.98,172.71z M73.19,175.88l0.83,0.09c-0.14,0.48-0.38,0.85-0.73,1.13c-0.34,0.26-0.79,0.39-1.33,0.39
		c-0.68,0-1.22-0.21-1.63-0.63c-0.4-0.43-0.59-1.02-0.59-1.78c0-0.78,0.2-1.39,0.61-1.81c0.41-0.44,0.93-0.66,1.58-0.66
		c0.63,0,1.13,0.21,1.52,0.64c0.4,0.42,0.59,1.01,0.59,1.78c0,0.05,0,0.13,0,0.22h-3.48c0.03,0.51,0.18,0.9,0.44,1.17
		c0.26,0.27,0.59,0.41,0.98,0.41c0.29,0,0.54-0.07,0.73-0.22C72.92,176.46,73.08,176.21,73.19,175.88L73.19,175.88z M70.6,174.6
		h2.61c-0.03-0.4-0.13-0.69-0.3-0.89c-0.25-0.3-0.58-0.45-0.98-0.45c-0.36,0-0.67,0.13-0.92,0.38
		C70.76,173.87,70.63,174.19,70.6,174.6L70.6,174.6z M77.9,172.71h3.67v4.67h-0.78v-4.02h-2.11v2.33c0,0.54-0.02,0.9-0.05,1.08
		c-0.03,0.17-0.13,0.32-0.3,0.45c-0.16,0.13-0.38,0.19-0.67,0.19c-0.19,0-0.4-0.01-0.64-0.03v-0.66h0.34c0.17,0,0.28-0.02,0.34-0.05
		c0.07-0.04,0.12-0.1,0.14-0.17c0.03-0.07,0.05-0.31,0.05-0.72V172.71L77.9,172.71z M85.95,175.88l0.83,0.09
		c-0.14,0.48-0.38,0.85-0.73,1.13c-0.34,0.26-0.79,0.39-1.33,0.39c-0.68,0-1.22-0.21-1.63-0.63c-0.4-0.43-0.59-1.02-0.59-1.78
		c0-0.78,0.2-1.39,0.61-1.81c0.41-0.44,0.93-0.66,1.58-0.66c0.63,0,1.13,0.21,1.52,0.64c0.4,0.42,0.59,1.01,0.59,1.78
		c0,0.05,0,0.13,0,0.22h-3.48c0.03,0.51,0.18,0.9,0.44,1.17c0.26,0.27,0.59,0.41,0.98,0.41c0.29,0,0.54-0.07,0.73-0.22
		C85.67,176.46,85.83,176.21,85.95,175.88L85.95,175.88z M83.36,174.6h2.61c-0.03-0.4-0.13-0.69-0.3-0.89
		c-0.25-0.3-0.58-0.45-0.98-0.45c-0.36,0-0.67,0.13-0.92,0.38C83.52,173.87,83.39,174.19,83.36,174.6L83.36,174.6z M90.81,175.68
		l0.78,0.09c-0.08,0.54-0.3,0.96-0.66,1.27c-0.35,0.3-0.79,0.45-1.3,0.45c-0.64,0-1.15-0.21-1.53-0.63
		c-0.39-0.42-0.58-1.02-0.58-1.8c0-0.51,0.08-0.95,0.25-1.33c0.17-0.38,0.42-0.66,0.75-0.84c0.34-0.19,0.72-0.28,1.13-0.28
		c0.5,0,0.91,0.13,1.23,0.39c0.32,0.25,0.53,0.61,0.63,1.08l-0.77,0.13c-0.07-0.31-0.2-0.55-0.39-0.7
		c-0.19-0.17-0.41-0.25-0.67-0.25c-0.41,0-0.73,0.15-0.98,0.44c-0.24,0.28-0.36,0.73-0.36,1.34c0,0.64,0.12,1.09,0.36,1.38
		c0.24,0.28,0.55,0.42,0.94,0.42c0.31,0,0.57-0.09,0.78-0.28C90.63,176.36,90.76,176.07,90.81,175.68L90.81,175.68z M95.31,176.8
		c-0.29,0.25-0.57,0.43-0.84,0.53c-0.27,0.1-0.56,0.16-0.88,0.16c-0.51,0-0.91-0.13-1.19-0.38c-0.27-0.25-0.41-0.57-0.41-0.97
		c0-0.23,0.05-0.44,0.16-0.63c0.1-0.19,0.24-0.34,0.41-0.45c0.17-0.11,0.35-0.2,0.56-0.27c0.16-0.03,0.39-0.07,0.7-0.11
		c0.65-0.07,1.12-0.17,1.42-0.28c0-0.1,0-0.17,0-0.2c0-0.32-0.07-0.55-0.22-0.67c-0.21-0.19-0.51-0.28-0.91-0.28
		c-0.38,0-0.65,0.07-0.83,0.2c-0.18,0.13-0.31,0.35-0.39,0.69l-0.77-0.09c0.06-0.33,0.17-0.6,0.33-0.8c0.17-0.21,0.4-0.36,0.7-0.47
		c0.31-0.11,0.67-0.17,1.06-0.17c0.41,0,0.73,0.05,0.97,0.14c0.25,0.09,0.43,0.21,0.55,0.36c0.13,0.14,0.21,0.31,0.25,0.53
		c0.03,0.14,0.05,0.38,0.05,0.72v1.06c0,0.73,0.02,1.19,0.05,1.39c0.03,0.2,0.1,0.39,0.2,0.56h-0.83
		C95.39,177.21,95.33,177.02,95.31,176.8L95.31,176.8z M95.25,175.04c-0.29,0.11-0.72,0.21-1.3,0.3c-0.32,0.05-0.55,0.11-0.69,0.17
		c-0.14,0.05-0.24,0.14-0.31,0.25c-0.07,0.11-0.11,0.24-0.11,0.38c0,0.21,0.08,0.39,0.23,0.53c0.16,0.14,0.39,0.2,0.7,0.2
		c0.3,0,0.57-0.07,0.81-0.2c0.24-0.14,0.42-0.32,0.53-0.55c0.08-0.18,0.13-0.44,0.13-0.78V175.04L95.25,175.04z M97.29,172.71h1.23
		l1.23,3.73l1.36-3.73h1.14v4.67h-0.8v-3.75l-1.38,3.75h-0.72l-1.3-3.94v3.94h-0.78V172.71L97.29,172.71z M103.46,172.71h0.8v3.56
		l2.19-3.56h0.86v4.67h-0.8v-3.53l-2.19,3.53h-0.86V172.71L103.46,172.71z"/>
	<path d="M40.44,195.38l-1.42-4.67h0.81l0.75,2.7l0.27,1c0.01-0.05,0.09-0.38,0.25-0.97l0.73-2.73h0.81l0.7,2.72l0.23,0.89
		l0.27-0.91l0.8-2.7h0.77l-1.45,4.67h-0.81l-0.75-2.8l-0.19-0.8l-0.94,3.59H40.44L40.44,195.38z M46.94,195.38l-1.42-4.67h0.81
		l0.75,2.7l0.27,1c0.01-0.05,0.09-0.38,0.25-0.97l0.73-2.73h0.81l0.7,2.72l0.23,0.89l0.27-0.91l0.8-2.7h0.77l-1.45,4.67h-0.81
		l-0.75-2.8l-0.19-0.8l-0.94,3.59H46.94L46.94,195.38z M53.44,195.38l-1.42-4.67h0.81l0.75,2.7l0.27,1
		c0.01-0.05,0.09-0.38,0.25-0.97l0.73-2.73h0.81l0.7,2.72l0.23,0.89l0.27-0.91l0.8-2.7h0.77l-1.45,4.67h-0.81l-0.75-2.8l-0.19-0.8
		l-0.94,3.59H53.44L53.44,195.38z M59.3,195.38v-0.91h0.91v0.91H59.3L59.3,195.38z M61.58,197.16v-6.45h0.72v0.61
		c0.17-0.24,0.35-0.42,0.56-0.53c0.22-0.11,0.48-0.17,0.8-0.17c0.4,0,0.74,0.1,1.05,0.31c0.3,0.2,0.53,0.48,0.69,0.86
		s0.23,0.78,0.23,1.22c0,0.48-0.09,0.91-0.27,1.3c-0.17,0.39-0.41,0.68-0.73,0.89c-0.32,0.2-0.67,0.3-1.03,0.3
		c-0.26,0-0.49-0.06-0.7-0.17c-0.21-0.11-0.38-0.26-0.52-0.42v2.27H61.58L61.58,197.16z M62.3,193.07c0,0.6,0.12,1.05,0.36,1.34
		c0.25,0.28,0.55,0.42,0.89,0.42s0.64-0.15,0.89-0.44c0.26-0.3,0.39-0.77,0.39-1.39c0-0.59-0.13-1.04-0.38-1.33
		c-0.24-0.3-0.53-0.45-0.88-0.45c-0.33,0-0.63,0.16-0.89,0.48C62.43,192.02,62.3,192.47,62.3,193.07L62.3,193.07z M69.78,193.88
		l0.83,0.09c-0.14,0.48-0.38,0.85-0.73,1.13c-0.34,0.26-0.79,0.39-1.33,0.39c-0.68,0-1.22-0.21-1.63-0.63
		c-0.4-0.43-0.59-1.02-0.59-1.78c0-0.78,0.2-1.39,0.61-1.81c0.41-0.44,0.93-0.66,1.58-0.66c0.63,0,1.13,0.21,1.52,0.64
		c0.4,0.42,0.59,1.01,0.59,1.78c0,0.05,0,0.13,0,0.22h-3.48c0.03,0.51,0.18,0.9,0.44,1.17c0.26,0.27,0.59,0.41,0.98,0.41
		c0.29,0,0.54-0.07,0.73-0.22C69.5,194.46,69.66,194.21,69.78,193.88L69.78,193.88z M67.18,192.6h2.61c-0.03-0.4-0.13-0.69-0.3-0.89
		c-0.25-0.3-0.58-0.45-0.98-0.45c-0.36,0-0.67,0.13-0.92,0.38C67.35,191.87,67.21,192.19,67.18,192.6L67.18,192.6z M71.78,195.38
		v-4.05h-0.7v-0.63h0.7v-0.48c0-0.32,0.03-0.56,0.08-0.7c0.08-0.21,0.22-0.38,0.41-0.5c0.2-0.13,0.47-0.19,0.81-0.19
		c0.22,0,0.46,0.03,0.73,0.08l-0.13,0.69c-0.16-0.03-0.31-0.05-0.45-0.05c-0.24,0-0.41,0.05-0.52,0.16c-0.1,0.1-0.16,0.3-0.16,0.58
		v0.42h0.92v0.63h-0.92v4.05H71.78L71.78,195.38z M77.14,193.68l0.78,0.09c-0.08,0.54-0.3,0.96-0.66,1.27
		c-0.35,0.3-0.79,0.45-1.3,0.45c-0.64,0-1.15-0.21-1.53-0.63c-0.39-0.42-0.58-1.02-0.58-1.8c0-0.51,0.08-0.95,0.25-1.33
		c0.17-0.38,0.42-0.66,0.75-0.84c0.34-0.19,0.72-0.28,1.13-0.28c0.5,0,0.91,0.13,1.23,0.39c0.32,0.25,0.53,0.61,0.63,1.08
		l-0.77,0.13c-0.07-0.31-0.2-0.55-0.39-0.7c-0.19-0.17-0.41-0.25-0.67-0.25c-0.41,0-0.73,0.15-0.98,0.44
		c-0.24,0.28-0.36,0.73-0.36,1.34c0,0.64,0.12,1.09,0.36,1.38c0.24,0.28,0.55,0.42,0.94,0.42c0.31,0,0.57-0.09,0.78-0.28
		C76.96,194.36,77.09,194.07,77.14,193.68L77.14,193.68z M78.81,195.38v-0.91h0.91v0.91H78.81L78.81,195.38z M80.8,193.05
		c0-0.86,0.24-1.51,0.72-1.92c0.41-0.34,0.9-0.52,1.47-0.52c0.65,0,1.17,0.21,1.58,0.63s0.61,0.99,0.61,1.73
		c0,0.6-0.09,1.08-0.28,1.42c-0.18,0.34-0.44,0.61-0.78,0.81c-0.34,0.19-0.72,0.28-1.13,0.28c-0.66,0-1.19-0.21-1.59-0.63
		C81,194.44,80.8,193.83,80.8,193.05L80.8,193.05z M81.61,193.05c0,0.59,0.13,1.04,0.39,1.34c0.26,0.29,0.59,0.44,0.98,0.44
		c0.4,0,0.72-0.15,0.98-0.44c0.26-0.3,0.39-0.76,0.39-1.38c0-0.57-0.13-1.01-0.39-1.31c-0.26-0.3-0.59-0.45-0.98-0.45
		c-0.4,0-0.72,0.15-0.98,0.45C81.74,192,81.61,192.45,81.61,193.05L81.61,193.05z M86.08,195.38v-4.67h0.72v0.72
		c0.18-0.33,0.34-0.55,0.5-0.66s0.33-0.16,0.52-0.16c0.26,0,0.53,0.08,0.81,0.25l-0.28,0.73c-0.19-0.11-0.38-0.17-0.58-0.17
		c-0.17,0-0.32,0.05-0.47,0.16c-0.14,0.1-0.23,0.25-0.3,0.44c-0.08,0.28-0.13,0.59-0.13,0.92v2.44H86.08L86.08,195.38z
		 M88.96,195.77l0.77,0.11c0.03,0.24,0.12,0.41,0.27,0.52c0.2,0.15,0.47,0.22,0.81,0.22c0.36,0,0.65-0.07,0.84-0.22
		c0.2-0.15,0.33-0.35,0.41-0.61c0.04-0.17,0.06-0.51,0.05-1.02c-0.34,0.41-0.77,0.61-1.28,0.61c-0.65,0-1.15-0.23-1.5-0.69
		c-0.34-0.47-0.52-1.03-0.52-1.67c0-0.45,0.08-0.86,0.23-1.23c0.17-0.38,0.4-0.66,0.7-0.86c0.3-0.21,0.66-0.31,1.08-0.31
		c0.55,0,1.01,0.22,1.36,0.66v-0.56h0.73v4.03c0,0.73-0.08,1.24-0.23,1.55c-0.15,0.3-0.38,0.54-0.7,0.72
		c-0.31,0.18-0.7,0.27-1.17,0.27c-0.56,0-1.02-0.13-1.36-0.38C89.11,196.64,88.95,196.27,88.96,195.77L88.96,195.77z M89.61,192.96
		c0,0.61,0.12,1.06,0.36,1.34c0.24,0.28,0.54,0.42,0.91,0.42c0.36,0,0.67-0.14,0.92-0.42s0.38-0.72,0.38-1.31
		c0-0.57-0.13-1.01-0.39-1.3c-0.25-0.29-0.55-0.44-0.91-0.44c-0.35,0-0.66,0.15-0.91,0.44C89.73,191.97,89.61,192.39,89.61,192.96
		L89.61,192.96z"/>
	<path d="M39.61,102.3h-9.12v3.82h8.86c1.92,0,2.49,0.85,2.49,1.91c0,1.09-0.57,1.94-2.49,1.94l-8.86,0v8.55h4.4v-4.72h4.72
		c4,0,6.63-2.53,6.63-5.76C46.24,104.8,43.61,102.3,39.61,102.3L39.61,102.3z"/>
	<polygon points="50.43,118.52 65.04,118.52 65.04,114.7 54.83,114.7 54.83,112.14 61.77,112.14 61.77,108.32 54.83,108.32 
		54.83,106.12 65.04,106.12 65.04,102.3 50.43,102.3 50.43,118.52 	"/>
	<polygon points="69.85,118.52 74.25,118.52 74.25,112.14 81.2,112.14 81.2,108.32 74.25,108.32 74.25,106.12 84.46,106.12 
		84.46,102.3 69.85,102.3 69.85,118.52 	"/>
	<path d="M96.16,105.81c1.52,0,2.8,0.57,3.75,1.64l3.54-2.47c-1.95-2.04-4.61-2.99-7.3-2.99c-5.32,0-9.58,3.67-9.58,8.42
		c0,4.76,4.26,8.43,9.58,8.43c2.67,0,5.32-0.94,7.27-2.96l-3.57-2.3c-0.92,0.9-2.24,1.44-3.7,1.44c-2.63,0-5.03-2.04-5.03-4.61
		C91.13,107.85,93.53,105.81,96.16,105.81L96.16,105.81z"/>
	<path d="M73.76,79.93v-7.39h10.45L70.29,44.07l-6.54,12.42c0.18,0.91,0.27,1.85,0.27,2.81c0,5.66-3.18,10.59-7.87,13.16l-0.25,0.08
		h10.9v7.39H73.76L73.76,79.93z"/>
	<path d="M44.54,71.64v8.51h6.96v-8.38c5.55-1.42,9.64-6.36,9.64-12.25c0-6.99-5.77-12.66-12.88-12.66
		c-7.12,0-12.88,5.67-12.88,12.66C35.38,65.24,39.24,70.07,44.54,71.64L44.54,71.64z"/>
	<path d="M41.14,45.67c0.7-0.36,1.42-0.67,2.17-0.93c7.03-7.26,16.8-11.99,26.55-11.99c15.39,0,25.11,11.82,22.44,26.76l6.15-5.74
		l4.11,4.56c2.06-16.87-9.43-29.96-27.25-29.96c-12.92,0-25.87,6.89-34.36,17.11c0,0-0.05,0.07,0.02,0.15
		C41.06,45.72,41.14,45.67,41.14,45.67L41.14,45.67z"/>
	<path d="M58.76,96.37c18.96,0,37.99-14.83,42.88-33.26l-3.98-4.42l-6.9,6.43C85.48,79.16,70.66,90,55.92,90
		c-15.21,0-24.87-11.53-22.54-26.21c-0.27-0.94-0.46-1.93-0.55-2.94c0,0,0.01-0.07-0.09-0.06c-0.06,0-0.08,0.06-0.08,0.06
		c-0.14,0.51-0.28,1.01-0.4,1.52C27.69,81.15,39.55,96.37,58.76,96.37L58.76,96.37z"/>
	<polygon points="102.94,98.86 105.67,98.86 105.67,99.58 104.75,99.58 104.75,101.77 103.86,101.77 103.86,99.58 102.94,99.58 
		102.94,98.86 	"/>
	<polygon points="106.07,98.86 107.27,98.86 107.71,100.63 108.15,98.86 109.33,98.86 109.33,101.77 108.6,101.77 108.6,99.55 
		108.04,101.77 107.37,101.77 106.81,99.55 106.81,101.77 106.07,101.77 106.07,98.86 	"/>
</g>
</svg>
