<?xml version="1.0" encoding="utf-8"?>
<!-- Generator: Adobe Illustrator 23.0.3, SVG Export Plug-In . SVG Version: 6.00 Build 0)  -->
<svg version="1.1" id="Шар_1" xmlns="http://www.w3.org/2000/svg" xmlns:xlink="http://www.w3.org/1999/xlink" x="0px" y="0px"
	 viewBox="0 0 134.97 222.39" style="enable-background:new 0 0 134.97 222.39;" xml:space="preserve">
<style type="text/css">
	.st0{fill:#FFFFFF;}
	.st1{clip-path:url(#SVGID_2_);fill:none;stroke:#000000;stroke-width:4;stroke-linecap:square;stroke-miterlimit:10;}
</style>
<g>
	<path class="st0" d="M10,18.43v186c0,4.97,4.03,9,9,9h99c4.97,0,9-4.03,9-9v-186c0-4.97-4.03-9-9-9H19
		C14.03,9.43,10,13.46,10,18.43L10,18.43z"/>
	<g>
		<defs>
			<rect id="SVGID_1_" x="8" y="7.39" width="121.08" height="208.08"/>
		</defs>
		<clipPath id="SVGID_2_">
			<use xlink:href="#SVGID_1_"  style="overflow:visible;"/>
		</clipPath>
		<path class="st1" d="M10,19.43v184c0,5.52,4.48,10,10,10h97c5.52,0,10-4.48,10-10v-184c0-5.52-4.48-10-10-10H20
			C14.48,9.43,10,13.9,10,19.43L10,19.43z"/>
	</g>
	<path d="M32.69,131.43v-6.44h2.44c0.43,0,0.76,0.02,0.98,0.06c0.31,0.05,0.57,0.15,0.78,0.3c0.22,0.15,0.39,0.35,0.52,0.63
		c0.14,0.26,0.2,0.55,0.2,0.87c0,0.55-0.18,1.02-0.53,1.39c-0.34,0.38-0.97,0.56-1.88,0.56h-1.66v2.63H32.69L32.69,131.43z
		 M33.55,128.05h1.67c0.54,0,0.93-0.1,1.16-0.31c0.24-0.21,0.36-0.49,0.36-0.86c0-0.27-0.07-0.5-0.2-0.69
		c-0.14-0.2-0.32-0.33-0.55-0.39c-0.14-0.04-0.4-0.06-0.8-0.06h-1.64V128.05L33.55,128.05z M38.72,131.43v-6.44h4.66v0.75h-3.81
		v1.98h3.56v0.75h-3.56v2.19h3.95v0.77H38.72L38.72,131.43z M44.74,131.43v-6.44h4.34v0.75H45.6v2h3.02v0.77H45.6v2.92H44.74
		L44.74,131.43z M54.8,129.16l0.84,0.22c-0.18,0.7-0.5,1.23-0.97,1.61c-0.46,0.36-1.03,0.55-1.7,0.55c-0.69,0-1.25-0.14-1.69-0.42
		s-0.77-0.69-1-1.22c-0.22-0.54-0.33-1.12-0.33-1.73c0-0.68,0.13-1.27,0.38-1.77c0.26-0.5,0.63-0.88,1.09-1.13
		c0.48-0.26,1-0.39,1.56-0.39c0.65,0,1.19,0.17,1.63,0.5c0.45,0.32,0.76,0.78,0.92,1.38l-0.84,0.19c-0.15-0.47-0.36-0.81-0.64-1.02
		c-0.28-0.22-0.64-0.33-1.08-0.33c-0.49,0-0.9,0.12-1.23,0.36c-0.33,0.24-0.57,0.56-0.7,0.97c-0.14,0.4-0.2,0.8-0.2,1.22
		c0,0.55,0.08,1.04,0.23,1.45c0.17,0.41,0.42,0.71,0.75,0.91s0.7,0.3,1.09,0.3c0.48,0,0.88-0.14,1.2-0.41
		C54.45,130.11,54.68,129.7,54.8,129.16L54.8,129.16z M56,131.54l1.88-6.66h0.63l-1.86,6.66H56L56,131.54z M58.88,128.26
		c0-0.76,0.08-1.38,0.23-1.84s0.39-0.83,0.69-1.08c0.31-0.25,0.7-0.38,1.17-0.38c0.35,0,0.66,0.07,0.92,0.22
		c0.26,0.14,0.47,0.33,0.64,0.59c0.17,0.26,0.3,0.58,0.39,0.95c0.1,0.38,0.16,0.89,0.16,1.53c0,0.75-0.08,1.36-0.23,1.83
		c-0.16,0.46-0.39,0.82-0.7,1.08c-0.3,0.25-0.69,0.38-1.17,0.38c-0.61,0-1.1-0.22-1.45-0.67C59.09,130.33,58.88,129.46,58.88,128.26
		L58.88,128.26z M59.69,128.26c0,1.05,0.12,1.76,0.36,2.11c0.25,0.34,0.56,0.52,0.92,0.52c0.36,0,0.67-0.17,0.92-0.52
		c0.25-0.35,0.38-1.06,0.38-2.11c0-1.06-0.13-1.77-0.38-2.11c-0.25-0.35-0.56-0.53-0.92-0.53c-0.36,0-0.66,0.15-0.88,0.45
		C59.83,126.46,59.69,127.19,59.69,128.26L59.69,128.26z M66.87,131.43h-0.8v-5.05c-0.19,0.19-0.44,0.38-0.75,0.56
		c-0.31,0.18-0.59,0.31-0.83,0.39v-0.77c0.44-0.2,0.82-0.44,1.16-0.73c0.33-0.3,0.57-0.59,0.7-0.88h0.52V131.43L66.87,131.43z
		 M68.8,129.49v-0.8h2.44v0.8H68.8L68.8,129.49z M71.89,129.72l0.8-0.11c0.09,0.45,0.24,0.77,0.45,0.97c0.22,0.2,0.49,0.3,0.81,0.3
		c0.36,0,0.67-0.12,0.92-0.38c0.26-0.26,0.39-0.58,0.39-0.97c0-0.36-0.12-0.66-0.36-0.89c-0.23-0.24-0.53-0.36-0.89-0.36
		c-0.16,0-0.34,0.03-0.56,0.09l0.09-0.7c0.05,0.01,0.09,0.02,0.13,0.02c0.33,0,0.64-0.09,0.91-0.27c0.27-0.18,0.41-0.45,0.41-0.81
		c0-0.29-0.1-0.53-0.3-0.72c-0.2-0.19-0.45-0.28-0.77-0.28c-0.3,0-0.56,0.1-0.77,0.3c-0.2,0.19-0.33,0.47-0.39,0.86l-0.8-0.14
		c0.1-0.53,0.32-0.94,0.66-1.23c0.34-0.29,0.77-0.44,1.28-0.44c0.35,0,0.68,0.08,0.97,0.23c0.3,0.15,0.53,0.35,0.69,0.61
		s0.23,0.54,0.23,0.83c0,0.28-0.08,0.54-0.23,0.77c-0.15,0.23-0.36,0.41-0.66,0.55c0.39,0.08,0.68,0.27,0.89,0.55
		c0.21,0.27,0.31,0.61,0.31,1.03c0,0.56-0.21,1.04-0.63,1.44c-0.41,0.39-0.92,0.58-1.55,0.58c-0.56,0-1.03-0.17-1.41-0.5
		C72.15,130.7,71.94,130.27,71.89,129.72L71.89,129.72z M79.88,131.43h-0.8v-5.05c-0.19,0.19-0.44,0.38-0.75,0.56
		c-0.31,0.18-0.59,0.31-0.83,0.39v-0.77c0.44-0.2,0.82-0.44,1.16-0.73c0.33-0.3,0.57-0.59,0.7-0.88h0.52V131.43L79.88,131.43z
		 M81.8,129.49v-0.8h2.44v0.8H81.8L81.8,129.49z M87.88,131.43h-0.8v-5.05c-0.19,0.19-0.44,0.38-0.75,0.56
		c-0.31,0.18-0.59,0.31-0.83,0.39v-0.77c0.44-0.2,0.82-0.44,1.16-0.73c0.33-0.3,0.57-0.59,0.7-0.88h0.52V131.43L87.88,131.43z
		 M89.9,128.26c0-0.76,0.08-1.38,0.23-1.84s0.39-0.83,0.69-1.08c0.31-0.25,0.7-0.38,1.17-0.38c0.35,0,0.66,0.07,0.92,0.22
		c0.26,0.14,0.47,0.33,0.64,0.59c0.17,0.26,0.3,0.58,0.39,0.95c0.1,0.38,0.16,0.89,0.16,1.53c0,0.75-0.08,1.36-0.23,1.83
		c-0.16,0.46-0.39,0.82-0.7,1.08c-0.3,0.25-0.69,0.38-1.17,0.38c-0.61,0-1.1-0.22-1.45-0.67C90.11,130.33,89.9,129.46,89.9,128.26
		L89.9,128.26z M90.71,128.26c0,1.05,0.12,1.76,0.36,2.11c0.25,0.34,0.56,0.52,0.92,0.52c0.36,0,0.67-0.17,0.92-0.52
		c0.25-0.35,0.38-1.06,0.38-2.11c0-1.06-0.13-1.77-0.38-2.11c-0.25-0.35-0.56-0.53-0.92-0.53c-0.36,0-0.66,0.15-0.88,0.45
		C90.85,126.46,90.71,127.19,90.71,128.26L90.71,128.26z M97.89,131.43h-0.8v-5.05c-0.19,0.19-0.44,0.38-0.75,0.56
		c-0.31,0.18-0.59,0.31-0.83,0.39v-0.77c0.44-0.2,0.82-0.44,1.16-0.73c0.33-0.3,0.57-0.59,0.7-0.88h0.52V131.43L97.89,131.43z
		 M99.91,128.26c0-0.76,0.08-1.38,0.23-1.84c0.16-0.47,0.39-0.83,0.69-1.08c0.31-0.25,0.7-0.38,1.17-0.38
		c0.35,0,0.66,0.07,0.92,0.22c0.26,0.14,0.47,0.33,0.64,0.59c0.17,0.26,0.3,0.58,0.39,0.95c0.1,0.38,0.16,0.89,0.16,1.53
		c0,0.75-0.08,1.36-0.23,1.83c-0.16,0.46-0.39,0.82-0.7,1.08c-0.3,0.25-0.69,0.38-1.17,0.38c-0.61,0-1.1-0.22-1.45-0.67
		C100.12,130.33,99.91,129.46,99.91,128.26L99.91,128.26z M100.72,128.26c0,1.05,0.12,1.76,0.36,2.11c0.25,0.34,0.56,0.52,0.92,0.52
		c0.36,0,0.67-0.17,0.92-0.52c0.25-0.35,0.38-1.06,0.38-2.11c0-1.06-0.12-1.77-0.38-2.11c-0.25-0.35-0.56-0.53-0.92-0.53
		c-0.36,0-0.66,0.15-0.88,0.45C100.86,126.46,100.72,127.19,100.72,128.26L100.72,128.26z"/>
	<path d="M48.73,153.43v-6.44h4.34v0.75h-3.48v2h3.02v0.77h-3.02v2.92H48.73L48.73,153.43z M53.79,151.1c0-0.86,0.24-1.51,0.72-1.92
		c0.41-0.34,0.9-0.52,1.47-0.52c0.65,0,1.17,0.21,1.58,0.63s0.61,0.99,0.61,1.73c0,0.6-0.09,1.08-0.28,1.42
		c-0.18,0.34-0.44,0.61-0.78,0.81c-0.34,0.19-0.72,0.28-1.13,0.28c-0.66,0-1.19-0.21-1.59-0.63
		C53.99,152.48,53.79,151.88,53.79,151.1L53.79,151.1z M54.61,151.1c0,0.59,0.13,1.04,0.39,1.34c0.26,0.29,0.59,0.44,0.98,0.44
		c0.4,0,0.72-0.15,0.98-0.44c0.26-0.3,0.39-0.76,0.39-1.38c0-0.57-0.13-1.01-0.39-1.31c-0.26-0.3-0.59-0.45-0.98-0.45
		c-0.4,0-0.72,0.15-0.98,0.45C54.74,150.05,54.61,150.5,54.61,151.1L54.61,151.1z M54.76,147.85v-0.91h0.83v0.91H54.76L54.76,147.85
		z M56.4,147.85v-0.91h0.83v0.91H56.4L56.4,147.85z M59.08,153.43v-4.67h0.72v0.72c0.18-0.33,0.34-0.55,0.5-0.66
		s0.33-0.16,0.52-0.16c0.26,0,0.53,0.08,0.81,0.25l-0.28,0.73c-0.19-0.11-0.38-0.17-0.58-0.17c-0.17,0-0.32,0.05-0.47,0.16
		c-0.14,0.1-0.23,0.25-0.3,0.44c-0.08,0.28-0.13,0.59-0.13,0.92v2.44H59.08L59.08,153.43z M65.13,153.43v-0.59
		c-0.3,0.47-0.74,0.7-1.31,0.7c-0.36,0-0.7-0.1-1.02-0.31s-0.56-0.49-0.73-0.86c-0.17-0.36-0.25-0.79-0.25-1.27
		c0-0.47,0.08-0.89,0.23-1.27c0.16-0.39,0.39-0.68,0.69-0.88c0.31-0.2,0.66-0.3,1.05-0.3c0.28,0,0.53,0.06,0.75,0.17
		s0.4,0.27,0.53,0.47v-2.31h0.8v6.44H65.13L65.13,153.43z M62.63,151.1c0,0.59,0.13,1.04,0.38,1.34c0.25,0.29,0.55,0.44,0.89,0.44
		s0.64-0.14,0.88-0.42c0.25-0.28,0.38-0.71,0.38-1.3c0-0.64-0.13-1.1-0.38-1.41s-0.55-0.45-0.91-0.45c-0.35,0-0.65,0.15-0.89,0.44
		C62.74,150.03,62.63,150.48,62.63,151.1L62.63,151.1z M70.29,151.93l0.83,0.09c-0.14,0.48-0.38,0.85-0.73,1.13
		c-0.34,0.26-0.79,0.39-1.33,0.39c-0.68,0-1.22-0.21-1.63-0.63c-0.4-0.43-0.59-1.02-0.59-1.78c0-0.78,0.2-1.39,0.61-1.81
		c0.41-0.44,0.93-0.66,1.58-0.66c0.63,0,1.13,0.21,1.52,0.64c0.4,0.42,0.59,1.01,0.59,1.78c0,0.05,0,0.13,0,0.22h-3.48
		c0.03,0.51,0.18,0.9,0.44,1.17c0.26,0.27,0.59,0.41,0.98,0.41c0.29,0,0.54-0.07,0.73-0.22C70.01,152.51,70.17,152.26,70.29,151.93
		L70.29,151.93z M67.69,150.65h2.61c-0.03-0.4-0.13-0.69-0.3-0.89c-0.25-0.3-0.58-0.45-0.98-0.45c-0.36,0-0.67,0.13-0.92,0.38
		C67.86,149.92,67.72,150.24,67.69,150.65L67.69,150.65z M72.09,153.43v-4.67h0.72v0.72c0.18-0.33,0.34-0.55,0.5-0.66
		s0.33-0.16,0.52-0.16c0.26,0,0.53,0.08,0.81,0.25l-0.28,0.73c-0.19-0.11-0.38-0.17-0.58-0.17c-0.17,0-0.32,0.05-0.47,0.16
		c-0.14,0.1-0.23,0.25-0.3,0.44c-0.08,0.28-0.13,0.59-0.13,0.92v2.44H72.09L72.09,153.43z M78.16,153.43v-0.69
		c-0.36,0.53-0.86,0.8-1.48,0.8c-0.27,0-0.53-0.05-0.77-0.16c-0.24-0.11-0.42-0.25-0.55-0.41c-0.11-0.16-0.19-0.35-0.23-0.58
		c-0.03-0.16-0.05-0.41-0.05-0.75v-2.89h0.78v2.59c0,0.42,0.02,0.69,0.06,0.83c0.04,0.21,0.14,0.38,0.3,0.5
		c0.17,0.11,0.37,0.17,0.61,0.17c0.24,0,0.46-0.06,0.67-0.17c0.21-0.13,0.35-0.29,0.44-0.5c0.08-0.21,0.13-0.52,0.13-0.92v-2.5h0.8
		v4.67H78.16L78.16,153.43z M80.11,153.43v-4.67h0.72v0.67c0.33-0.51,0.83-0.77,1.48-0.77c0.28,0,0.54,0.05,0.77,0.16
		c0.24,0.09,0.42,0.22,0.53,0.39c0.11,0.16,0.2,0.35,0.25,0.58c0.03,0.15,0.05,0.4,0.05,0.77v2.88h-0.8v-2.84
		c0-0.32-0.03-0.56-0.09-0.72s-0.17-0.28-0.33-0.38c-0.16-0.1-0.34-0.16-0.55-0.16c-0.33,0-0.63,0.11-0.88,0.33
		c-0.24,0.21-0.36,0.61-0.36,1.22v2.55H80.11L80.11,153.43z M84.97,153.82l0.77,0.11c0.03,0.24,0.12,0.41,0.27,0.52
		c0.2,0.15,0.47,0.22,0.81,0.22c0.36,0,0.65-0.07,0.84-0.22c0.2-0.15,0.33-0.35,0.41-0.61c0.04-0.17,0.06-0.51,0.05-1.02
		c-0.34,0.41-0.77,0.61-1.28,0.61c-0.65,0-1.15-0.23-1.5-0.69c-0.34-0.47-0.52-1.03-0.52-1.67c0-0.45,0.08-0.86,0.23-1.23
		c0.17-0.38,0.4-0.66,0.7-0.86c0.3-0.21,0.66-0.31,1.08-0.31c0.55,0,1.01,0.22,1.36,0.66v-0.56h0.73v4.03
		c0,0.73-0.08,1.24-0.23,1.55c-0.15,0.3-0.38,0.54-0.7,0.72c-0.31,0.18-0.7,0.27-1.17,0.27c-0.56,0-1.02-0.13-1.36-0.38
		C85.12,154.69,84.96,154.32,84.97,153.82L84.97,153.82z M85.63,151.01c0,0.61,0.12,1.06,0.36,1.34c0.24,0.28,0.54,0.42,0.91,0.42
		c0.36,0,0.67-0.14,0.92-0.42s0.38-0.72,0.38-1.31c0-0.57-0.13-1.01-0.39-1.3c-0.25-0.29-0.55-0.44-0.91-0.44
		c-0.35,0-0.66,0.15-0.91,0.44C85.75,150.02,85.63,150.44,85.63,151.01L85.63,151.01z"/>
	<path d="M43.59,165.43v-4.67h0.72v0.67c0.33-0.51,0.83-0.77,1.48-0.77c0.28,0,0.54,0.05,0.77,0.16c0.24,0.09,0.42,0.22,0.53,0.39
		c0.11,0.16,0.2,0.35,0.25,0.58c0.03,0.15,0.05,0.4,0.05,0.77v2.88h-0.8v-2.84c0-0.32-0.03-0.56-0.09-0.72s-0.17-0.28-0.33-0.38
		c-0.16-0.1-0.34-0.16-0.55-0.16c-0.33,0-0.63,0.11-0.88,0.33c-0.24,0.21-0.36,0.61-0.36,1.22v2.55H43.59L43.59,165.43z
		 M51.65,164.85c-0.29,0.25-0.57,0.43-0.84,0.53c-0.27,0.1-0.56,0.16-0.88,0.16c-0.51,0-0.91-0.13-1.19-0.38
		c-0.27-0.25-0.41-0.57-0.41-0.97c0-0.23,0.05-0.44,0.16-0.63c0.1-0.19,0.24-0.34,0.41-0.45c0.17-0.11,0.35-0.2,0.56-0.27
		c0.16-0.03,0.39-0.07,0.7-0.11c0.65-0.07,1.12-0.17,1.42-0.28c0-0.1,0-0.17,0-0.2c0-0.32-0.07-0.55-0.22-0.67
		c-0.21-0.19-0.51-0.28-0.91-0.28c-0.38,0-0.65,0.07-0.83,0.2c-0.18,0.13-0.31,0.35-0.39,0.69l-0.77-0.09
		c0.06-0.33,0.17-0.6,0.33-0.8c0.17-0.21,0.4-0.36,0.7-0.47c0.31-0.11,0.67-0.17,1.06-0.17c0.41,0,0.73,0.05,0.97,0.14
		c0.25,0.09,0.43,0.21,0.55,0.36c0.13,0.14,0.21,0.31,0.25,0.53c0.03,0.14,0.05,0.38,0.05,0.72v1.06c0,0.73,0.02,1.19,0.05,1.39
		s0.1,0.39,0.2,0.56H51.8C51.72,165.26,51.67,165.07,51.65,164.85L51.65,164.85z M51.58,163.08c-0.29,0.11-0.72,0.21-1.3,0.3
		c-0.32,0.05-0.55,0.11-0.69,0.17c-0.14,0.05-0.24,0.14-0.31,0.25s-0.11,0.24-0.11,0.38c0,0.21,0.08,0.39,0.23,0.53
		c0.16,0.14,0.39,0.2,0.7,0.2c0.3,0,0.57-0.07,0.81-0.2c0.24-0.14,0.42-0.32,0.53-0.55c0.08-0.18,0.13-0.44,0.13-0.78V163.08
		L51.58,163.08z M56.65,163.72l0.78,0.09c-0.08,0.54-0.3,0.96-0.66,1.27s-0.79,0.45-1.3,0.45c-0.64,0-1.15-0.21-1.53-0.63
		s-0.58-1.02-0.58-1.8c0-0.51,0.08-0.95,0.25-1.33c0.17-0.38,0.42-0.66,0.75-0.84c0.34-0.19,0.72-0.28,1.13-0.28
		c0.5,0,0.91,0.13,1.23,0.39c0.32,0.25,0.53,0.61,0.63,1.08l-0.77,0.13c-0.07-0.31-0.2-0.55-0.39-0.7
		c-0.19-0.17-0.41-0.25-0.67-0.25c-0.41,0-0.73,0.15-0.98,0.44c-0.24,0.28-0.36,0.73-0.36,1.34c0,0.64,0.12,1.09,0.36,1.38
		c0.24,0.28,0.55,0.42,0.94,0.42c0.31,0,0.57-0.09,0.78-0.28S56.6,164.12,56.65,163.72L56.65,163.72z M58.1,165.43v-6.44h0.8v2.31
		c0.36-0.43,0.83-0.64,1.39-0.64c0.34,0,0.64,0.07,0.89,0.2c0.26,0.14,0.44,0.32,0.55,0.56c0.11,0.24,0.17,0.59,0.17,1.05v2.95
		h-0.78v-2.95c0-0.4-0.09-0.68-0.27-0.86c-0.17-0.19-0.41-0.28-0.72-0.28c-0.24,0-0.46,0.06-0.67,0.19
		c-0.21,0.11-0.35,0.28-0.44,0.48c-0.08,0.21-0.13,0.5-0.13,0.88v2.55H58.1L58.1,165.43z M63.11,165.43v-6.44h0.8v2.31
		c0.36-0.43,0.83-0.64,1.39-0.64c0.34,0,0.64,0.07,0.89,0.2c0.26,0.14,0.44,0.32,0.55,0.56c0.11,0.24,0.17,0.59,0.17,1.05v2.95
		h-0.78v-2.95c0-0.4-0.09-0.68-0.27-0.86c-0.17-0.19-0.41-0.28-0.72-0.28c-0.24,0-0.46,0.06-0.67,0.19
		c-0.21,0.11-0.35,0.28-0.44,0.48c-0.08,0.21-0.13,0.5-0.13,0.88v2.55H63.11L63.11,165.43z M71.16,164.85
		c-0.29,0.25-0.57,0.43-0.84,0.53c-0.27,0.1-0.56,0.16-0.88,0.16c-0.51,0-0.91-0.13-1.19-0.38c-0.27-0.25-0.41-0.57-0.41-0.97
		c0-0.23,0.05-0.44,0.16-0.63c0.1-0.19,0.24-0.34,0.41-0.45c0.17-0.11,0.35-0.2,0.56-0.27c0.16-0.03,0.39-0.07,0.7-0.11
		c0.65-0.07,1.12-0.17,1.42-0.28c0-0.1,0-0.17,0-0.2c0-0.32-0.07-0.55-0.22-0.67c-0.21-0.19-0.51-0.28-0.91-0.28
		c-0.38,0-0.65,0.07-0.83,0.2c-0.18,0.13-0.31,0.35-0.39,0.69l-0.77-0.09c0.06-0.33,0.17-0.6,0.33-0.8c0.17-0.21,0.4-0.36,0.7-0.47
		c0.31-0.11,0.67-0.17,1.06-0.17c0.41,0,0.73,0.05,0.97,0.14c0.25,0.09,0.43,0.21,0.55,0.36c0.13,0.14,0.21,0.31,0.25,0.53
		c0.03,0.14,0.05,0.38,0.05,0.72v1.06c0,0.73,0.02,1.19,0.05,1.39s0.1,0.39,0.2,0.56h-0.83C71.24,165.26,71.18,165.07,71.16,164.85
		L71.16,164.85z M71.1,163.08c-0.29,0.11-0.72,0.21-1.3,0.3c-0.32,0.05-0.55,0.11-0.69,0.17c-0.14,0.05-0.24,0.14-0.31,0.25
		c-0.07,0.11-0.11,0.24-0.11,0.38c0,0.21,0.08,0.39,0.23,0.53c0.16,0.14,0.39,0.2,0.7,0.2c0.3,0,0.57-0.07,0.81-0.2
		c0.24-0.14,0.42-0.32,0.53-0.55c0.08-0.18,0.13-0.44,0.13-0.78V163.08L71.1,163.08z M73.1,165.43v-6.44h0.78v6.44H73.1L73.1,165.43
		z M76.85,164.72l0.11,0.69c-0.23,0.05-0.43,0.08-0.59,0.08c-0.29,0-0.52-0.05-0.67-0.14s-0.27-0.21-0.34-0.36
		c-0.06-0.15-0.09-0.45-0.09-0.92v-2.69h-0.58v-0.63h0.58v-1.16l0.8-0.47v1.63h0.8v0.63h-0.8v2.72c0,0.23,0.01,0.38,0.03,0.44
		c0.03,0.06,0.08,0.11,0.14,0.16s0.15,0.06,0.27,0.06C76.59,164.76,76.71,164.75,76.85,164.72L76.85,164.72z M77.62,159.9v-0.91h0.8
		v0.91H77.62L77.62,159.9z M77.62,165.43v-4.67h0.8v4.67H77.62L77.62,165.43z M79.48,165.82l0.77,0.11
		c0.03,0.24,0.12,0.41,0.27,0.52c0.2,0.15,0.47,0.22,0.81,0.22c0.36,0,0.65-0.07,0.84-0.22c0.2-0.15,0.33-0.35,0.41-0.61
		c0.04-0.17,0.06-0.51,0.05-1.02c-0.34,0.41-0.77,0.61-1.28,0.61c-0.65,0-1.15-0.23-1.5-0.69c-0.34-0.47-0.52-1.03-0.52-1.67
		c0-0.45,0.08-0.86,0.23-1.23c0.17-0.38,0.4-0.66,0.7-0.86c0.3-0.21,0.66-0.31,1.08-0.31c0.55,0,1.01,0.22,1.36,0.66v-0.56h0.73
		v4.03c0,0.73-0.08,1.24-0.23,1.55c-0.15,0.3-0.38,0.54-0.7,0.72c-0.31,0.18-0.7,0.27-1.17,0.27c-0.56,0-1.02-0.13-1.36-0.38
		C79.63,166.69,79.47,166.32,79.48,165.82L79.48,165.82z M80.14,163.01c0,0.61,0.12,1.06,0.36,1.34c0.24,0.28,0.54,0.42,0.91,0.42
		c0.36,0,0.67-0.14,0.92-0.42s0.38-0.72,0.38-1.31c0-0.57-0.13-1.01-0.39-1.3c-0.25-0.29-0.55-0.44-0.91-0.44
		c-0.35,0-0.66,0.15-0.91,0.44C80.26,162.02,80.14,162.44,80.14,163.01L80.14,163.01z M87.81,163.93l0.83,0.09
		c-0.14,0.48-0.38,0.85-0.73,1.13c-0.34,0.26-0.79,0.39-1.33,0.39c-0.68,0-1.22-0.21-1.63-0.63c-0.4-0.43-0.59-1.02-0.59-1.78
		c0-0.78,0.2-1.39,0.61-1.81c0.41-0.44,0.93-0.66,1.58-0.66c0.63,0,1.13,0.21,1.52,0.64c0.4,0.42,0.59,1.01,0.59,1.78
		c0,0.05,0,0.13,0,0.22h-3.48c0.03,0.51,0.18,0.9,0.44,1.17c0.26,0.27,0.59,0.41,0.98,0.41c0.29,0,0.54-0.07,0.73-0.22
		C87.54,164.51,87.7,164.26,87.81,163.93L87.81,163.93z M85.22,162.65h2.61c-0.03-0.4-0.13-0.69-0.3-0.89
		c-0.25-0.3-0.58-0.45-0.98-0.45c-0.36,0-0.67,0.13-0.92,0.38C85.39,161.92,85.25,162.24,85.22,162.65L85.22,162.65z M89.62,165.43
		v-4.67h0.72v0.72c0.18-0.33,0.34-0.55,0.5-0.66s0.33-0.16,0.52-0.16c0.26,0,0.53,0.08,0.81,0.25l-0.28,0.73
		c-0.19-0.11-0.38-0.17-0.58-0.17c-0.17,0-0.32,0.05-0.47,0.16c-0.14,0.1-0.23,0.25-0.3,0.44c-0.08,0.28-0.13,0.59-0.13,0.92v2.44
		H89.62L89.62,165.43z"/>
	<path d="M39.81,177.43l-1.7-6.44h0.88l0.98,4.22c0.1,0.44,0.19,0.88,0.27,1.31c0.17-0.69,0.27-1.08,0.3-1.19l1.22-4.34h1.03
		l0.92,3.25c0.23,0.81,0.4,1.57,0.5,2.28c0.08-0.41,0.19-0.87,0.33-1.39l1-4.14h0.86l-1.77,6.44h-0.81l-1.36-4.91
		c-0.11-0.42-0.18-0.67-0.2-0.77c-0.07,0.3-0.14,0.56-0.19,0.77l-1.38,4.91H39.81L39.81,177.43z M50.14,176.85
		c-0.29,0.25-0.57,0.43-0.84,0.53s-0.56,0.16-0.88,0.16c-0.51,0-0.91-0.13-1.19-0.38c-0.27-0.25-0.41-0.57-0.41-0.97
		c0-0.23,0.05-0.44,0.16-0.63c0.1-0.19,0.24-0.34,0.41-0.45s0.35-0.2,0.56-0.27c0.16-0.03,0.39-0.07,0.7-0.11
		c0.65-0.07,1.12-0.17,1.42-0.28c0-0.1,0-0.17,0-0.2c0-0.32-0.07-0.55-0.22-0.67c-0.21-0.19-0.51-0.28-0.91-0.28
		c-0.38,0-0.65,0.07-0.83,0.2c-0.18,0.13-0.31,0.35-0.39,0.69l-0.77-0.09c0.06-0.33,0.17-0.6,0.33-0.8c0.17-0.21,0.4-0.36,0.7-0.47
		c0.31-0.11,0.67-0.17,1.06-0.17c0.41,0,0.73,0.05,0.97,0.14c0.25,0.09,0.43,0.21,0.55,0.36c0.13,0.14,0.21,0.31,0.25,0.53
		c0.03,0.14,0.05,0.38,0.05,0.72v1.06c0,0.73,0.02,1.19,0.05,1.39s0.1,0.39,0.2,0.56h-0.83C50.21,177.26,50.16,177.07,50.14,176.85
		L50.14,176.85z M50.07,175.08c-0.29,0.11-0.72,0.21-1.3,0.3c-0.32,0.05-0.55,0.11-0.69,0.17c-0.14,0.05-0.24,0.14-0.31,0.25
		c-0.07,0.11-0.11,0.24-0.11,0.38c0,0.21,0.08,0.39,0.23,0.53c0.16,0.14,0.39,0.2,0.7,0.2c0.3,0,0.57-0.07,0.81-0.2
		s0.42-0.32,0.53-0.55c0.08-0.18,0.13-0.44,0.13-0.78V175.08L50.07,175.08z M52.08,177.43v-6.44h0.78v6.44H52.08L52.08,177.43z
		 M57.12,177.43v-0.59c-0.3,0.47-0.74,0.7-1.31,0.7c-0.36,0-0.7-0.1-1.02-0.31s-0.56-0.49-0.73-0.86c-0.17-0.36-0.25-0.79-0.25-1.27
		c0-0.47,0.08-0.89,0.23-1.27c0.16-0.39,0.39-0.68,0.69-0.88c0.31-0.2,0.66-0.3,1.05-0.3c0.28,0,0.53,0.06,0.75,0.17
		s0.4,0.27,0.53,0.47v-2.31h0.8v6.44H57.12L57.12,177.43z M54.62,175.1c0,0.59,0.13,1.04,0.38,1.34c0.25,0.29,0.55,0.44,0.89,0.44
		s0.64-0.14,0.88-0.42c0.25-0.28,0.38-0.71,0.38-1.3c0-0.64-0.13-1.1-0.38-1.41s-0.55-0.45-0.91-0.45c-0.35,0-0.65,0.15-0.89,0.44
		C54.74,174.03,54.62,174.48,54.62,175.1L54.62,175.1z M59.96,177.43l-1.42-4.67h0.81l0.75,2.7l0.27,1
		c0.01-0.05,0.09-0.38,0.25-0.97l0.73-2.73h0.81l0.7,2.72l0.23,0.89l0.27-0.91l0.8-2.7h0.77l-1.45,4.67h-0.81l-0.75-2.8l-0.19-0.8
		l-0.94,3.59H59.96L59.96,177.43z M65.6,171.9v-0.91h0.8v0.91H65.6L65.6,171.9z M65.6,177.43v-4.67h0.8v4.67H65.6L65.6,177.43z
		 M67.58,177.43v-4.67h0.72v0.72c0.18-0.33,0.34-0.55,0.5-0.66s0.33-0.16,0.52-0.16c0.26,0,0.53,0.08,0.81,0.25l-0.28,0.73
		c-0.19-0.11-0.38-0.17-0.58-0.17c-0.17,0-0.32,0.05-0.47,0.16c-0.14,0.1-0.23,0.25-0.3,0.44c-0.08,0.28-0.13,0.59-0.13,0.92v2.44
		H67.58L67.58,177.43z M72.33,176.72l0.11,0.69c-0.23,0.05-0.43,0.08-0.59,0.08c-0.29,0-0.52-0.05-0.67-0.14s-0.27-0.21-0.34-0.36
		c-0.06-0.15-0.09-0.45-0.09-0.92v-2.69h-0.58v-0.63h0.58v-1.16l0.8-0.47v1.63h0.8v0.63h-0.8v2.72c0,0.23,0.01,0.38,0.03,0.44
		c0.03,0.06,0.08,0.11,0.14,0.16s0.15,0.06,0.27,0.06C72.06,176.76,72.18,176.75,72.33,176.72L72.33,176.72z M72.78,176.04
		l0.78-0.13c0.04,0.31,0.16,0.55,0.36,0.72c0.21,0.17,0.49,0.25,0.84,0.25c0.36,0,0.64-0.07,0.81-0.22
		c0.18-0.15,0.27-0.32,0.27-0.52c0-0.19-0.08-0.33-0.23-0.42c-0.11-0.07-0.39-0.17-0.81-0.28c-0.58-0.15-0.99-0.27-1.22-0.38
		c-0.22-0.1-0.39-0.25-0.5-0.44c-0.11-0.19-0.17-0.4-0.17-0.63c0-0.21,0.05-0.4,0.14-0.58s0.22-0.33,0.39-0.45
		c0.13-0.08,0.29-0.16,0.5-0.22c0.22-0.06,0.45-0.09,0.69-0.09c0.36,0,0.68,0.05,0.95,0.16c0.28,0.1,0.49,0.24,0.63,0.42
		c0.14,0.18,0.23,0.42,0.28,0.72l-0.78,0.11c-0.03-0.24-0.14-0.43-0.31-0.56c-0.17-0.14-0.4-0.2-0.7-0.2
		c-0.36,0-0.63,0.06-0.78,0.19c-0.16,0.11-0.23,0.26-0.23,0.42c0,0.1,0.03,0.19,0.09,0.27c0.06,0.09,0.17,0.17,0.31,0.22
		c0.07,0.03,0.3,0.1,0.69,0.2c0.56,0.15,0.95,0.27,1.17,0.36c0.23,0.09,0.41,0.23,0.53,0.42c0.13,0.18,0.19,0.4,0.19,0.67
		s-0.08,0.52-0.23,0.75s-0.38,0.41-0.67,0.55c-0.28,0.13-0.61,0.19-0.98,0.19c-0.6,0-1.07-0.13-1.39-0.38
		C73.06,176.9,72.87,176.53,72.78,176.04L72.78,176.04z M80.64,175.72l0.78,0.09c-0.08,0.54-0.3,0.96-0.66,1.27
		c-0.35,0.3-0.79,0.45-1.3,0.45c-0.64,0-1.15-0.21-1.53-0.63c-0.39-0.42-0.58-1.02-0.58-1.8c0-0.51,0.08-0.95,0.25-1.33
		c0.17-0.38,0.42-0.66,0.75-0.84c0.34-0.19,0.72-0.28,1.13-0.28c0.5,0,0.91,0.13,1.23,0.39c0.32,0.25,0.53,0.61,0.63,1.08
		l-0.77,0.13c-0.07-0.31-0.2-0.55-0.39-0.7c-0.19-0.17-0.41-0.25-0.67-0.25c-0.41,0-0.73,0.15-0.98,0.44
		c-0.24,0.28-0.36,0.73-0.36,1.34c0,0.64,0.12,1.09,0.36,1.38c0.24,0.28,0.55,0.42,0.94,0.42c0.31,0,0.57-0.09,0.78-0.28
		C80.46,176.41,80.59,176.12,80.64,175.72L80.64,175.72z M82.1,177.43v-6.44h0.8v2.31c0.36-0.43,0.83-0.64,1.39-0.64
		c0.34,0,0.64,0.07,0.89,0.2c0.26,0.14,0.44,0.32,0.55,0.56c0.11,0.24,0.17,0.59,0.17,1.05v2.95h-0.78v-2.95
		c0-0.4-0.09-0.68-0.27-0.86c-0.17-0.19-0.41-0.28-0.72-0.28c-0.24,0-0.46,0.06-0.67,0.19c-0.21,0.11-0.35,0.28-0.44,0.48
		c-0.08,0.21-0.13,0.5-0.13,0.88v2.55H82.1L82.1,177.43z M90.15,176.85c-0.29,0.25-0.57,0.43-0.84,0.53
		c-0.27,0.1-0.56,0.16-0.88,0.16c-0.51,0-0.91-0.13-1.19-0.38c-0.27-0.25-0.41-0.57-0.41-0.97c0-0.23,0.05-0.44,0.16-0.63
		c0.1-0.19,0.24-0.34,0.41-0.45c0.17-0.11,0.35-0.2,0.56-0.27c0.16-0.03,0.39-0.07,0.7-0.11c0.65-0.07,1.12-0.17,1.42-0.28
		c0-0.1,0-0.17,0-0.2c0-0.32-0.07-0.55-0.22-0.67c-0.21-0.19-0.51-0.28-0.91-0.28c-0.38,0-0.65,0.07-0.83,0.2
		c-0.18,0.13-0.31,0.35-0.39,0.69l-0.77-0.09c0.06-0.33,0.17-0.6,0.33-0.8c0.17-0.21,0.4-0.36,0.7-0.47
		c0.31-0.11,0.67-0.17,1.06-0.17c0.41,0,0.73,0.05,0.97,0.14c0.25,0.09,0.43,0.21,0.55,0.36c0.13,0.14,0.21,0.31,0.25,0.53
		c0.03,0.14,0.05,0.38,0.05,0.72v1.06c0,0.73,0.02,1.19,0.05,1.39s0.1,0.39,0.2,0.56H90.3C90.22,177.26,90.17,177.07,90.15,176.85
		L90.15,176.85z M90.08,175.08c-0.29,0.11-0.72,0.21-1.3,0.3c-0.32,0.05-0.55,0.11-0.69,0.17c-0.14,0.05-0.24,0.14-0.31,0.25
		c-0.07,0.11-0.11,0.24-0.11,0.38c0,0.21,0.08,0.39,0.23,0.53c0.16,0.14,0.39,0.2,0.7,0.2c0.3,0,0.57-0.07,0.81-0.2
		c0.24-0.14,0.42-0.32,0.53-0.55c0.08-0.18,0.13-0.44,0.13-0.78V175.08L90.08,175.08z M92.29,177.43v-4.05h-0.7v-0.63h0.7v-0.48
		c0-0.32,0.03-0.56,0.08-0.7c0.08-0.21,0.22-0.38,0.41-0.5c0.2-0.13,0.47-0.19,0.81-0.19c0.22,0,0.46,0.03,0.73,0.08l-0.13,0.69
		c-0.16-0.03-0.31-0.05-0.45-0.05c-0.24,0-0.41,0.05-0.52,0.16c-0.1,0.1-0.16,0.3-0.16,0.58v0.42H94v0.63h-0.92v4.05H92.29
		L92.29,177.43z M96.34,176.72l0.11,0.69c-0.23,0.05-0.43,0.08-0.59,0.08c-0.29,0-0.52-0.05-0.67-0.14s-0.27-0.21-0.34-0.36
		c-0.06-0.15-0.09-0.45-0.09-0.92v-2.69h-0.58v-0.63h0.58v-1.16l0.8-0.47v1.63h0.8v0.63h-0.8v2.72c0,0.23,0.01,0.38,0.03,0.44
		c0.03,0.06,0.08,0.11,0.14,0.16s0.15,0.06,0.27,0.06C96.08,176.76,96.19,176.75,96.34,176.72L96.34,176.72z"/>
	<path d="M42.45,195.43l-1.42-4.67h0.81l0.75,2.7l0.27,1c0.01-0.05,0.09-0.38,0.25-0.97l0.73-2.73h0.81l0.7,2.72l0.23,0.89
		l0.27-0.91l0.8-2.7h0.77l-1.45,4.67h-0.81l-0.75-2.8l-0.19-0.8l-0.94,3.59H42.45L42.45,195.43z M48.95,195.43l-1.42-4.67h0.81
		l0.75,2.7l0.27,1c0.01-0.05,0.09-0.38,0.25-0.97l0.73-2.73h0.81l0.7,2.72l0.23,0.89l0.27-0.91l0.8-2.7h0.77l-1.45,4.67h-0.81
		l-0.75-2.8l-0.19-0.8l-0.94,3.59H48.95L48.95,195.43z M55.45,195.43l-1.42-4.67h0.81l0.75,2.7l0.27,1
		c0.01-0.05,0.09-0.38,0.25-0.97l0.73-2.73h0.81l0.7,2.72l0.23,0.89l0.27-0.91l0.8-2.7h0.77l-1.45,4.67h-0.81l-0.75-2.8l-0.19-0.8
		l-0.94,3.59H55.45L55.45,195.43z M61.31,195.43v-0.91h0.91v0.91H61.31L61.31,195.43z M63.59,197.21v-6.45h0.72v0.61
		c0.17-0.24,0.35-0.42,0.56-0.53c0.22-0.11,0.48-0.17,0.8-0.17c0.4,0,0.74,0.1,1.05,0.31c0.3,0.2,0.53,0.48,0.69,0.86
		s0.23,0.78,0.23,1.22c0,0.48-0.09,0.91-0.27,1.3c-0.17,0.39-0.41,0.68-0.73,0.89c-0.32,0.2-0.67,0.3-1.03,0.3
		c-0.26,0-0.49-0.06-0.7-0.17c-0.21-0.11-0.38-0.26-0.52-0.42v2.27H63.59L63.59,197.21z M64.31,193.11c0,0.6,0.12,1.05,0.36,1.34
		c0.25,0.28,0.55,0.42,0.89,0.42s0.64-0.15,0.89-0.44c0.26-0.3,0.39-0.77,0.39-1.39c0-0.59-0.13-1.04-0.38-1.33
		c-0.24-0.3-0.53-0.45-0.88-0.45c-0.33,0-0.63,0.16-0.89,0.48C64.44,192.07,64.31,192.52,64.31,193.11L64.31,193.11z M71.79,193.93
		l0.83,0.09c-0.14,0.48-0.38,0.85-0.73,1.13c-0.34,0.26-0.79,0.39-1.33,0.39c-0.68,0-1.22-0.21-1.63-0.63
		c-0.4-0.43-0.59-1.02-0.59-1.78c0-0.78,0.2-1.39,0.61-1.81c0.41-0.44,0.93-0.66,1.58-0.66c0.63,0,1.13,0.21,1.52,0.64
		c0.4,0.42,0.59,1.01,0.59,1.78c0,0.05,0,0.13,0,0.22h-3.48c0.03,0.51,0.18,0.9,0.44,1.17c0.26,0.27,0.59,0.41,0.98,0.41
		c0.29,0,0.54-0.07,0.73-0.22C71.51,194.51,71.67,194.26,71.79,193.93L71.79,193.93z M69.19,192.65h2.61
		c-0.03-0.4-0.13-0.69-0.3-0.89c-0.25-0.3-0.58-0.45-0.98-0.45c-0.36,0-0.67,0.13-0.92,0.38C69.36,191.92,69.22,192.24,69.19,192.65
		L69.19,192.65z M73.79,195.43v-4.05h-0.7v-0.63h0.7v-0.48c0-0.32,0.03-0.56,0.08-0.7c0.08-0.21,0.22-0.38,0.41-0.5
		c0.2-0.13,0.47-0.19,0.81-0.19c0.22,0,0.46,0.03,0.73,0.08l-0.13,0.69c-0.16-0.03-0.31-0.05-0.45-0.05c-0.24,0-0.41,0.05-0.52,0.16
		c-0.1,0.1-0.16,0.3-0.16,0.58v0.42h0.92v0.63h-0.92v4.05H73.79L73.79,195.43z M79.15,193.72l0.78,0.09
		c-0.08,0.54-0.3,0.96-0.66,1.27c-0.35,0.3-0.79,0.45-1.3,0.45c-0.64,0-1.15-0.21-1.53-0.63c-0.39-0.42-0.58-1.02-0.58-1.8
		c0-0.51,0.08-0.95,0.25-1.33c0.17-0.38,0.42-0.66,0.75-0.84c0.34-0.19,0.72-0.28,1.13-0.28c0.5,0,0.91,0.13,1.23,0.39
		c0.32,0.25,0.53,0.61,0.63,1.08l-0.77,0.13c-0.07-0.31-0.2-0.55-0.39-0.7c-0.19-0.17-0.41-0.25-0.67-0.25
		c-0.41,0-0.73,0.15-0.98,0.44c-0.24,0.28-0.36,0.73-0.36,1.34c0,0.64,0.12,1.09,0.36,1.38c0.24,0.28,0.55,0.42,0.94,0.42
		c0.31,0,0.57-0.09,0.78-0.28C78.97,194.41,79.1,194.12,79.15,193.72L79.15,193.72z M80.82,195.43v-0.91h0.91v0.91H80.82
		L80.82,195.43z M82.81,193.1c0-0.86,0.24-1.51,0.72-1.92c0.41-0.34,0.9-0.52,1.47-0.52c0.65,0,1.17,0.21,1.58,0.63
		s0.61,0.99,0.61,1.73c0,0.6-0.09,1.08-0.28,1.42c-0.18,0.34-0.44,0.61-0.78,0.81c-0.34,0.19-0.72,0.28-1.13,0.28
		c-0.66,0-1.19-0.21-1.59-0.63C83.01,194.48,82.81,193.88,82.81,193.1L82.81,193.1z M83.62,193.1c0,0.59,0.13,1.04,0.39,1.34
		c0.26,0.29,0.59,0.44,0.98,0.44c0.4,0,0.72-0.15,0.98-0.44c0.26-0.3,0.39-0.76,0.39-1.38c0-0.57-0.13-1.01-0.39-1.31
		c-0.26-0.3-0.59-0.45-0.98-0.45c-0.4,0-0.72,0.15-0.98,0.45C83.75,192.05,83.62,192.5,83.62,193.1L83.62,193.1z M88.09,195.43
		v-4.67h0.72v0.72c0.18-0.33,0.34-0.55,0.5-0.66s0.33-0.16,0.52-0.16c0.26,0,0.53,0.08,0.81,0.25l-0.28,0.73
		c-0.19-0.11-0.38-0.17-0.58-0.17c-0.17,0-0.32,0.05-0.47,0.16c-0.14,0.1-0.23,0.25-0.3,0.44c-0.08,0.28-0.13,0.59-0.13,0.92v2.44
		H88.09L88.09,195.43z M90.97,195.82l0.77,0.11c0.03,0.24,0.12,0.41,0.27,0.52c0.2,0.15,0.47,0.22,0.81,0.22
		c0.36,0,0.65-0.07,0.84-0.22c0.2-0.15,0.33-0.35,0.41-0.61c0.04-0.17,0.06-0.51,0.05-1.02c-0.34,0.41-0.77,0.61-1.28,0.61
		c-0.65,0-1.15-0.23-1.5-0.69c-0.34-0.47-0.52-1.03-0.52-1.67c0-0.45,0.08-0.86,0.23-1.23c0.17-0.38,0.4-0.66,0.7-0.86
		c0.3-0.21,0.66-0.31,1.08-0.31c0.55,0,1.01,0.22,1.36,0.66v-0.56h0.73v4.03c0,0.73-0.08,1.24-0.23,1.55
		c-0.15,0.3-0.38,0.54-0.7,0.72c-0.31,0.18-0.7,0.27-1.17,0.27c-0.56,0-1.02-0.13-1.36-0.38C91.12,196.69,90.96,196.32,90.97,195.82
		L90.97,195.82z M91.62,193.01c0,0.61,0.12,1.06,0.36,1.34c0.24,0.28,0.54,0.42,0.91,0.42c0.36,0,0.67-0.14,0.92-0.42
		s0.38-0.72,0.38-1.31c0-0.57-0.13-1.01-0.39-1.3c-0.25-0.29-0.55-0.44-0.91-0.44c-0.35,0-0.66,0.15-0.91,0.44
		C91.74,192.02,91.62,192.44,91.62,193.01L91.62,193.01z"/>
	<path d="M41.62,102.35H32.5v3.82h8.86c1.92,0,2.49,0.85,2.49,1.91c0,1.09-0.57,1.94-2.49,1.94l-8.86,0v8.55h4.4v-4.72h4.72
		c4,0,6.63-2.53,6.63-5.76C48.25,104.85,45.62,102.35,41.62,102.35L41.62,102.35z"/>
	<polygon points="52.44,118.57 67.05,118.57 67.05,114.75 56.84,114.75 56.84,112.19 63.78,112.19 63.78,108.36 56.84,108.36 
		56.84,106.17 67.05,106.17 67.05,102.35 52.44,102.35 52.44,118.57 	"/>
	<polygon points="71.86,118.57 76.26,118.57 76.26,112.19 83.21,112.19 83.21,108.36 76.26,108.36 76.26,106.17 86.47,106.17 
		86.47,102.35 71.86,102.35 71.86,118.57 	"/>
	<path d="M98.17,105.86c1.52,0,2.8,0.57,3.75,1.64l3.54-2.47c-1.95-2.04-4.61-2.99-7.3-2.99c-5.32,0-9.58,3.67-9.58,8.42
		c0,4.76,4.26,8.43,9.58,8.43c2.67,0,5.32-0.94,7.27-2.96l-3.57-2.3c-0.92,0.9-2.24,1.44-3.7,1.44c-2.63,0-5.03-2.04-5.03-4.61
		C93.14,107.9,95.54,105.86,98.17,105.86L98.17,105.86z"/>
	<path d="M75.76,79.98v-7.39h10.45L72.3,44.12l-6.54,12.42c0.18,0.91,0.27,1.85,0.27,2.81c0,5.66-3.18,10.59-7.87,13.16l-0.25,0.08
		h10.9v7.39H75.76L75.76,79.98z"/>
	<path d="M46.55,71.69v8.51h6.96v-8.38c5.55-1.42,9.64-6.36,9.64-12.25c0-6.99-5.77-12.66-12.88-12.66
		c-7.12,0-12.88,5.67-12.88,12.66C37.39,65.29,41.25,70.12,46.55,71.69L46.55,71.69z"/>
	<path d="M43.15,45.72c0.7-0.36,1.42-0.67,2.17-0.93c7.03-7.26,16.8-11.99,26.55-11.99c15.39,0,25.11,11.82,22.44,26.76l6.15-5.74
		l4.11,4.56c2.06-16.87-9.43-29.96-27.25-29.96c-12.92,0-25.87,6.89-34.36,17.11c0,0-0.05,0.07,0.02,0.15
		C43.06,45.77,43.15,45.72,43.15,45.72L43.15,45.72z"/>
	<path d="M60.77,96.42c18.96,0,37.99-14.83,42.88-33.26l-3.98-4.42l-6.9,6.43c-5.28,14.04-20.1,24.88-34.84,24.88
		c-15.21,0-24.87-11.53-22.54-26.21c-0.27-0.94-0.46-1.93-0.55-2.94c0,0,0.01-0.07-0.09-0.06c-0.06,0-0.08,0.06-0.08,0.06
		c-0.14,0.51-0.28,1.01-0.4,1.52C29.7,81.2,41.56,96.42,60.77,96.42L60.77,96.42z"/>
	<polygon points="104.95,98.9 107.68,98.9 107.68,99.63 106.76,99.63 106.76,101.82 105.87,101.82 105.87,99.63 104.95,99.63 
		104.95,98.9 	"/>
	<polygon points="108.08,98.9 109.27,98.9 109.72,100.68 110.16,98.9 111.34,98.9 111.34,101.82 110.61,101.82 110.61,99.6 
		110.05,101.82 109.38,101.82 108.81,99.6 108.81,101.82 108.08,101.82 108.08,98.9 	"/>
</g>
</svg>
