<?xml version="1.0" encoding="utf-8"?>
<!-- Generator: Adobe Illustrator 23.0.3, SVG Export Plug-In . SVG Version: 6.00 Build 0)  -->
<svg version="1.1" id="Шар_1" xmlns="http://www.w3.org/2000/svg" xmlns:xlink="http://www.w3.org/1999/xlink" x="0px" y="0px"
	 viewBox="0 0 56.69 56.69" style="enable-background:new 0 0 56.69 56.69;" xml:space="preserve">
<style type="text/css">
	.st0{fill:#0E72BA;}
	.st1{fill:none;}
</style>
<path class="st0" d="M52.9,26.07c-0.94-1.42-1.42-2.36-2.36-3.31c0-0.47,0.47-0.47,0.47-0.95c0.94-0.95,0.94-1.89,0-2.36
	c-1.89-2.36-3.78-4.25-5.67-6.14c-3.31-2.84-6.14-6.14-9.45-9.45c-0.47-0.47-0.94-0.95-1.42-1.42h-1.42
	c-0.94,1.42-1.89,2.36-3.31,3.31c-8.5,8.98-17.48,17.49-25.99,26.47c-0.47,0.47-0.47,0.47-0.94,0.95v1.42
	c0.47,0.47,0.94,0.95,0.94,0.95c2.83,2.84,5.2,5.2,8.03,8.04c0,0,0.47,0.47,0.47,0.95v-6.14c-1.89-1.42-3.31-2.84-5.2-4.73
	C16.05,24.65,25.03,16.14,34,7.16c4.25,4.25,8.98,8.98,13.23,13.23c-2.83,2.84-5.2,5.67-8.5,8.51c1.42,0.47,2.83,0.95,3.78,1.42
	c1.89-1.42,3.31-3.31,5.2-4.73c0.47,0,0.94,0.47,1.42,0.95c-1.89,1.42-3.78,2.84-5.67,4.25h-0.47c1.42,0.95,2.36,1.89,2.36,3.31
	v-0.47c1.89-1.42,3.78-2.84,5.67-4.25c0.47,0,0.94-0.47,1.42-0.95C53.37,27.96,53.37,27.01,52.9,26.07"/>
<path d="M41.56,42.14c-1.42,0.95-2.83,1.42-4.72,1.89c-5.2,0.95-10.87,0.95-16.54-0.47c-1.42,0-2.83-0.47-3.78-1.42h-0.47
	c-1.42-0.95-1.42-1.89,0-2.84c4.25,1.89,8.5,2.36,12.76,2.36s8.5-0.47,12.28-2.36h0.47C42.98,40.25,42.98,41.19,41.56,42.14
	 M41.56,47.81c-1.42,0.95-2.83,1.89-4.72,1.89c-5.2,1.42-10.87,1.42-16.54,0c-1.42,0-2.83-0.47-3.78-1.42c-0.47,0-0.47,0-0.47-0.47
	c-1.42-0.95-1.42-1.42,0-2.36c4.25,1.42,8.5,2.36,12.76,2.36c4.25-0.47,8.5-0.95,12.28-2.36h0.47
	C42.98,46.39,42.98,46.86,41.56,47.81 M45.34,34.1c0-0.95-0.94-2.36-2.36-3.31c-2.83-1.89-8.5-3.31-14.17-3.31
	c-6.14,0-11.81,1.42-14.65,3.78c-0.47,0-0.47,0-0.94,0.47s-0.94,1.42-0.94,2.84v9.93v0.47v1.89c0,1.42,0.94,2.84,2.36,3.78
	c1.89,0.95,3.78,1.89,6.14,2.36c5.67,0.95,11.81,0.95,17.95-0.47c1.42-0.47,3.31-1.42,4.72-2.36c1.42-0.95,1.89-2.36,1.89-3.78V34.1
	z"/>
<rect x="3.12" y="2.2" class="st1" width="51.02" height="52.46"/>
</svg>
