<?xml version="1.0" encoding="utf-8"?>
<!-- Generator: Adobe Illustrator 23.0.3, SVG Export Plug-In . SVG Version: 6.00 Build 0)  -->
<svg version="1.1" id="Шар_1" xmlns="http://www.w3.org/2000/svg" xmlns:xlink="http://www.w3.org/1999/xlink" x="0px" y="0px"
	 viewBox="0 0 56.69 65.14" style="enable-background:new 0 0 56.69 65.14;" xml:space="preserve">
<style type="text/css">
	.st0{fill:#0E72BA;}
	.st1{fill:#F9F8FA;}
	.st2{fill:none;}
</style>
<path class="st0" d="M47.7,58.65h-6.3c-1.57,0-2.62,0.53-3.15,1.06c-1.57,1.59-3.15,3.18-4.72,4.25c-2.1-4.78-4.2-9.55-5.77-14.86
	c-2.1,4.78-3.67,9.02-5.25,13.27l-4.72-4.78c-1.05-0.53-1.57-1.06-2.62-1.06c-2.1,0.53-4.2,0-6.82,0c2.1-4.78,3.67-9.55,5.77-14.33
	c2.1,0,3.15,0.53,4.2,2.12c2.1,2.65,5.25,3.18,7.87,1.59c1.05-0.53,2.1-0.53,3.15,0c3.15,1.59,6.3,1.06,8.4-2.12
	c1.05-1.06,1.57-1.59,3.15-1.59C42.98,47.5,45.08,52.81,47.7,58.65"/>
<path class="st0" d="M32.48,43.78c1.57,0,2.62-0.53,3.15-2.12c1.05-1.06,1.57-2.12,3.15-2.12c2.62,0,5.25-0.53,5.25-4.78
	c0-1.59,0.52-2.12,1.57-2.65c2.62-2.12,3.15-3.72,1.57-6.37c-0.52-1.59-0.52-2.65,0-4.25c1.57-2.65,1.05-4.25-1.05-5.84
	c-1.57-1.06-2.1-2.12-2.62-3.72c0-3.18-1.05-4.25-4.2-4.25c-1.57,0-2.62-1.06-3.67-2.12c-1.57-2.65-2.62-3.18-5.77-1.59
	c-1.57,0.53-2.62,0.53-4.2,0c-2.62-1.59-4.2-1.06-5.77,1.59c-0.52,1.59-1.57,2.12-3.15,2.12c-3.15,0-4.72,1.06-4.72,4.25
	c0,1.59-0.52,2.65-2.1,3.72c-2.62,1.59-2.62,3.18-1.57,5.84c1.05,1.59,1.05,2.65,0,4.25c-1.05,2.65-1.05,4.25,1.57,5.84
	c1.57,1.06,2.1,2.12,2.1,3.72c0.52,3.18,1.57,4.25,4.72,4.25c1.57,0,2.1,0.53,3.15,2.12c2.1,2.65,3.15,3.18,6.3,1.59
	c1.05-0.53,2.1-1.06,3.67,0C30.38,43.78,31.43,43.78,32.48,43.78 M49.28,19.37c0.52,0.53,0,1.59-0.52,2.12
	c-0.52,1.59-0.52,2.65,0,4.25c1.05,1.59,1.05,3.18,0,4.78c-0.52,1.06-1.57,1.59-2.62,2.12c-0.52,0.53-1.05,1.06-1.05,2.12
	c0,4.78-1.57,5.84-5.77,6.37c-1.05,0-1.57,0.53-2.1,1.06c-2.62,3.72-4.2,4.25-7.87,2.12c-1.05-0.53-2.1-0.53-2.62,0
	c-2.62,2.12-6.3,1.06-7.87-2.12c-0.52-1.06-1.57-1.06-2.62-1.06c-3.67-0.53-5.25-2.12-5.25-5.84c0-1.06-0.52-2.12-1.57-2.65
	c-3.15-1.59-3.67-4.78-2.1-7.96c0.52-0.53,0.52-1.59,0-2.12c-1.57-4.25-1.05-5.84,2.1-8.49c1.05-0.53,1.57-1.06,1.57-2.12
	c0-3.72,1.57-5.31,5.25-5.84c1.05,0,2.1-0.53,2.62-1.59c2.1-3.18,4.2-3.72,7.87-1.59h2.62c3.67-2.12,5.77-1.59,7.87,1.59
	c0.52,1.06,1.57,1.59,2.62,1.59c3.15,0.53,5.25,2.12,5.25,5.31c0,1.59,0.52,2.65,1.57,3.18C48.23,15.65,49.8,17.25,49.28,19.37"/>
<path class="st1" d="M46.66,18.84c0-1.06-0.52-1.59-1.57-2.12c-1.57-1.06-2.62-2.65-2.62-4.78s-1.05-2.65-2.62-2.65
	c-2.62-0.53-4.2-1.06-5.25-3.18c-1.05-1.59-2.1-2.12-3.67-1.06c-2.1,1.06-3.67,1.06-5.77,0c-1.57-1.06-2.62-0.53-3.67,1.06
	c-1.57,2.12-3.15,2.65-5.25,3.18c-2.1,0-2.62,0.53-2.62,2.65s-1.05,3.72-3.15,4.78c-1.57,1.06-1.57,2.12-1.05,3.72
	c1.57,2.12,1.57,4.25,0,6.37c-0.52,1.59-0.52,2.65,1.05,3.72c2.1,1.06,3.15,2.65,3.15,4.78c0,2.12,0.52,2.65,2.62,2.65
	c2.1,0.53,3.67,1.06,4.72,3.18c1.57,1.59,2.1,2.12,4.2,1.06c2.1-1.06,3.67-1.06,5.77,0c1.57,1.06,2.62,0.53,3.67-1.06
	c1.05-2.12,2.62-3.18,5.25-3.18c1.57,0,2.62-0.53,2.62-2.65c0-2.12,0.52-3.72,2.62-4.78c2.1-1.59,2.1-2.12,1.05-4.78
	c-1.05-1.59-1.05-3.18,0-4.78C46.13,20.43,46.66,19.9,46.66,18.84 M32.48,43.78c-1.05,0-2.1,0-2.62-0.53
	c-1.57-1.06-2.62-0.53-3.67,0c-3.15,1.59-4.2,1.06-6.3-1.59c-1.05-1.59-1.57-2.12-3.15-2.12c-3.15,0-4.2-1.06-4.72-4.25
	c0-1.59-0.52-2.65-2.1-3.72c-2.62-1.59-2.62-3.18-1.57-5.84c1.05-1.59,1.05-2.65,0-4.25c-1.05-2.65-1.05-4.25,1.57-5.84
	c1.57-1.06,2.1-2.12,2.1-3.72c0-3.18,1.57-4.25,4.72-4.25c1.57,0,2.62-0.53,3.15-2.12c1.57-2.65,3.15-3.18,5.77-1.59
	c1.57,0.53,2.62,0.53,4.2,0c3.15-1.59,4.2-1.06,5.77,1.59c1.05,1.06,2.1,2.12,3.67,2.12c3.15,0,4.2,1.06,4.2,4.25
	c0.52,1.59,1.05,2.65,2.62,3.72c2.1,1.59,2.62,3.18,1.05,5.84c-0.52,1.59-0.52,2.65,0,4.25c1.57,2.65,1.05,4.25-1.57,6.37
	c-1.05,0.53-1.57,1.06-1.57,2.65c0,4.25-2.62,4.78-5.25,4.78c-1.57,0-2.1,1.06-3.15,2.12C35.11,43.25,34.06,43.78,32.48,43.78"/>
<path class="st0" d="M42.98,23.62c0-8.49-6.82-15.39-15.22-14.86c-7.87,0-14.7,6.37-14.7,14.86c0,7.96,6.82,14.86,14.7,14.86
	C36.16,38.48,42.98,32.11,42.98,23.62 M46.66,18.84c0,1.06-0.52,1.59-0.52,2.12c-1.05,1.59-1.05,3.18,0,4.78
	c1.05,2.65,1.05,3.18-1.05,4.78c-2.1,1.06-2.62,2.65-2.62,4.78c0,2.12-1.05,2.65-2.62,2.65c-2.62,0-4.2,1.06-5.25,3.18
	c-1.05,1.59-2.1,2.12-3.67,1.06c-2.1-1.06-3.67-1.06-5.77,0c-2.1,1.06-2.62,0.53-4.2-1.06c-1.05-2.12-2.62-2.65-4.72-3.18
	c-2.1,0-2.62-0.53-2.62-2.65c0-2.12-1.05-3.72-3.15-4.78c-1.57-1.06-1.57-2.12-1.05-3.72c1.57-2.12,1.57-4.25,0-6.37
	c-0.52-1.59-0.52-2.65,1.05-3.72c2.1-1.06,3.15-2.65,3.15-4.78s0.52-2.65,2.62-2.65c2.1-0.53,3.67-1.06,5.25-3.18
	c1.05-1.59,2.1-2.12,3.67-1.06c2.1,1.06,3.67,1.06,5.77,0c1.57-1.06,2.62-0.53,3.67,1.06c1.05,2.12,2.62,2.65,5.25,3.18
	c1.57,0,2.62,0.53,2.62,2.65s1.05,3.72,2.62,4.78C46.13,17.25,46.66,17.78,46.66,18.84"/>
<path class="st1" d="M35.63,14.06c-3.67,3.18-6.3,7.43-8.92,11.68c-1.05-1.59-2.1-3.18-2.62-4.78c-2.1,1.06-4.2,2.12-6.3,3.18
	c4.2,2.12,6.82,5.84,9.45,10.08c2.62-5.84,5.77-10.62,10.5-14.86C37.21,17.78,36.16,15.65,35.63,14.06 M42.98,23.61
	c0,8.49-6.82,14.86-15.22,14.86c-7.87,0-14.7-6.9-14.7-14.86c0-8.49,6.82-14.86,14.7-14.86C36.16,8.22,42.98,15.12,42.98,23.61"/>
<path d="M35.63,14.06c0.52,1.59,1.57,3.72,2.1,5.31c-4.72,4.25-7.87,9.02-10.5,14.86c-2.62-4.25-5.25-7.96-9.45-10.08
	c2.1-1.06,4.2-2.12,6.3-3.18c0.52,1.59,1.57,3.18,2.62,4.78C29.33,21.49,31.96,17.25,35.63,14.06"/>
<rect x="5.78" y="1.43" class="st2" width="45.7" height="63.71"/>
</svg>
